<?xml version="1.0" standalone="no"?><!DOCTYPE svg PUBLIC "-//W3C//DTD SVG 1.1//EN" "http://www.w3.org/Graphics/SVG/1.1/DTD/svg11.dtd"><svg height="159" node-id="1" sillyvg="true" template-height="159" template-width="176" version="1.1" viewBox="0 0 176 159" width="176" xmlns="http://www.w3.org/2000/svg" xmlns:xlink="http://www.w3.org/1999/xlink"><defs node-id="97"></defs><g node-id="99"><path d="M 13.33 20.49 L 168.99 20.49 L 170.86 20.74 L 172.52 21.44 L 173.94 22.54 L 175.03 23.96 L 175.73 25.61 L 175.99 27.49 L 175.99 122.12 L 175.73 124.00 L 175.03 125.66 L 173.94 127.07 L 172.52 128.17 L 170.86 128.87 L 168.99 129.12 L 13.33 129.12 L 11.46 128.87 L 9.80 128.17 L 8.38 127.07 L 7.29 125.66 L 6.59 124.00 L 6.33 122.12 L 6.33 27.49 L 6.59 25.61 L 7.29 23.96 L 8.38 22.54 L 9.80 21.44 L 11.46 20.74 L 13.33 20.49 Z" fill="#ffffff" fill-rule="nonzero" group-id="1" id="矩形_3326" node-id="2" stroke="none" target-height="108.63" target-width="169.66" target-x="6.33" target-y="20.49"></path></g><g node-id="100"><path d="M 170.68 129.50 L 11.64 129.50 L 10.10 129.28 L 8.78 128.73 L 7.62 127.83 L 6.73 126.68 L 6.18 125.36 L 5.95 123.81 L 5.95 25.80 L 6.17 24.26 L 6.73 22.94 L 7.62 21.78 L 8.77 20.89 L 10.10 20.33 L 11.64 20.11 L 170.68 20.11 L 172.22 20.33 L 173.55 20.89 L 174.70 21.78 L 175.59 22.94 L 176.15 24.26 L 176.37 25.80 L 176.37 123.81 L 176.14 125.36 L 175.59 126.68 L 174.70 127.83 L 173.54 128.73 L 172.22 129.28 L 170.68 129.50 Z M 11.64 20.87 L 10.30 21.06 L 9.15 21.54 L 8.15 22.32 L 7.38 23.32 L 6.90 24.47 L 6.71 25.80 L 6.71 123.81 L 6.90 125.15 L 7.38 126.30 L 8.16 127.30 L 9.16 128.07 L 10.30 128.55 L 11.64 128.74 L 170.68 128.74 L 172.02 128.55 L 173.16 128.07 L 174.16 127.30 L 174.94 126.30 L 175.42 125.15 L 175.61 123.81 L 175.61 25.80 L 175.42 24.47 L 174.94 23.32 L 174.17 22.32 L 173.17 21.54 L 172.02 21.06 L 170.68 20.87 Z" fill="#231f20" fill-rule="nonzero" group-id="2" id="路径_10066" node-id="3" stroke="none" target-height="109.39" target-width="170.42" target-x="5.95" target-y="20.11"></path></g><g node-id="101"><path d="M 175.99 112.33 L 6.33 112.33 L 6.07 112.21 L 5.95 111.95 L 6.07 111.68 L 6.33 111.57 L 175.99 111.57 L 176.25 111.68 L 176.37 111.95 L 176.26 112.22 L 175.99 112.33 Z" fill="#231f20" fill-rule="nonzero" group-id="3" id="路径_10067" node-id="4" stroke="none" target-height="0.76000214" target-width="170.42" target-x="5.95" target-y="111.57"></path></g><g node-id="102"><path d="M 112.85 150.13 L 69.48 150.13 L 77.48 129.13 L 104.85 129.13 Z" fill="#ffffff" fill-rule="nonzero" group-id="4" id="路径_10068" node-id="5" stroke="none" target-height="21" target-width="43.369995" target-x="69.48" target-y="129.13"></path></g><g node-id="103"><path d="M 112.84 150.51 L 69.48 150.51 L 69.16 150.34 L 69.12 149.99 L 77.12 128.99 L 77.47 128.74 L 104.87 128.74 L 105.22 128.99 L 113.21 149.99 L 113.16 150.34 L 112.85 150.51 Z M 70.03 149.75 L 112.30 149.75 L 104.58 129.50 L 77.73 129.50 Z" fill="#231f20" fill-rule="nonzero" group-id="5" id="路径_10069" node-id="6" stroke="none" target-height="21.769989" target-width="44.089996" target-x="69.12" target-y="128.74"></path></g><g node-id="104"><path d="M 64.68 148.89 L 117.64 148.89 L 118.75 149.12 L 119.64 149.72 L 120.25 150.61 L 120.47 151.72 L 120.47 151.72 L 120.25 152.83 L 119.64 153.73 L 118.75 154.33 L 117.64 154.56 L 64.68 154.56 L 63.57 154.33 L 62.68 153.73 L 62.07 152.83 L 61.85 151.72 L 61.85 151.72 L 62.07 150.61 L 62.68 149.72 L 63.57 149.12 L 64.68 148.89 Z" fill="#ffffff" fill-rule="nonzero" group-id="6" id="矩形_3327" node-id="7" stroke="none" target-height="5.669998" target-width="58.620003" target-x="61.85" target-y="148.89"></path></g><g node-id="105"><path d="M 117.93 154.94 L 64.39 154.94 L 63.24 154.70 L 62.32 154.08 L 61.70 153.16 L 61.47 152.02 L 61.47 151.44 L 61.70 150.29 L 62.32 149.37 L 63.24 148.75 L 64.39 148.51 L 117.93 148.51 L 119.08 148.75 L 120.00 149.37 L 120.62 150.29 L 120.85 151.44 L 120.85 152.02 L 120.62 153.16 L 120.00 154.08 L 119.08 154.70 L 117.93 154.94 Z M 64.39 149.27 L 63.54 149.45 L 62.86 149.91 L 62.40 150.59 L 62.23 151.44 L 62.23 152.02 L 62.40 152.86 L 62.86 153.54 L 63.54 154.00 L 64.39 154.18 L 117.93 154.18 L 118.78 154.00 L 119.46 153.54 L 119.92 152.86 L 120.09 152.02 L 120.09 151.44 L 119.92 150.59 L 119.46 149.91 L 118.78 149.45 L 117.93 149.27 Z" fill="#231f20" fill-rule="nonzero" group-id="7" id="路径_10070" node-id="8" stroke="none" target-height="6.430008" target-width="59.379997" target-x="61.47" target-y="148.51"></path></g><g node-id="106"><path d="M 12.39 25.61 L 169.93 25.61 L 169.93 105.29 L 12.39 105.29 Z" fill="#ff595e" fill-rule="nonzero" group-id="8" id="矩形_3328" node-id="9" stroke="none" target-height="79.68" target-width="157.54" target-x="12.39" target-y="25.61"></path></g><g node-id="107"><path d="M 12.39 25.61 L 169.93 25.61 L 169.93 105.29 L 12.39 105.29 Z" fill="#d1d3d4" fill-rule="nonzero" group-id="9" id="矩形_3329" node-id="10" stroke="none" target-height="79.68" target-width="157.54" target-x="12.39" target-y="25.61"></path></g><g node-id="108"><path d="M 73.52 138.71 L 105.81 132.44 L 104.54 129.12 L 77.17 129.12 Z" fill="#231f20" fill-rule="nonzero" group-id="10" id="路径_10071" node-id="11" stroke="none" target-height="9.590012" target-width="32.29" target-x="73.52" target-y="129.12"></path></g><g node-id="109"><path d="M 73.52 139.09 L 73.20 138.93 L 73.16 138.58 L 76.81 128.99 L 77.17 128.74 L 104.54 128.74 L 104.90 128.99 L 106.16 132.31 L 106.16 132.62 L 105.90 132.81 L 73.61 139.09 Z M 77.43 129.50 L 74.11 138.21 L 105.29 132.15 L 104.28 129.49 Z" fill="#231f20" fill-rule="nonzero" group-id="11" id="路径_10072" node-id="12" stroke="none" target-height="10.349991" target-width="33" target-x="73.16" target-y="128.74"></path></g><g node-id="110"><path d="M 148.59 6.89 L 148.59 105.29 L 33.78 105.29 L 33.78 0.38 L 142.08 0.38 L 143.84 0.63 L 145.36 1.26 L 146.68 2.29 L 147.71 3.61 L 148.34 5.12 L 148.59 6.89 Z" fill="#ffffff" fill-rule="nonzero" group-id="12" id="路径_10073" node-id="13" stroke="none" target-height="104.91" target-width="114.81" target-x="33.78" target-y="0.38"></path></g><g node-id="111"><path d="M 148.59 105.68 L 33.78 105.68 L 33.51 105.56 L 33.40 105.30 L 33.40 0.38 L 33.51 0.11 L 33.78 0.00 L 142.08 0.00 L 143.43 0.13 L 144.72 0.52 L 145.90 1.15 L 146.96 2.01 L 147.82 3.07 L 148.45 4.25 L 148.84 5.54 L 148.97 6.89 L 148.97 105.29 L 148.86 105.56 L 148.59 105.68 Z M 34.16 104.92 L 148.21 104.92 L 148.21 6.89 L 147.99 5.28 L 147.40 3.86 L 146.41 2.57 L 145.12 1.58 L 143.69 0.99 L 142.08 0.78 L 34.16 0.78 Z" fill="#231f20" fill-rule="nonzero" group-id="13" id="路径_10074" node-id="14" stroke="none" target-height="105.68" target-width="115.57" target-x="33.4" target-y="0"></path></g><g node-id="112"><path d="M 89.49 34.56 L 40.57 34.56 L 40.30 34.45 L 40.19 34.18 L 40.19 17.04 L 40.30 16.77 L 40.57 16.66 L 40.84 16.77 L 40.95 17.04 L 40.95 33.80 L 89.48 33.80 L 89.75 33.91 L 89.86 34.18 L 89.76 34.45 L 89.49 34.56 Z" fill="#d1d3d4" fill-rule="nonzero" group-id="14" id="路径_10075" node-id="15" stroke="none" target-height="17.900002" target-width="49.670002" target-x="40.19" target-y="16.66"></path></g><g node-id="113"><path d="M 79.96 75.85 L 41.01 75.85 L 40.74 75.74 L 40.63 75.47 L 40.63 39.75 L 40.74 39.48 L 41.01 39.37 L 79.96 39.37 L 80.23 39.48 L 80.34 39.75 L 80.34 75.50 L 80.22 75.75 L 79.96 75.85 Z M 41.39 75.09 L 79.59 75.09 L 79.59 40.13 L 41.39 40.13 Z" fill="#d1d3d4" fill-rule="nonzero" group-id="15" id="路径_10076" node-id="16" stroke="none" target-height="36.48" target-width="39.709995" target-x="40.63" target-y="39.37"></path></g><g node-id="114"><path d="M 140.91 99.91 L 43.29 99.91 L 43.02 99.80 L 42.91 99.53 L 42.91 82.22 L 43.02 81.95 L 43.29 81.84 L 140.91 81.84 L 141.17 81.96 L 141.29 82.22 L 141.29 99.53 L 141.18 99.80 L 140.91 99.91 Z M 43.67 99.16 L 140.51 99.16 L 140.51 82.60 L 43.67 82.60 Z" fill="#d1d3d4" fill-rule="nonzero" group-id="16" id="路径_10077" node-id="17" stroke="none" target-height="18.070007" target-width="98.37999" target-x="42.91" target-y="81.84"></path></g><g node-id="115"><path d="M 140.91 88.74 L 43.29 88.74 L 43.02 88.63 L 42.91 88.36 L 43.02 88.10 L 43.29 87.98 L 140.91 87.98 L 141.17 88.10 L 141.29 88.36 L 141.17 88.63 L 140.91 88.74 Z" fill="#d1d3d4" fill-rule="nonzero" group-id="17" id="路径_10078" node-id="18" stroke="none" target-height="0.7599945" target-width="98.37999" target-x="42.91" target-y="87.98"></path></g><g node-id="116"><path d="M 1.07 152.08 L 1.07 157.65 L 3.07 157.88 L 7.46 158.34 L 11.79 158.68 L 13.42 158.68 L 13.63 158.57 L 12.37 157.44 L 9.85 155.53 L 7.39 153.73 L 6.29 152.94 Z" fill="#231f20" fill-rule="nonzero" group-id="18" id="路径_10079" node-id="19" stroke="none" target-height="6.599991" target-width="12.56" target-x="1.07" target-y="152.08"></path></g><g node-id="117"><path d="M 12.63 159.07 L 8.90 158.86 L 1.03 158.04 L 0.79 157.91 L 0.69 157.66 L 0.69 152.08 L 0.83 151.80 L 1.14 151.71 L 6.29 152.57 L 6.45 152.64 L 9.28 154.68 L 12.35 156.98 L 13.96 158.41 L 13.96 158.83 L 13.69 158.99 L 12.63 159.07 Z M 1.45 157.32 L 6.07 157.82 L 10.14 158.19 L 12.82 158.33 L 10.05 156.20 L 6.07 153.31 L 1.42 152.55 Z" fill="#231f20" fill-rule="nonzero" group-id="19" id="路径_10080" node-id="20" stroke="none" target-height="7.3600006" target-width="13.27" target-x="0.69" target-y="151.71"></path></g><g node-id="118"><path d="M 1.08 147.17 L 1.08 152.08 L 6.25 152.94 L 7.11 147.17 Z" fill="#ffffff" fill-rule="nonzero" group-id="20" id="路径_10081" node-id="21" stroke="none" target-height="5.7700043" target-width="6.03" target-x="1.08" target-y="147.17"></path></g><g node-id="119"><path d="M 6.29 153.33 L 6.23 153.33 L 0.98 152.44 L 0.75 152.31 L 0.66 152.07 L 0.66 147.16 L 0.77 146.89 L 1.04 146.78 L 7.11 146.78 L 7.40 146.91 L 7.49 147.21 L 6.62 152.99 L 6.47 153.24 L 6.29 153.33 Z M 1.49 151.76 L 5.97 152.52 L 6.73 147.56 L 1.45 147.56 Z" fill="#231f20" fill-rule="nonzero" group-id="21" id="路径_10082" node-id="22" stroke="none" target-height="6.550003" target-width="6.83" target-x="0.66" target-y="146.78"></path></g><g node-id="120"><path d="M 18.92 148.63 L 18.92 153.90 L 24.79 154.32 L 25.13 148.63 Z" fill="#ffffff" fill-rule="nonzero" group-id="22" id="路径_10083" node-id="23" stroke="none" target-height="5.6900024" target-width="6.209999" target-x="18.92" target-y="148.63"></path></g><g node-id="121"><path d="M 24.79 154.72 L 24.79 154.72 L 18.93 154.28 L 18.68 154.17 L 18.57 153.91 L 18.57 148.65 L 18.68 148.38 L 18.95 148.27 L 25.16 148.27 L 25.44 148.39 L 25.54 148.67 L 25.20 154.36 L 25.07 154.62 L 24.79 154.72 Z M 19.30 153.56 L 24.43 153.93 L 24.73 149.03 L 19.30 149.03 Z" fill="#231f20" fill-rule="nonzero" group-id="23" id="路径_10084" node-id="24" stroke="none" target-height="6.449997" target-width="6.970001" target-x="18.57" target-y="148.27"></path></g><g node-id="122"><path d="M 27.59 95.36 L 25.71 149.72 L 18.06 149.72 L 14.06 109.25 L 7.71 149.03 L 0.38 148.63 L 4.41 95.80 Z" fill="#231f20" fill-rule="nonzero" group-id="24" id="路径_10085" node-id="25" stroke="none" target-height="54.36" target-width="27.210001" target-x="0.38" target-y="95.36"></path></g><g node-id="123"><path d="M 25.71 150.10 L 18.06 150.10 L 17.81 150.01 L 17.68 149.76 L 13.98 112.20 L 8.08 149.10 L 7.95 149.33 L 7.69 149.41 L 0.36 149.01 L 0.09 148.88 L 0.00 148.60 L 4.01 95.77 L 4.13 95.53 L 4.39 95.43 L 27.57 94.99 L 27.85 95.10 L 27.95 95.37 L 26.07 149.74 L 25.96 149.99 L 25.71 150.10 Z M 18.41 149.35 L 25.35 149.35 L 27.19 95.75 L 4.77 96.18 L 0.80 148.28 L 7.40 148.64 L 13.70 109.21 L 13.81 108.94 L 14.08 108.83 L 14.34 108.94 L 14.46 109.21 Z" fill="#231f20" fill-rule="nonzero" group-id="25" id="路径_10086" node-id="26" stroke="none" target-height="55.11001" target-width="27.95" target-x="0" target-y="94.99"></path></g><g node-id="124"><path d="M 43.44 79.99 L 45.70 79.28 L 48.05 78.96 L 49.80 78.58 L 50.84 77.89 L 51.47 76.94 L 51.61 76.05 L 51.19 75.29 L 50.09 74.60 L 48.74 74.23 L 47.41 74.23 L 46.49 74.51 L 45.24 75.10 L 42.95 76.43 L 41.89 77.12 Z" fill="#ffffff" fill-rule="nonzero" group-id="26" id="路径_10087" node-id="27" stroke="none" target-height="5.7599945" target-width="9.720001" target-x="41.89" target-y="74.23"></path></g><g node-id="125"><path d="M 43.44 80.40 L 43.11 80.20 L 41.55 77.34 L 41.51 77.07 L 41.67 76.84 L 42.83 76.09 L 45.13 74.76 L 46.39 74.18 L 47.33 73.89 L 48.71 73.89 L 49.98 74.20 L 51.20 74.83 L 51.71 75.37 L 51.96 76.05 L 51.80 77.10 L 51.26 78.00 L 50.31 78.76 L 49.25 79.22 L 48.04 79.38 L 45.77 79.69 L 43.57 80.37 L 43.44 80.40 Z M 42.38 77.28 L 43.61 79.56 L 45.79 78.93 L 48.03 78.63 L 49.49 78.36 L 50.71 77.53 L 51.11 76.89 L 51.22 76.14 L 51.05 75.75 L 50.74 75.45 L 49.17 74.77 L 47.46 74.69 L 45.76 75.28 L 43.81 76.35 L 42.38 77.25 Z" fill="#231f20" fill-rule="nonzero" group-id="27" id="路径_10088" node-id="28" stroke="none" target-height="6.510002" target-width="10.450001" target-x="41.51" target-y="73.89"></path></g><g node-id="126"><path d="M 26.45 62.25 L 27.08 63.79 L 28.62 67.49 L 30.57 71.92 L 32.39 75.68 L 33.21 77.02 L 33.59 77.37 L 35.66 77.15 L 39.08 76.37 L 42.29 75.54 L 43.70 75.15 L 43.90 80.66 L 42.35 81.55 L 38.66 83.35 L 36.45 84.19 L 34.28 84.76 L 32.20 84.91 L 30.65 84.50 L 29.13 83.47 L 26.86 81.65 L 22.12 77.37 L 18.06 73.48 L 16.35 71.78 Z" fill="#ff595e" fill-rule="nonzero" group-id="28" id="路径_10089" node-id="29" stroke="none" target-height="22.660004" target-width="27.550001" target-x="16.35" target-y="62.25"></path></g><g node-id="127"><path d="M 49.14 75.92 L 53.93 79.04 L 60.21 69.22 L 55.42 66.10 Z" fill="#231f20" fill-rule="nonzero" group-id="29" id="路径_10090" node-id="30" stroke="none" target-height="12.940002" target-width="11.07" target-x="49.14" target-y="66.1"></path></g><g node-id="128"><path d="M 53.93 79.42 L 53.73 79.36 L 48.94 76.24 L 48.77 76.00 L 48.83 75.72 L 55.10 65.86 L 55.35 65.70 L 55.63 65.75 L 60.42 68.87 L 60.58 69.10 L 60.53 69.38 L 54.25 79.24 L 54.01 79.41 Z M 49.66 75.85 L 53.82 78.55 L 59.69 69.36 L 55.53 66.66 Z" fill="#231f20" fill-rule="nonzero" group-id="30" id="路径_10091" node-id="31" stroke="none" target-height="13.720001" target-width="11.810001" target-x="48.77" target-y="65.7"></path></g><g node-id="129"><path d="M 54.14 68.87 L 76.79 33.42 L 80.46 35.81" fill="#231f20" fill-rule="nonzero" group-id="31" id="路径_10092" node-id="32" stroke="none" target-height="35.450005" target-width="26.32" target-x="54.14" target-y="33.42"></path></g><g node-id="130"><path d="M 54.14 69.25 L 53.94 69.19 L 53.78 68.95 L 53.83 68.66 L 76.48 33.21 L 76.71 33.05 L 77.00 33.10 L 80.67 35.49 L 80.82 35.72 L 80.77 36.00 L 80.54 36.16 L 80.26 36.12 L 76.91 33.94 L 54.47 69.07 L 54.15 69.25 Z" fill="#231f20" fill-rule="nonzero" group-id="32" id="路径_10093" node-id="33" stroke="none" target-height="36.2" target-width="27.04" target-x="53.78" target-y="33.05"></path></g><g node-id="131"><path d="M 80.18 35.62 L 82.61 37.53 L 84.52 39.83 L 85.96 42.57 L 86.88 45.54 L 87.30 48.73 L 87.19 52.19 L 86.55 55.59 L 85.37 59.00 L 83.58 62.44 L 81.31 65.57 L 78.79 68.16 L 76.04 70.26 L 73.00 71.91 L 69.97 72.97 L 66.89 73.48 L 63.80 73.42 L 60.89 72.74 L 58.09 71.43 L 55.66 69.51 L 53.75 67.22 L 52.31 64.48 L 51.39 61.51 L 50.98 58.32 L 51.09 54.86 L 51.72 51.46 L 52.91 48.05 L 54.69 44.61 L 56.97 41.48 L 59.48 38.89 L 62.23 36.79 L 65.27 35.14 L 68.31 34.08 L 71.38 33.57 L 74.47 33.63 L 77.38 34.31 L 80.18 35.62 Z" fill="#231f20" fill-rule="nonzero" group-id="33" id="椭圆_168" node-id="34" stroke="none" target-height="39.910004" target-width="36.320004" target-x="50.98" target-y="33.57"></path></g><g node-id="132"><path d="M 65.71 73.91 L 62.85 73.66 L 60.16 72.88 L 57.61 71.58 L 55.73 70.10 L 54.16 68.42 L 52.87 66.51 L 51.85 64.34 L 50.96 61.27 L 50.59 57.99 L 50.76 54.46 L 51.46 50.99 L 52.72 47.54 L 54.58 44.06 L 54.58 44.06 L 56.35 41.55 L 58.39 39.33 L 60.71 37.39 L 63.26 35.76 L 65.99 34.48 L 68.93 33.55 L 71.97 33.14 L 74.99 33.34 L 77.91 34.12 L 80.65 35.49 L 82.53 36.96 L 84.10 38.64 L 85.39 40.56 L 86.42 42.73 L 87.30 45.79 L 87.67 49.07 L 87.50 52.60 L 86.80 56.06 L 85.55 59.52 L 83.69 62.99 L 81.91 65.51 L 79.87 67.73 L 77.55 69.67 L 74.99 71.30 L 72.26 72.58 L 69.32 73.51 L 67.53 73.80 L 65.71 73.91 Z M 55.23 44.47 L 53.43 47.82 L 52.21 51.15 L 51.52 54.49 L 51.35 57.89 L 51.69 61.04 L 52.53 63.99 L 53.88 66.71 L 55.70 69.01 L 58.03 70.93 L 60.64 72.24 L 63.41 72.99 L 66.28 73.17 L 69.17 72.77 L 72.01 71.86 L 74.65 70.62 L 77.12 69.05 L 79.36 67.17 L 81.33 65.02 L 83.05 62.58 L 84.85 59.23 L 86.07 55.90 L 86.75 52.56 L 86.93 49.16 L 86.59 46.01 L 85.75 43.06 L 84.40 40.34 L 82.58 38.04 L 80.25 36.12 L 77.64 34.81 L 74.86 34.06 L 71.99 33.88 L 69.10 34.29 L 66.26 35.19 L 63.62 36.43 L 61.16 38.01 L 58.91 39.88 L 56.94 42.03 L 55.23 44.47 Z" fill="#231f20" fill-rule="nonzero" group-id="34" id="路径_10094" node-id="35" stroke="none" target-height="40.770004" target-width="37.079998" target-x="50.59" target-y="33.14"></path></g><g node-id="133"><path d="M 77.16 33.78 L 79.58 35.71 L 81.49 38.02 L 82.92 40.76 L 83.83 43.75 L 84.23 46.95 L 84.10 50.41 L 83.45 53.82 L 82.25 57.22 L 80.45 60.67 L 78.15 63.80 L 75.62 66.38 L 72.85 68.47 L 69.80 70.11 L 66.75 71.16 L 63.67 71.66 L 60.57 71.58 L 57.66 70.89 L 54.86 69.56 L 52.44 67.63 L 50.53 65.32 L 49.10 62.58 L 48.19 59.59 L 47.79 56.39 L 47.92 52.93 L 48.57 49.52 L 49.77 46.12 L 51.57 42.67 L 53.87 39.54 L 56.40 36.96 L 59.17 34.87 L 62.22 33.23 L 65.26 32.18 L 68.35 31.68 L 71.44 31.76 L 74.36 32.45 L 77.16 33.78 Z" fill="#ffffff" fill-rule="nonzero" group-id="35" id="椭圆_169" node-id="36" stroke="none" target-height="39.980003" target-width="36.440002" target-x="47.79" target-y="31.68"></path></g><g node-id="134"><path d="M 62.04 71.52 L 59.18 71.27 L 56.50 70.49 L 53.94 69.19 L 52.06 67.71 L 50.49 66.03 L 49.20 64.12 L 48.18 61.95 L 47.29 58.87 L 46.92 55.60 L 47.09 52.07 L 47.79 48.60 L 49.05 45.15 L 50.91 41.67 L 52.68 39.16 L 54.73 36.94 L 57.05 35.00 L 59.60 33.37 L 62.33 32.09 L 65.27 31.16 L 68.31 30.75 L 71.33 30.95 L 74.25 31.73 L 76.99 33.10 L 78.87 34.57 L 80.44 36.25 L 81.73 38.17 L 82.75 40.34 L 83.64 43.41 L 84.01 46.68 L 83.84 50.21 L 83.14 53.68 L 81.88 57.13 L 80.02 60.60 L 78.25 63.12 L 76.21 65.34 L 73.89 67.29 L 71.34 68.92 L 68.61 70.19 L 65.67 71.13 L 63.87 71.42 L 62.04 71.52 Z M 68.96 31.51 L 67.19 31.60 L 65.44 31.87 L 62.60 32.77 L 59.96 34.01 L 57.49 35.59 L 55.25 37.47 L 53.27 39.62 L 51.56 42.05 L 49.76 45.40 L 48.54 48.73 L 47.85 52.07 L 47.68 55.47 L 48.02 58.62 L 48.85 61.57 L 50.21 64.30 L 52.03 66.60 L 54.35 68.52 L 56.96 69.83 L 59.74 70.58 L 62.61 70.76 L 65.51 70.35 L 68.35 69.45 L 70.99 68.21 L 73.45 66.63 L 75.70 64.75 L 77.67 62.60 L 79.38 60.16 L 81.18 56.81 L 82.41 53.48 L 83.09 50.14 L 83.26 46.75 L 82.92 43.60 L 82.08 40.65 L 80.73 37.93 L 78.91 35.63 L 76.58 33.70 L 74.18 32.47 L 71.65 31.75 L 68.96 31.51 Z" fill="#231f20" fill-rule="nonzero" group-id="36" id="路径_10095" node-id="37" stroke="none" target-height="40.769997" target-width="37.090004" target-x="46.92" target-y="30.75"></path></g><g node-id="135"><path d="M 74.20 36.97 L 76.12 38.49 L 77.64 40.30 L 78.78 42.47 L 79.51 44.82 L 79.83 47.35 L 79.75 50.08 L 79.24 52.77 L 78.31 55.47 L 76.90 58.19 L 75.09 60.67 L 73.11 62.72 L 70.93 64.38 L 68.52 65.68 L 66.12 66.52 L 63.69 66.93 L 61.24 66.88 L 58.94 66.34 L 56.72 65.30 L 54.80 63.79 L 53.29 61.97 L 52.15 59.81 L 51.42 57.45 L 51.09 54.93 L 51.18 52.20 L 51.68 49.50 L 52.62 46.81 L 54.03 44.08 L 55.83 41.60 L 57.82 39.55 L 60.00 37.90 L 62.40 36.59 L 64.81 35.75 L 67.24 35.35 L 69.68 35.40 L 71.99 35.93 L 74.20 36.97 Z" fill="#ffffff" fill-rule="nonzero" group-id="37" id="椭圆_170" node-id="38" stroke="none" target-height="31.580002" target-width="28.740002" target-x="51.09" target-y="35.35"></path></g><g node-id="136"><path d="M 62.75 67.34 L 60.47 67.14 L 58.33 66.53 L 56.30 65.49 L 54.36 63.89 L 52.85 61.98 L 51.72 59.73 L 51.01 57.28 L 50.72 54.68 L 50.85 51.87 L 51.40 49.11 L 52.41 46.37 L 53.89 43.61 L 55.29 41.61 L 56.91 39.85 L 58.75 38.32 L 60.77 37.02 L 62.93 36.01 L 65.26 35.27 L 67.68 34.94 L 70.08 35.09 L 72.41 35.70 L 74.59 36.78 L 76.53 38.38 L 78.05 40.29 L 79.18 42.54 L 79.89 44.98 L 80.18 47.58 L 80.05 50.39 L 79.49 53.15 L 78.49 55.89 L 77.01 58.65 L 75.61 60.65 L 73.99 62.41 L 72.15 63.95 L 70.13 65.24 L 67.96 66.25 L 65.64 67.00 L 62.75 67.35 Z M 68.23 35.66 L 65.45 35.97 L 63.22 36.69 L 61.13 37.66 L 59.19 38.90 L 57.42 40.39 L 55.87 42.08 L 54.52 44.00 L 53.10 46.65 L 52.14 49.27 L 51.60 51.90 L 51.46 54.58 L 51.73 57.05 L 52.39 59.37 L 53.45 61.51 L 54.88 63.32 L 56.71 64.83 L 58.76 65.86 L 60.95 66.45 L 63.20 66.59 L 65.48 66.27 L 67.71 65.56 L 69.79 64.59 L 71.73 63.34 L 73.50 61.86 L 75.05 60.17 L 76.40 58.25 L 77.82 55.61 L 78.78 52.98 L 79.32 50.35 L 79.46 47.67 L 79.20 45.20 L 78.54 42.88 L 77.48 40.73 L 76.05 38.93 L 74.22 37.41 L 72.33 36.44 L 70.35 35.86 L 68.23 35.66 Z" fill="#231f20" fill-rule="nonzero" group-id="38" id="路径_10096" node-id="39" stroke="none" target-height="32.41" target-width="29.46" target-x="50.72" target-y="34.94"></path></g><g node-id="137"><path d="M 54.20 43.81 L 52.75 46.52 L 51.77 49.20 L 51.22 51.90 L 51.08 54.64 L 51.36 57.18 L 52.04 59.56 L 53.13 61.76 L 54.60 63.61 L 56.48 65.17 L 57.74 65.87 L 56.18 64.24 L 54.98 62.36 L 54.11 60.20 L 53.61 57.92 L 53.46 55.50 L 53.68 52.93 L 54.26 50.42 L 55.22 47.91 L 56.59 45.40 L 58.29 43.11 L 60.16 41.19 L 62.20 39.62 L 64.43 38.35 L 66.67 37.49 L 68.94 37.01 L 71.24 36.92 L 73.43 37.25 L 75.54 38.00 L 74.39 37.14 L 72.21 36.04 L 69.94 35.45 L 67.51 35.34 L 65.09 35.69 L 62.68 36.48 L 60.27 37.74 L 58.06 39.35 L 56.05 41.36 L 54.20 43.81 Z" fill="#231f20" fill-rule="nonzero" group-id="39" id="路径_10097" node-id="40" stroke="none" target-height="30.530003" target-width="24.46" target-x="51.08" target-y="35.34"></path></g><g node-id="138"><path d="M 57.76 66.25 L 57.59 66.22 L 56.29 65.46 L 54.36 63.86 L 52.84 61.95 L 51.71 59.70 L 51.01 57.26 L 50.71 54.66 L 50.85 51.85 L 51.40 49.09 L 52.40 46.34 L 53.88 43.58 L 55.29 41.58 L 56.91 39.83 L 58.75 38.29 L 60.77 37.00 L 62.93 35.98 L 65.26 35.24 L 67.67 34.91 L 70.08 35.06 L 72.40 35.68 L 74.59 36.76 L 75.78 37.65 L 75.91 37.88 L 75.85 38.14 L 75.64 38.30 L 75.37 38.28 L 73.28 37.54 L 71.13 37.22 L 68.88 37.32 L 66.67 37.80 L 64.49 38.65 L 62.33 39.89 L 60.36 41.43 L 58.54 43.31 L 56.89 45.54 L 55.55 47.99 L 54.61 50.43 L 54.03 52.88 L 53.80 55.39 L 53.94 57.75 L 54.42 59.98 L 55.26 62.09 L 56.43 63.93 L 57.96 65.54 L 58.07 65.96 L 57.72 66.21 Z M 68.23 35.66 L 65.45 35.97 L 63.22 36.69 L 61.14 37.66 L 59.19 38.91 L 57.43 40.39 L 55.88 42.08 L 54.53 44.01 L 53.20 46.45 L 52.26 48.88 L 51.69 51.33 L 51.46 53.83 L 51.59 56.17 L 52.06 58.40 L 52.88 60.50 L 54.02 62.33 L 55.50 63.92 L 54.50 62.19 L 53.76 60.32 L 53.29 58.27 L 53.09 55.09 L 53.52 51.74 L 54.56 48.44 L 56.26 45.17 L 58.50 42.24 L 61.04 39.92 L 63.90 38.13 L 66.86 36.99 L 68.91 36.58 L 70.91 36.48 L 72.89 36.70 L 70.62 35.92 L 68.23 35.66 Z" fill="#231f20" fill-rule="nonzero" group-id="40" id="路径_10098" node-id="41" stroke="none" target-height="31.34" target-width="25.200005" target-x="50.71" target-y="34.91"></path></g><g node-id="139"><path d="M 31.31 106.40 L 33.81 108.03 L 34.77 108.42 L 35.81 108.40 L 36.75 107.98 L 37.47 107.23 L 54.57 80.46 L 54.97 79.47 L 54.95 78.46 L 54.57 77.52 L 53.81 76.77 L 51.32 75.14 L 50.36 74.75 L 49.32 74.77 L 48.37 75.19 L 47.66 75.94 L 30.55 102.71 L 30.16 103.70 L 30.17 104.71 L 30.56 105.65 L 31.31 106.40 Z" fill="#ffffff" fill-rule="nonzero" group-id="41" id="路径_10099" node-id="42" stroke="none" target-height="33.67" target-width="24.810001" target-x="30.16" target-y="74.75"></path></g><g node-id="140"><path d="M 35.22 108.84 L 34.37 108.71 L 33.59 108.35 L 31.09 106.72 L 31.09 106.72 L 30.23 105.89 L 29.76 104.80 L 29.74 103.61 L 30.19 102.51 L 47.29 75.74 L 48.13 74.87 L 49.19 74.41 L 50.34 74.38 L 51.47 74.82 L 53.97 76.45 L 54.83 77.28 L 55.30 78.37 L 55.31 79.56 L 54.87 80.66 L 37.76 107.44 L 37.07 108.20 L 36.23 108.66 L 35.22 108.84 Z M 31.49 106.08 L 33.99 107.71 L 34.82 108.04 L 35.70 108.02 L 36.51 107.66 L 37.13 107.02 L 54.23 80.25 L 54.57 79.42 L 54.56 78.52 L 54.20 77.70 L 53.56 77.08 L 51.06 75.45 L 50.24 75.12 L 49.36 75.14 L 48.54 75.49 L 47.92 76.14 L 30.83 102.92 L 30.49 103.75 L 30.50 104.64 L 30.85 105.46 L 31.50 106.09 Z" fill="#231f20" fill-rule="nonzero" group-id="42" id="路径_10100" node-id="43" stroke="none" target-height="34.46" target-width="25.570002" target-x="29.74" target-y="74.38"></path></g><g node-id="141"><path d="M 58.18 50.97 L 57.89 50.92 L 57.73 50.67 L 57.78 50.38 L 58.03 50.22 L 69.23 45.02 L 69.51 45.01 L 69.73 45.20 L 69.74 45.50 L 69.54 45.71 L 58.33 50.94 L 58.18 50.97 Z" fill="#d1d3d4" fill-rule="nonzero" group-id="43" id="路径_10101" node-id="44" stroke="none" target-height="5.960003" target-width="12.009998" target-x="57.73" target-y="45.01"></path></g><g node-id="142"><path d="M 67.31 52.10 L 67.02 52.05 L 66.85 51.81 L 66.90 51.51 L 67.14 51.34 L 76.81 46.74 L 77.08 46.76 L 77.28 46.94 L 77.30 47.21 L 77.14 47.43 L 67.47 52.06 L 67.31 52.10 Z" fill="#d1d3d4" fill-rule="nonzero" group-id="44" id="路径_10102" node-id="45" stroke="none" target-height="5.359997" target-width="10.450005" target-x="66.85" target-y="46.74"></path></g><g node-id="143"><path d="M 57.33 62.05 L 56.99 61.84 L 56.97 61.55 L 57.16 61.33 L 75.03 52.50 L 75.43 52.49 L 75.61 52.85 L 75.36 53.17 L 57.50 62.02 L 57.33 62.05 Z" fill="#d1d3d4" fill-rule="nonzero" group-id="45" id="路径_10103" node-id="46" stroke="none" target-height="9.559998" target-width="18.64" target-x="56.97" target-y="52.49"></path></g><g node-id="144"><path d="M 20.70 56.67 L 18.75 56.35 L 17.72 56.02 L 17.36 55.70 L 17.23 55.27 L 17.59 54.43 L 17.81 54.07 L 17.85 53.68 L 17.63 53.26 L 16.94 51.81 L 16.64 50.31 L 16.71 48.70 L 17.20 47.17 L 18.02 45.87 L 19.18 44.76 L 18.92 44.68 L 18.79 44.41 L 19.04 43.88 L 19.93 43.22 L 20.97 42.85 L 23.33 42.53 L 25.63 42.68 L 27.93 43.30 L 29.21 43.92 L 30.38 44.87 L 30.97 45.65 L 31.27 46.53 L 31.30 47.55 L 31.13 48.10 L 30.79 48.54 L 30.34 48.85 L 29.78 49.00 L 29.02 50.99 L 27.91 52.73 L 26.42 54.26 L 24.67 55.64 L 22.63 56.54 L 21.67 56.70 L 20.70 56.67 Z" fill="#ffffff" fill-rule="nonzero" group-id="46" id="路径_10104" node-id="47" stroke="none" target-height="14.170002" target-width="14.66" target-x="16.64" target-y="42.53"></path></g><g node-id="145"><path d="M 21.29 57.08 L 20.63 57.08 L 20.63 57.08 L 19.50 56.89 L 18.66 56.75 L 17.57 56.39 L 17.03 55.90 L 16.85 55.28 L 17.24 54.35 L 17.48 53.79 L 17.34 53.52 L 16.59 51.97 L 16.26 50.35 L 16.34 48.63 L 16.78 47.18 L 17.51 45.91 L 18.54 44.79 L 18.42 44.42 L 18.51 43.99 L 18.76 43.62 L 19.74 42.90 L 20.88 42.48 L 23.31 42.15 L 25.70 42.30 L 28.07 42.94 L 29.56 43.69 L 30.78 44.74 L 31.37 45.60 L 31.67 46.55 L 31.68 47.61 L 31.49 48.21 L 31.15 48.72 L 30.67 49.11 L 30.09 49.35 L 29.28 51.30 L 28.15 53.01 L 26.70 54.53 L 24.87 55.96 L 22.74 56.90 L 21.29 57.07 Z M 20.71 56.32 L 21.62 56.34 L 22.52 56.17 L 24.48 55.31 L 26.15 54.00 L 27.35 52.75 L 28.25 51.59 L 28.94 50.35 L 29.42 48.92 L 29.79 48.62 L 30.56 48.25 L 30.93 47.48 L 30.89 46.52 L 30.58 45.71 L 29.99 44.99 L 28.86 44.14 L 27.81 43.64 L 25.58 43.05 L 23.35 42.90 L 21.07 43.21 L 20.13 43.54 L 19.33 44.13 L 19.18 44.38 L 19.53 44.59 L 19.56 44.85 L 19.41 45.06 L 18.32 46.10 L 17.55 47.32 L 17.09 48.76 L 17.01 50.28 L 17.30 51.70 L 17.95 53.08 L 18.21 53.62 L 18.16 54.23 L 17.87 54.76 L 17.61 55.30 L 17.71 55.55 L 17.99 55.76 L 18.78 56.00 L 19.64 56.15 L 20.71 56.32 Z" fill="#231f20" fill-rule="nonzero" group-id="47" id="路径_10105" node-id="48" stroke="none" target-height="14.93" target-width="15.42" target-x="16.26" target-y="42.15"></path></g><g node-id="146"><path d="M 30.20 52.34 L 30.56 53.08 L 31.16 54.54 L 31.32 55.26 L 31.25 55.61 L 30.85 55.83 L 30.34 55.80 L 29.73 55.61" fill="#ffffff" fill-rule="nonzero" group-id="48" id="路径_10106" node-id="49" stroke="none" target-height="3.4900017" target-width="1.5900002" target-x="29.73" target-y="52.34"></path></g><g node-id="147"><path d="M 30.64 56.19 L 29.55 55.95 L 29.35 55.74 L 29.36 55.45 L 29.56 55.25 L 29.86 55.25 L 30.49 55.42 L 30.96 55.34 L 30.53 53.86 L 29.86 52.49 L 29.86 52.09 L 30.21 51.91 L 30.53 52.13 L 31.51 54.27 L 31.71 55.26 L 31.55 55.82 L 31.14 56.11 L 30.65 56.19 Z" fill="#231f20" fill-rule="nonzero" group-id="49" id="路径_10107" node-id="50" stroke="none" target-height="4.279999" target-width="2.3599987" target-x="29.35" target-y="51.91"></path></g><g node-id="148"><path d="M 30.16 48.84 L 30.65 49.72 L 30.77 50.80 L 30.54 52.91 L 29.89 58.06 L 29.63 58.48 L 29.03 58.75 L 27.52 58.80 L 26.46 58.51 L 26.46 62.87 L 20.79 59.99 L 21.36 56.45 L 22.35 56.33 L 23.24 55.95 L 24.00 55.35 L 24.58 54.55 L 25.13 53.34 L 25.57 51.80 L 26.06 48.92 L 26.18 47.59 L 27.00 47.69 L 28.70 48.08 L 29.56 48.42 L 30.16 48.84 Z" fill="#ffffff" fill-rule="nonzero" group-id="50" id="路径_10108" node-id="51" stroke="none" target-height="15.279999" target-width="9.98" target-x="20.79" target-y="47.59"></path></g><g node-id="149"><path d="M 26.49 63.25 L 26.31 63.20 L 20.64 60.32 L 20.44 59.93 L 21.03 56.39 L 21.17 56.15 L 21.43 56.07 L 22.31 55.95 L 23.11 55.61 L 23.78 55.07 L 24.29 54.34 L 24.81 53.19 L 25.23 51.70 L 25.69 48.89 L 25.80 47.56 L 25.94 47.30 L 26.22 47.20 L 27.21 47.33 L 28.92 47.75 L 29.77 48.12 L 30.40 48.57 L 30.40 48.57 L 30.92 49.39 L 31.11 50.34 L 30.97 52.30 L 30.88 52.95 L 30.23 58.12 L 29.96 58.68 L 29.42 59.01 L 28.12 59.22 L 26.81 59.07 L 26.81 62.86 L 26.70 63.13 L 26.43 63.25 Z M 21.23 59.78 L 26.10 62.25 L 26.10 58.51 L 26.31 58.17 L 26.72 58.21 L 27.96 58.45 L 29.22 58.30 L 29.54 58.01 L 30.18 52.88 L 30.27 52.19 L 30.41 50.51 L 30.28 49.72 L 29.91 49.11 L 29.91 49.11 L 28.32 48.35 L 26.59 48.00 L 26.37 49.89 L 25.85 52.45 L 25.44 53.72 L 24.95 54.74 L 24.36 55.56 L 23.60 56.19 L 22.72 56.62 L 21.73 56.83 Z" fill="#231f20" fill-rule="nonzero" group-id="51" id="路径_10109" node-id="52" stroke="none" target-height="16.05" target-width="10.67" target-x="20.44" target-y="47.2"></path></g><g node-id="150"><path d="M 29.97 56.77 L 29.40 56.94 L 28.81 56.85 L 28.31 56.52 L 28.00 56.02" fill="#ffffff" fill-rule="nonzero" group-id="52" id="路径_10110" node-id="53" stroke="none" target-height="0.91999817" target-width="1.9699993" target-x="28" target-y="56.02"></path></g><g node-id="151"><path d="M 29.23 57.31 L 28.63 57.21 L 28.02 56.79 L 27.64 56.15 L 27.65 55.86 L 27.85 55.66 L 28.14 55.66 L 28.35 55.87 L 28.56 56.24 L 28.90 56.50 L 29.81 56.43 L 30.10 56.42 L 30.31 56.61 L 30.33 56.90 L 30.14 57.11 L 29.23 57.31 Z" fill="#231f20" fill-rule="nonzero" group-id="53" id="路径_10111" node-id="54" stroke="none" target-height="1.6500015" target-width="2.6900005" target-x="27.64" target-y="55.66"></path></g><g node-id="152"><path d="M 26.81 53.10 L 26.72 52.46 L 26.45 51.88 L 25.90 51.03 L 25.50 50.74 L 25.01 50.65 L 24.58 50.80 L 24.25 51.12 L 23.95 51.95 L 23.95 52.93 L 24.19 53.86 L 24.65 54.69 L 25.33 55.40 L 25.25 55.29" fill="#ffffff" fill-rule="nonzero" group-id="54" id="路径_10112" node-id="55" stroke="none" target-height="4.75" target-width="2.8599987" target-x="23.95" target-y="50.65"></path></g><g node-id="153"><path d="M 25.37 55.75 L 25.15 55.67 L 24.39 54.89 L 23.88 53.97 L 23.62 52.95 L 23.63 51.88 L 23.98 50.89 L 24.41 50.46 L 24.98 50.26 L 25.64 50.37 L 26.18 50.75 L 26.79 51.69 L 27.10 52.37 L 27.20 53.12 L 27.07 53.38 L 26.79 53.47 L 26.53 53.34 L 26.44 53.06 L 26.12 52.04 L 25.64 51.28 L 25.05 51.01 L 24.61 51.31 L 24.38 51.99 L 24.41 53.08 L 24.75 54.04 L 25.41 54.91 L 25.60 55.04 L 25.68 55.16 L 25.78 55.40 L 25.68 55.65 L 25.37 55.75 Z" fill="#231f20" fill-rule="nonzero" group-id="55" id="路径_10113" node-id="56" stroke="none" target-height="5.4900017" target-width="3.58" target-x="23.62" target-y="50.26"></path></g><g node-id="154"><path d="M 29.86 50.30 L 30.00 50.45 L 30.07 50.93 L 29.97 51.40 L 29.81 51.54 L 29.66 51.39 L 29.59 50.91 L 29.70 50.43 L 29.86 50.30 Z" fill="#231f20" fill-rule="nonzero" group-id="56" id="椭圆_171" node-id="57" stroke="none" target-height="1.2400017" target-width="0.47999954" target-x="29.59" target-y="50.3"></path></g><g node-id="155"><path d="M 19.52 60.93 L 20.20 59.08 L 27.69 60.28 L 28.25 63.19 L 25.95 63.14 L 23.71 62.74 L 21.55 62.00 L 19.52 60.93 Z" fill="#231f20" fill-rule="nonzero" group-id="57" id="路径_10114" node-id="58" stroke="none" target-height="4.109997" target-width="8.73" target-x="19.52" target-y="59.08"></path></g><g node-id="156"><path d="M 27.41 63.61 L 24.56 63.31 L 21.88 62.53 L 19.32 61.25 L 19.16 60.80 L 19.85 58.95 L 20.01 58.75 L 20.26 58.70 L 27.76 59.91 L 28.07 60.21 L 28.62 63.11 L 28.55 63.41 L 28.29 63.57 L 27.41 63.60 Z M 19.99 60.76 L 22.47 61.94 L 25.05 62.63 L 27.79 62.84 L 27.37 60.62 L 20.45 59.50 Z" fill="#231f20" fill-rule="nonzero" group-id="58" id="路径_10115" node-id="59" stroke="none" target-height="4.91" target-width="9.460001" target-x="19.16" target-y="58.7"></path></g><g node-id="157"><path d="M 43.30 84.95 L 46.69 86.41 L 47.11 86.28 L 47.72 85.87 L 48.32 85.54 L 48.79 85.56 L 50.23 86.99 L 51.41 88.64 L 51.14 89.63 L 50.48 91.05 L 50.05 91.56 L 49.68 91.67 L 47.21 90.63 L 41.98 89.87" fill="#ffffff" fill-rule="nonzero" group-id="59" id="路径_10116" node-id="60" stroke="none" target-height="6.720001" target-width="9.43" target-x="41.98" target-y="84.95"></path></g><g node-id="158"><path d="M 49.74 92.10 L 49.61 92.10 L 47.08 91.01 L 41.93 90.26 L 41.68 90.11 L 41.61 89.83 L 41.76 89.58 L 42.04 89.50 L 47.26 90.26 L 47.39 90.26 L 49.75 91.27 L 50.25 90.66 L 50.77 89.49 L 51.03 88.57 L 49.90 87.12 L 48.59 85.82 L 48.22 85.94 L 47.77 86.24 L 47.25 86.59 L 46.64 86.72 L 43.14 85.20 L 42.95 84.99 L 42.96 84.70 L 43.18 84.51 L 43.46 84.52 L 46.76 85.94 L 47.34 85.58 L 48.15 85.11 L 48.58 85.03 L 49.00 85.15 L 49.97 86.04 L 51.19 87.46 L 51.79 88.55 L 51.26 90.26 L 50.32 91.77 L 49.74 92.10 Z" fill="#231f20" fill-rule="nonzero" group-id="60" id="路径_10117" node-id="61" stroke="none" target-height="7.5899963" target-width="10.18" target-x="41.61" target-y="84.51"></path></g><g node-id="159"><path d="M 30.55 64.34 L 30.77 65.95 L 31.34 69.80 L 32.12 74.39 L 32.96 78.23 L 33.43 79.56 L 33.71 79.84 L 36.02 80.64 L 40.00 82.40 L 43.78 84.15 L 45.45 84.95 L 43.64 91.78 L 41.47 91.45 L 36.47 90.61 L 30.92 89.51 L 28.48 88.88 L 27.09 88.38 L 26.67 87.86 L 26.04 86.27 L 24.91 81.91 L 23.88 76.86 L 23.12 72.68 L 22.82 70.94 Z" fill="#ff595e" fill-rule="nonzero" group-id="61" id="路径_10118" node-id="62" stroke="none" target-height="27.440002" target-width="22.630001" target-x="22.82" target-y="64.34"></path></g><g node-id="160"><path d="M 30.14 63.52 L 28.01 62.36 L 25.54 61.20 L 23.81 60.60 L 21.95 60.28 L 19.93 60.25 L 17.97 60.60 L 15.79 61.49 L 13.32 63.07 L 12.25 64.12 L 11.17 65.63 L 10.07 67.68 L 8.72 70.99 L 7.44 74.97 L 6.36 79.12 L 5.42 83.37 L 3.99 91.31 L 3.14 97.22 L 2.86 99.54 L 29.50 97.49 L 29.81 95.12 L 30.51 89.14 L 31.25 81.28 L 31.67 73.24 L 31.64 69.54 L 31.42 66.75 L 31.06 65.00 L 30.62 64.02 L 30.14 63.52 Z" fill="#ff595e" fill-rule="nonzero" group-id="62" id="路径_10119" node-id="63" stroke="none" target-height="39.29" target-width="28.81" target-x="2.86" target-y="60.25"></path></g><g node-id="161"><path d="M 25.60 87.70 L 25.36 87.62 L 25.22 87.41 L 24.92 85.73 L 24.15 81.64 L 23.19 76.28 L 22.27 70.81 L 22.33 70.53 L 22.58 70.38 L 22.86 70.45 L 23.02 70.70 L 23.93 76.15 L 24.89 81.50 L 25.65 85.59 L 25.97 87.26 L 25.91 87.54 L 25.67 87.70 Z" fill="#231f20" fill-rule="nonzero" group-id="63" id="路径_10120" node-id="64" stroke="none" target-height="17.32" target-width="3.6999989" target-x="22.27" target-y="70.38"></path></g><g node-id="162"><path d="M 42.37 84.09 L 42.24 84.09 L 32.17 80.61 L 31.91 80.28 L 31.76 78.21 L 31.35 73.57 L 30.75 68.42 L 30.05 64.80 L 30.07 64.51 L 30.29 64.32 L 30.58 64.34 L 30.77 64.56 L 31.44 67.88 L 32.01 72.62 L 32.43 77.18 L 32.65 79.98 L 42.51 83.38 L 42.82 83.62 L 42.76 84.00 L 42.39 84.13 Z" fill="#231f20" fill-rule="nonzero" group-id="64" id="路径_10121" node-id="65" stroke="none" target-height="19.809998" target-width="12.77" target-x="30.05" target-y="64.32"></path></g><g node-id="163"><path d="M 45.72 75.09 L 46.43 74.53 L 47.90 73.49 L 48.69 73.07 L 49.18 72.96 L 50.57 73.11 L 52.10 73.49 L 52.46 73.77 L 52.32 74.07 L 51.78 74.33 L 51.08 74.47 L 49.73 74.49 L 49.09 74.44 L 49.09 74.67 L 48.27 75.48" fill="#ffffff" fill-rule="nonzero" group-id="65" id="路径_10122" node-id="66" stroke="none" target-height="2.5200043" target-width="6.739998" target-x="45.72" target-y="72.96"></path></g><g node-id="164"><path d="M 48.24 75.85 L 47.88 75.59 L 48.02 75.16 L 48.70 74.53 L 48.70 74.25 L 49.09 74.05 L 50.51 74.11 L 51.91 73.82 L 50.52 73.48 L 49.09 73.32 L 48.66 73.44 L 47.78 73.96 L 45.90 75.38 L 45.62 75.46 L 45.36 75.33 L 45.27 75.05 L 45.41 74.80 L 46.46 73.97 L 47.91 73.00 L 48.64 72.66 L 49.13 72.57 L 50.07 72.65 L 51.73 72.97 L 52.45 73.29 L 52.77 73.66 L 52.75 74.06 L 52.49 74.36 L 50.97 74.84 L 49.37 74.84 L 48.43 75.78 L 48.24 75.85 Z M 48.79 74.68 Z M 48.79 74.68 Z M 48.79 74.68 Z M 48.79 74.68 Z" fill="#231f20" fill-rule="nonzero" group-id="66" id="路径_10123" node-id="67" stroke="none" target-height="3.2799988" target-width="7.5" target-x="45.27" target-y="72.57"></path></g><g node-id="165"><path d="M 18.92 153.90 L 18.92 158.72 L 20.83 158.80 L 25.02 158.90 L 29.18 158.83 L 30.71 158.61 L 30.99 158.38 L 30.75 158.00 L 29.95 157.34 L 27.83 155.99 L 25.74 154.82 L 24.79 154.32 Z" fill="#231f20" fill-rule="nonzero" group-id="67" id="路径_10124" node-id="68" stroke="none" target-height="5" target-width="12.07" target-x="18.92" target-y="153.9"></path></g><g node-id="166"><path d="M 25.84 159.27 L 22.06 159.20 L 18.91 159.06 L 18.65 158.95 L 18.54 158.69 L 18.54 153.86 L 18.66 153.58 L 18.95 153.48 L 24.81 153.91 L 24.96 153.91 L 27.41 155.23 L 30.04 156.87 L 31.04 157.71 L 31.37 158.24 L 31.25 158.65 L 30.75 158.93 L 29.40 159.15 L 25.84 159.27 Z M 19.30 158.33 L 24.11 158.49 L 28.18 158.47 L 30.52 158.26 L 27.69 156.31 L 24.68 154.67 L 19.30 154.27 Z" fill="#231f20" fill-rule="nonzero" group-id="68" id="路径_10125" node-id="69" stroke="none" target-height="5.7900085" target-width="12.83" target-x="18.54" target-y="153.48"></path></g><g node-id="167"><path d="M 142.08 0.38 L 140.31 0.63 L 138.79 1.26 L 137.47 2.29 L 136.45 3.61 L 135.81 5.12 L 135.56 6.89 L 135.56 13.40 L 24.54 13.40 L 24.54 6.89 L 24.79 5.12 L 25.42 3.61 L 26.45 2.29 L 27.77 1.26 L 29.29 0.63 L 31.05 0.38 Z" fill="#ff595e" fill-rule="nonzero" group-id="69" id="路径_10126" node-id="70" stroke="none" target-height="13.0199995" target-width="117.54" target-x="24.54" target-y="0.38"></path></g><g node-id="168"><path d="M 135.56 13.78 L 24.54 13.78 L 24.27 13.66 L 24.16 13.40 L 24.16 6.89 L 24.43 5.03 L 25.11 3.43 L 26.19 2.04 L 27.59 0.96 L 29.19 0.29 L 31.05 0.02 L 142.08 0.02 L 142.34 0.13 L 142.46 0.40 L 142.34 0.67 L 142.08 0.78 L 140.42 1.02 L 139.00 1.62 L 137.76 2.58 L 136.80 3.82 L 136.20 5.24 L 135.96 6.89 L 135.96 13.40 L 135.84 13.67 L 135.56 13.78 Z M 24.92 13.02 L 135.20 13.02 L 135.20 6.89 L 135.47 5.01 L 136.21 3.31 L 137.38 1.88 L 138.94 0.78 L 31.05 0.78 L 29.39 1.02 L 27.96 1.62 L 26.72 2.58 L 25.75 3.82 L 25.16 5.25 L 24.92 6.92 Z" fill="#231f20" fill-rule="nonzero" group-id="70" id="路径_10127" node-id="71" stroke="none" target-height="13.759999" target-width="118.3" target-x="24.16" target-y="0.02"></path></g><g node-id="169"><path d="M 90.91 40.80 L 99.32 40.80 L 99.32 75.50 L 90.91 75.50 Z" fill="#ff595e" fill-rule="nonzero" group-id="71" id="矩形_3330" node-id="72" stroke="none" target-height="34.7" target-width="8.409996" target-x="90.91" target-y="40.8"></path></g><g node-id="170"><path d="M 99.32 75.85 L 90.91 75.85 L 90.64 75.74 L 90.53 75.47 L 90.53 40.80 L 90.64 40.53 L 90.91 40.42 L 99.32 40.42 L 99.59 40.53 L 99.70 40.80 L 99.70 75.50 L 99.58 75.75 L 99.32 75.85 Z M 91.28 75.09 L 98.94 75.09 L 98.94 41.17 L 91.28 41.17 Z" fill="#231f20" fill-rule="nonzero" group-id="72" id="路径_10128" node-id="73" stroke="none" target-height="35.43" target-width="9.169998" target-x="90.53" target-y="40.42"></path></g><g node-id="171"><path d="M 90.91 40.80 L 99.32 40.80 L 99.32 53.53 L 90.91 53.53 Z" fill="#ffffff" fill-rule="nonzero" group-id="73" id="矩形_3331" node-id="74" stroke="none" target-height="12.73" target-width="8.409996" target-x="90.91" target-y="40.8"></path></g><g node-id="172"><path d="M 99.32 53.91 L 90.91 53.91 L 90.64 53.80 L 90.53 53.53 L 90.53 40.80 L 90.64 40.53 L 90.91 40.42 L 99.32 40.42 L 99.59 40.53 L 99.70 40.80 L 99.70 53.53 L 99.59 53.80 L 99.32 53.91 Z M 91.28 53.15 L 98.94 53.15 L 98.94 41.17 L 91.28 41.17 Z" fill="#231f20" fill-rule="nonzero" group-id="74" id="路径_10129" node-id="75" stroke="none" target-height="13.490002" target-width="9.169998" target-x="90.53" target-y="40.42"></path></g><g node-id="173"><path d="M 103.51 40.80 L 111.93 40.80 L 111.93 75.50 L 103.51 75.50 Z" fill="#ff595e" fill-rule="nonzero" group-id="75" id="矩形_3332" node-id="76" stroke="none" target-height="34.7" target-width="8.419998" target-x="103.51" target-y="40.8"></path></g><g node-id="174"><path d="M 111.92 75.85 L 103.51 75.85 L 103.24 75.74 L 103.13 75.47 L 103.13 40.80 L 103.24 40.53 L 103.51 40.42 L 111.92 40.42 L 112.19 40.53 L 112.30 40.80 L 112.30 75.50 L 112.18 75.75 L 111.92 75.85 Z M 103.89 75.09 L 111.54 75.09 L 111.54 41.17 L 103.89 41.17 Z" fill="#231f20" fill-rule="nonzero" group-id="76" id="路径_10130" node-id="77" stroke="none" target-height="35.43" target-width="9.170006" target-x="103.13" target-y="40.42"></path></g><g node-id="175"><path d="M 103.51 40.80 L 111.93 40.80 L 111.93 58.15 L 103.51 58.15 Z" fill="#ffffff" fill-rule="nonzero" group-id="77" id="矩形_3333" node-id="78" stroke="none" target-height="17.350002" target-width="8.419998" target-x="103.51" target-y="40.8"></path></g><g node-id="176"><path d="M 111.92 58.53 L 103.51 58.53 L 103.24 58.42 L 103.13 58.15 L 103.13 40.80 L 103.24 40.53 L 103.51 40.42 L 111.92 40.42 L 112.19 40.53 L 112.30 40.80 L 112.30 58.15 L 112.19 58.42 L 111.92 58.53 Z M 103.89 57.77 L 111.54 57.77 L 111.54 41.17 L 103.89 41.17 Z" fill="#231f20" fill-rule="nonzero" group-id="78" id="路径_10131" node-id="79" stroke="none" target-height="18.11" target-width="9.170006" target-x="103.13" target-y="40.42"></path></g><g node-id="177"><path d="M 116.10 40.80 L 124.52 40.80 L 124.52 75.50 L 116.10 75.50 Z" fill="#ff595e" fill-rule="nonzero" group-id="79" id="矩形_3334" node-id="80" stroke="none" target-height="34.7" target-width="8.419998" target-x="116.1" target-y="40.8"></path></g><g node-id="178"><path d="M 124.52 75.85 L 116.10 75.85 L 115.84 75.74 L 115.73 75.47 L 115.73 40.80 L 115.84 40.53 L 116.10 40.42 L 124.52 40.42 L 124.79 40.53 L 124.90 40.80 L 124.90 75.50 L 124.78 75.75 L 124.52 75.85 Z M 116.48 75.09 L 124.14 75.09 L 124.14 41.17 L 116.48 41.17 Z" fill="#231f20" fill-rule="nonzero" group-id="80" id="路径_10132" node-id="81" stroke="none" target-height="35.43" target-width="9.169998" target-x="115.73" target-y="40.42"></path></g><g node-id="179"><path d="M 116.10 40.80 L 124.52 40.80 L 124.52 47.17 L 116.10 47.17 Z" fill="#ffffff" fill-rule="nonzero" group-id="81" id="矩形_3335" node-id="82" stroke="none" target-height="6.369999" target-width="8.419998" target-x="116.1" target-y="40.8"></path></g><g node-id="180"><path d="M 124.52 47.55 L 116.10 47.55 L 115.84 47.44 L 115.73 47.17 L 115.73 40.80 L 115.84 40.53 L 116.10 40.42 L 124.52 40.42 L 124.79 40.53 L 124.90 40.80 L 124.90 47.17 L 124.79 47.43 L 124.52 47.55 Z M 116.48 46.79 L 124.14 46.79 L 124.14 41.17 L 116.48 41.17 Z" fill="#231f20" fill-rule="nonzero" group-id="82" id="路径_10133" node-id="83" stroke="none" target-height="7.130001" target-width="9.169998" target-x="115.73" target-y="40.42"></path></g><g node-id="181"><path d="M 128.70 40.80 L 137.12 40.80 L 137.12 75.50 L 128.70 75.50 Z" fill="#ff595e" fill-rule="nonzero" group-id="83" id="矩形_3336" node-id="84" stroke="none" target-height="34.7" target-width="8.419998" target-x="128.7" target-y="40.8"></path></g><g node-id="182"><path d="M 137.12 75.85 L 128.70 75.85 L 128.43 75.74 L 128.32 75.47 L 128.32 40.80 L 128.43 40.53 L 128.70 40.42 L 137.12 40.42 L 137.38 40.53 L 137.50 40.80 L 137.50 75.50 L 137.37 75.75 L 137.12 75.85 Z M 129.08 75.09 L 136.71 75.09 L 136.71 41.17 L 129.06 41.17 Z" fill="#231f20" fill-rule="nonzero" group-id="84" id="路径_10134" node-id="85" stroke="none" target-height="35.43" target-width="9.179993" target-x="128.32" target-y="40.42"></path></g><g node-id="183"><path d="M 128.70 40.80 L 137.12 40.80 L 137.12 54.05 L 128.70 54.05 Z" fill="#ffffff" fill-rule="nonzero" group-id="85" id="矩形_3337" node-id="86" stroke="none" target-height="13.25" target-width="8.419998" target-x="128.7" target-y="40.8"></path></g><g node-id="184"><path d="M 137.12 54.43 L 128.70 54.43 L 128.43 54.32 L 128.32 54.05 L 128.32 40.80 L 128.43 40.53 L 128.70 40.42 L 137.12 40.42 L 137.38 40.53 L 137.50 40.80 L 137.50 54.05 L 137.39 54.32 L 137.12 54.43 Z M 129.08 53.67 L 136.71 53.67 L 136.71 41.17 L 129.06 41.17 Z" fill="#231f20" fill-rule="nonzero" group-id="86" id="路径_10135" node-id="87" stroke="none" target-height="14.010002" target-width="9.179993" target-x="128.32" target-y="40.42"></path></g><g node-id="185"><path d="M 71.38 99.91 L 71.11 99.80 L 71.00 99.53 L 71.00 82.22 L 71.11 81.95 L 71.38 81.84 L 71.65 81.96 L 71.76 82.22 L 71.76 99.53 L 71.65 99.80 L 71.38 99.91 Z" fill="#d1d3d4" fill-rule="nonzero" group-id="87" id="路径_10136" node-id="88" stroke="none" target-height="18.070007" target-width="0.76000214" target-x="71" target-y="81.84"></path></g><g node-id="186"><path d="M 117.00 99.91 L 116.73 99.80 L 116.62 99.53 L 116.62 82.22 L 116.73 81.96 L 117.00 81.84 L 117.27 81.95 L 117.38 82.22 L 117.38 99.53 L 117.27 99.80 L 117.00 99.91 Z" fill="#d1d3d4" fill-rule="nonzero" group-id="88" id="路径_10137" node-id="89" stroke="none" target-height="18.070007" target-width="0.7599945" target-x="116.62" target-y="81.84"></path></g><g node-id="187"><path d="M 142.83 75.85 L 83.54 75.85 L 83.27 75.74 L 83.16 75.47 L 83.27 75.20 L 83.54 75.09 L 142.83 75.09 L 143.09 75.20 L 143.21 75.47 L 143.09 75.74 L 142.83 75.85 Z" fill="#231f20" fill-rule="nonzero" group-id="89" id="路径_10138" node-id="90" stroke="none" target-height="0.76000214" target-width="60.050003" target-x="83.16" target-y="75.09"></path></g><g node-id="188"><path d="M 43.76 31.68 L 43.57 31.64 L 43.40 31.40 L 43.44 31.11 L 45.15 28.56 L 47.17 26.29 L 49.51 24.29 L 51.50 23.10 L 53.17 22.62 L 54.63 22.67 L 56.37 23.49 L 57.85 24.71 L 58.69 25.46 L 60.02 26.38 L 61.46 27.10 L 62.77 27.39 L 63.53 27.15 L 64.19 26.70 L 66.00 24.96 L 67.55 23.43 L 69.36 22.24 L 70.88 21.80 L 72.42 21.78 L 73.92 22.15 L 75.30 22.90 L 76.45 23.96 L 77.39 24.84 L 79.03 25.77 L 81.01 26.20 L 83.11 26.12 L 85.29 25.49 L 87.21 24.48 L 88.97 23.20 L 92.04 20.30 L 92.31 20.18 L 92.58 20.30 L 92.69 20.57 L 92.58 20.84 L 90.48 22.94 L 88.15 24.72 L 85.57 26.20 L 83.19 26.88 L 80.90 26.96 L 78.72 26.47 L 76.91 25.44 L 75.91 24.50 L 74.83 23.52 L 73.63 22.86 L 72.32 22.54 L 70.98 22.56 L 69.66 22.94 L 67.98 24.06 L 66.54 25.48 L 64.67 27.25 L 63.83 27.81 L 62.85 28.11 L 62.00 28.03 L 61.19 27.76 L 59.65 27.00 L 58.24 26.02 L 57.37 25.27 L 56.01 24.17 L 54.44 23.44 L 53.20 23.40 L 51.73 23.85 L 49.89 24.96 L 47.63 26.87 L 45.68 29.05 L 44.03 31.51 L 43.75 31.69 Z" fill="#d1d3d4" fill-rule="nonzero" group-id="90" id="路径_10139" node-id="91" stroke="none" target-height="11.51" target-width="49.29" target-x="43.4" target-y="20.18"></path></g><g node-id="189"><path d="M 135.78 23.26 L 104.61 23.26 L 104.34 23.15 L 104.23 22.88 L 104.34 22.62 L 104.61 22.51 L 135.78 22.51 L 136.05 22.62 L 136.16 22.88 L 136.05 23.15 L 135.78 23.26 Z" fill="#d1d3d4" fill-rule="nonzero" group-id="91" id="路径_10140" node-id="92" stroke="none" target-height="0.75" target-width="31.93" target-x="104.23" target-y="22.51"></path></g><g node-id="190"><path d="M 135.79 27.47 L 123.06 27.47 L 122.80 27.36 L 122.69 27.09 L 122.80 26.83 L 123.06 26.71 L 135.77 26.71 L 136.04 26.82 L 136.15 27.09 L 136.05 27.36 L 135.78 27.47 Z" fill="#d1d3d4" fill-rule="nonzero" group-id="92" id="路径_10141" node-id="93" stroke="none" target-height="0.7600002" target-width="13.459991" target-x="122.69" target-y="26.71"></path></g><g node-id="191"><path d="M 117.76 27.47 L 104.61 27.47 L 104.34 27.36 L 104.23 27.09 L 104.34 26.83 L 104.61 26.71 L 117.76 26.71 L 118.02 26.83 L 118.14 27.09 L 118.02 27.36 L 117.76 27.47 Z" fill="#d1d3d4" fill-rule="nonzero" group-id="93" id="路径_10142" node-id="94" stroke="none" target-height="0.7600002" target-width="13.909996" target-x="104.23" target-y="26.71"></path></g><path d="M 135.78 31.69 L 108.56 31.69 L 108.29 31.58 L 108.18 31.31 L 108.29 31.04 L 108.56 30.93 L 135.78 30.93 L 136.05 31.04 L 136.16 31.31 L 136.05 31.58 L 135.78 31.69 Z" fill="#d1d3d4" fill-rule="nonzero" group-id="94" id="路径_10143" node-id="95" stroke="none" target-height="0.7600002" target-width="27.980003" target-x="108.18" target-y="30.93"></path></svg>