<?xml version="1.0" standalone="no"?><!DOCTYPE svg PUBLIC "-//W3C//DTD SVG 1.1//EN" "http://www.w3.org/Graphics/SVG/1.1/DTD/svg11.dtd"><svg height="123" node-id="1" sillyvg="true" template-height="123" template-width="198" version="1.1" viewBox="0 0 198 123" width="198" xmlns="http://www.w3.org/2000/svg" xmlns:xlink="http://www.w3.org/1999/xlink"><defs node-id="100"></defs><g node-id="102"><path d="M 197.78 110.33 L 0.34 110.33 L 0.03 110.17 L 0.03 109.82 L 0.34 109.66 L 197.78 109.66 L 198.01 109.76 L 198.10 109.99 L 198.01 110.23 L 197.78 110.33 Z" fill="#d1d3d4" fill-rule="nonzero" group-id="1" id="路径_9485" node-id="2" stroke="none" target-height="0.66999817" target-width="198.07" target-x="0.03" target-y="109.66"></path></g><g node-id="103"><path d="M 127.60 2.59 L 175.01 2.59 L 175.01 107.39 L 127.60 107.39 Z" fill="#231f20" fill-rule="nonzero" group-id="2" id="矩形_3286" node-id="3" stroke="none" target-height="104.8" target-width="47.409996" target-x="127.6" target-y="2.59"></path></g><g node-id="104"><path d="M 175.01 107.74 L 127.60 107.74 L 127.35 107.64 L 127.25 107.40 L 127.25 2.59 L 127.35 2.35 L 127.60 2.25 L 175.01 2.25 L 175.26 2.35 L 175.36 2.59 L 175.36 107.39 L 175.26 107.64 L 175.01 107.73 Z M 127.95 107.06 L 174.66 107.06 L 174.66 2.94 L 127.95 2.94 Z" fill="#231f20" fill-rule="nonzero" group-id="3" id="路径_9486" node-id="4" stroke="none" target-height="105.49" target-width="48.11" target-x="127.25" target-y="2.25"></path></g><g node-id="105"><path d="M 129.45 0.35 L 173.17 0.35 L 174.69 0.57 L 176.00 1.11 L 177.13 1.99 L 178.02 3.13 L 178.56 4.44 L 178.78 5.96 L 178.78 10.31 L 178.56 11.83 L 178.02 13.14 L 177.13 14.27 L 176.00 15.16 L 174.69 15.70 L 173.17 15.92 L 129.45 15.92 L 127.92 15.70 L 126.62 15.16 L 125.48 14.27 L 124.60 13.14 L 124.05 11.83 L 123.84 10.31 L 123.84 5.96 L 124.05 4.44 L 124.60 3.13 L 125.48 1.99 L 126.62 1.11 L 127.92 0.57 L 129.45 0.35 Z" fill="#ffffff" fill-rule="nonzero" group-id="4" id="矩形_3287" node-id="5" stroke="none" target-height="15.57" target-width="54.940002" target-x="123.84" target-y="0.35"></path></g><g node-id="106"><path d="M 175.00 16.26 L 127.61 16.26 L 126.00 15.93 L 124.70 15.05 L 123.82 13.75 L 123.49 12.13 L 123.49 4.13 L 123.82 2.51 L 124.70 1.21 L 126.00 0.34 L 127.61 0.00 L 175.00 0.00 L 176.59 0.31 L 177.93 1.21 L 178.83 2.55 L 179.15 4.13 L 179.15 12.13 L 178.83 13.71 L 177.93 15.05 L 176.59 15.95 L 175.00 16.26 Z M 127.61 0.69 L 126.30 0.96 L 125.19 1.70 L 124.44 2.82 L 124.18 4.13 L 124.18 12.13 L 124.46 13.47 L 125.19 14.55 L 126.27 15.29 L 127.61 15.56 L 175.00 15.56 L 176.34 15.29 L 177.42 14.55 L 178.15 13.47 L 178.42 12.13 L 178.42 4.13 L 178.15 2.79 L 177.42 1.71 L 176.34 0.97 L 175.00 0.70 Z" fill="#231f20" fill-rule="nonzero" group-id="5" id="路径_9487" node-id="6" stroke="none" target-height="16.26" target-width="55.659996" target-x="123.49" target-y="0"></path></g><g node-id="107"><path d="M 130.34 9.81 L 129.68 9.68 L 129.15 9.32 L 128.79 8.79 L 128.66 8.13 L 128.79 7.47 L 129.15 6.94 L 129.68 6.58 L 130.34 6.45 L 131.00 6.58 L 131.53 6.94 L 131.89 7.47 L 132.02 8.13 L 131.89 8.79 L 131.53 9.32 L 131.00 9.68 L 130.34 9.81 Z M 130.34 7.12 L 129.62 7.42 L 129.33 8.13 L 129.62 8.85 L 130.34 9.14 L 131.05 8.85 L 131.35 8.13 L 131.05 7.42 L 130.34 7.12 Z" fill="#d1d3d4" fill-rule="nonzero" group-id="6" id="路径_9488" node-id="7" stroke="none" target-height="3.3600006" target-width="3.3600006" target-x="128.66" target-y="6.45"></path></g><g node-id="108"><path d="M 136.02 9.81 L 135.36 9.68 L 134.83 9.32 L 134.47 8.79 L 134.33 8.13 L 134.47 7.47 L 134.83 6.94 L 135.36 6.58 L 136.02 6.45 L 136.68 6.58 L 137.21 6.94 L 137.56 7.47 L 137.70 8.13 L 137.56 8.79 L 137.21 9.32 L 136.68 9.68 L 136.02 9.81 Z M 136.02 7.12 L 135.30 7.42 L 135.01 8.13 L 135.30 8.85 L 136.02 9.14 L 136.73 8.85 L 137.03 8.13 L 136.73 7.42 L 136.02 7.12 Z" fill="#d1d3d4" fill-rule="nonzero" group-id="7" id="路径_9489" node-id="8" stroke="none" target-height="3.3600006" target-width="3.369995" target-x="134.33" target-y="6.45"></path></g><g node-id="109"><path d="M 173.62 9.24 L 140.98 9.24 L 140.74 9.14 L 140.64 8.90 L 140.64 7.34 L 140.74 7.10 L 140.98 7.00 L 173.62 7.00 L 173.86 7.10 L 173.96 7.34 L 173.96 8.93 L 173.85 9.15 L 173.62 9.24 Z M 141.32 8.57 L 173.28 8.57 L 173.28 7.67 L 141.32 7.67 Z" fill="#d1d3d4" fill-rule="nonzero" group-id="8" id="路径_9490" node-id="9" stroke="none" target-height="2.2399998" target-width="33.320007" target-x="140.64" target-y="7"></path></g><g node-id="110"><path d="M 129.45 19.53 L 173.17 19.53 L 174.69 19.75 L 176.00 20.29 L 177.13 21.17 L 178.02 22.31 L 178.56 23.62 L 178.78 25.14 L 178.78 29.49 L 178.56 31.01 L 178.02 32.32 L 177.13 33.45 L 176.00 34.34 L 174.69 34.88 L 173.17 35.10 L 129.45 35.10 L 127.92 34.88 L 126.62 34.34 L 125.48 33.45 L 124.60 32.32 L 124.05 31.01 L 123.84 29.49 L 123.84 25.14 L 124.05 23.62 L 124.60 22.31 L 125.48 21.17 L 126.62 20.29 L 127.92 19.75 L 129.45 19.53 Z" fill="#ffffff" fill-rule="nonzero" group-id="9" id="矩形_3288" node-id="10" stroke="none" target-height="15.569998" target-width="54.940002" target-x="123.84" target-y="19.53"></path></g><g node-id="111"><path d="M 175.00 35.44 L 127.61 35.44 L 126.00 35.11 L 124.70 34.23 L 123.82 32.93 L 123.49 31.31 L 123.49 23.31 L 123.82 21.69 L 124.70 20.40 L 126.00 19.52 L 127.61 19.19 L 175.00 19.19 L 176.59 19.49 L 177.93 20.39 L 178.83 21.73 L 179.15 23.31 L 179.15 31.31 L 178.83 32.89 L 177.93 34.24 L 176.59 35.13 L 175.00 35.44 Z M 127.61 19.87 L 126.30 20.14 L 125.19 20.88 L 124.44 22.00 L 124.18 23.31 L 124.18 31.31 L 124.46 32.66 L 125.19 33.74 L 126.27 34.47 L 127.61 34.74 L 175.00 34.74 L 176.34 34.47 L 177.42 33.74 L 178.15 32.66 L 178.42 31.31 L 178.42 23.31 L 178.15 21.97 L 177.42 20.89 L 176.34 20.15 L 175.00 19.88 Z" fill="#231f20" fill-rule="nonzero" group-id="10" id="路径_9491" node-id="11" stroke="none" target-height="16.249998" target-width="55.659996" target-x="123.49" target-y="19.19"></path></g><g node-id="112"><path d="M 130.34 28.99 L 129.68 28.86 L 129.15 28.50 L 128.79 27.97 L 128.66 27.31 L 128.79 26.65 L 129.15 26.12 L 129.68 25.76 L 130.34 25.63 L 131.00 25.76 L 131.53 26.12 L 131.89 26.65 L 132.02 27.31 L 131.89 27.97 L 131.53 28.50 L 131.00 28.86 L 130.34 28.99 Z M 130.34 26.30 L 129.62 26.60 L 129.33 27.31 L 129.62 28.03 L 130.34 28.32 L 131.05 28.03 L 131.35 27.31 L 131.05 26.60 L 130.34 26.30 Z" fill="#d1d3d4" fill-rule="nonzero" group-id="11" id="路径_9492" node-id="12" stroke="none" target-height="3.3600006" target-width="3.3600006" target-x="128.66" target-y="25.63"></path></g><g node-id="113"><path d="M 136.02 28.99 L 135.36 28.86 L 134.83 28.50 L 134.47 27.97 L 134.33 27.31 L 134.47 26.65 L 134.83 26.12 L 135.36 25.76 L 136.02 25.63 L 136.68 25.76 L 137.21 26.12 L 137.56 26.65 L 137.70 27.31 L 137.56 27.97 L 137.21 28.50 L 136.68 28.86 L 136.02 28.99 Z M 136.02 26.30 L 135.30 26.60 L 135.01 27.31 L 135.30 28.03 L 136.02 28.32 L 136.73 28.03 L 137.03 27.31 L 136.73 26.60 L 136.02 26.30 Z" fill="#d1d3d4" fill-rule="nonzero" group-id="12" id="路径_9493" node-id="13" stroke="none" target-height="3.3600006" target-width="3.369995" target-x="134.33" target-y="25.63"></path></g><g node-id="114"><path d="M 173.62 28.44 L 140.98 28.44 L 140.74 28.34 L 140.64 28.11 L 140.64 26.52 L 140.74 26.28 L 140.98 26.18 L 173.62 26.18 L 173.86 26.28 L 173.96 26.52 L 173.96 28.09 L 173.87 28.34 L 173.62 28.44 Z M 141.32 27.77 L 173.28 27.77 L 173.28 26.85 L 141.32 26.85 Z" fill="#d1d3d4" fill-rule="nonzero" group-id="13" id="路径_9494" node-id="14" stroke="none" target-height="2.2600002" target-width="33.320007" target-x="140.64" target-y="26.18"></path></g><g node-id="115"><path d="M 129.45 38.71 L 173.17 38.71 L 174.69 38.93 L 176.00 39.47 L 177.13 40.36 L 178.02 41.49 L 178.56 42.80 L 178.78 44.32 L 178.78 48.67 L 178.56 50.19 L 178.02 51.50 L 177.13 52.64 L 176.00 53.52 L 174.69 54.06 L 173.17 54.28 L 129.45 54.28 L 127.92 54.06 L 126.62 53.52 L 125.48 52.64 L 124.60 51.50 L 124.05 50.19 L 123.84 48.67 L 123.84 44.32 L 124.05 42.80 L 124.60 41.49 L 125.48 40.36 L 126.62 39.47 L 127.92 38.93 L 129.45 38.71 Z" fill="#ffffff" fill-rule="nonzero" group-id="14" id="矩形_3289" node-id="15" stroke="none" target-height="15.57" target-width="54.940002" target-x="123.84" target-y="38.71"></path></g><g node-id="116"><path d="M 175.00 54.62 L 127.61 54.62 L 126.00 54.29 L 124.70 53.41 L 123.82 52.11 L 123.49 50.50 L 123.49 42.49 L 123.82 40.88 L 124.70 39.58 L 126.00 38.70 L 127.61 38.37 L 175.00 38.37 L 176.59 38.68 L 177.93 39.57 L 178.83 40.91 L 179.15 42.49 L 179.15 50.49 L 178.83 52.08 L 177.93 53.42 L 176.59 54.31 L 175.00 54.62 Z M 127.61 39.06 L 126.30 39.32 L 125.19 40.06 L 124.44 41.18 L 124.18 42.49 L 124.18 50.49 L 124.46 51.84 L 125.19 52.92 L 126.27 53.65 L 127.61 53.93 L 175.00 53.93 L 176.34 53.65 L 177.42 52.92 L 178.15 51.84 L 178.42 50.49 L 178.42 42.49 L 178.15 41.15 L 177.42 40.07 L 176.34 39.34 L 175.00 39.06 Z" fill="#231f20" fill-rule="nonzero" group-id="15" id="路径_9495" node-id="16" stroke="none" target-height="16.25" target-width="55.659996" target-x="123.49" target-y="38.37"></path></g><g node-id="117"><path d="M 130.34 48.17 L 129.68 48.04 L 129.15 47.68 L 128.79 47.15 L 128.66 46.49 L 128.79 45.83 L 129.15 45.30 L 129.68 44.94 L 130.34 44.81 L 131.00 44.94 L 131.53 45.30 L 131.89 45.83 L 132.02 46.49 L 131.89 47.15 L 131.53 47.68 L 131.00 48.04 L 130.34 48.17 Z M 130.34 45.48 L 129.62 45.78 L 129.33 46.49 L 129.62 47.21 L 130.34 47.50 L 131.05 47.21 L 131.35 46.49 L 131.05 45.78 L 130.34 45.48 Z" fill="#d1d3d4" fill-rule="nonzero" group-id="16" id="路径_9496" node-id="17" stroke="none" target-height="3.3599968" target-width="3.3600006" target-x="128.66" target-y="44.81"></path></g><g node-id="118"><path d="M 136.02 48.17 L 135.36 48.04 L 134.83 47.68 L 134.47 47.15 L 134.33 46.49 L 134.47 45.83 L 134.83 45.30 L 135.36 44.94 L 136.02 44.81 L 136.68 44.94 L 137.21 45.30 L 137.56 45.83 L 137.70 46.49 L 137.56 47.15 L 137.21 47.68 L 136.68 48.04 L 136.02 48.17 Z M 136.02 45.48 L 135.30 45.78 L 135.01 46.49 L 135.30 47.21 L 136.02 47.50 L 136.73 47.21 L 137.03 46.49 L 136.73 45.78 L 136.02 45.48 Z" fill="#d1d3d4" fill-rule="nonzero" group-id="17" id="路径_9497" node-id="18" stroke="none" target-height="3.3599968" target-width="3.369995" target-x="134.33" target-y="44.81"></path></g><g node-id="119"><path d="M 173.62 47.60 L 140.98 47.60 L 140.74 47.50 L 140.64 47.27 L 140.64 45.68 L 140.74 45.44 L 140.98 45.34 L 173.62 45.34 L 173.86 45.44 L 173.96 45.68 L 173.96 47.27 L 173.86 47.50 L 173.62 47.60 Z M 141.32 46.93 L 173.28 46.93 L 173.28 46.01 L 141.32 46.01 Z" fill="#d1d3d4" fill-rule="nonzero" group-id="18" id="路径_9498" node-id="19" stroke="none" target-height="2.2599983" target-width="33.320007" target-x="140.64" target-y="45.34"></path></g><g node-id="120"><path d="M 129.45 57.89 L 173.17 57.89 L 174.69 58.10 L 176.00 58.65 L 177.13 59.53 L 178.02 60.67 L 178.56 61.97 L 178.78 63.50 L 178.78 67.84 L 178.56 69.37 L 178.02 70.67 L 177.13 71.81 L 176.00 72.69 L 174.69 73.24 L 173.17 73.45 L 129.45 73.45 L 127.92 73.24 L 126.62 72.69 L 125.48 71.81 L 124.60 70.67 L 124.05 69.37 L 123.84 67.84 L 123.84 63.50 L 124.05 61.97 L 124.60 60.67 L 125.48 59.53 L 126.62 58.65 L 127.92 58.10 L 129.45 57.89 Z" fill="#ffffff" fill-rule="nonzero" group-id="19" id="矩形_3290" node-id="20" stroke="none" target-height="15.559998" target-width="54.940002" target-x="123.84" target-y="57.89"></path></g><g node-id="121"><path d="M 175.00 73.80 L 127.61 73.80 L 126.00 73.47 L 124.70 72.59 L 123.82 71.29 L 123.49 69.68 L 123.49 61.67 L 123.82 60.06 L 124.70 58.76 L 126.00 57.88 L 127.61 57.55 L 175.00 57.55 L 176.59 57.86 L 177.93 58.75 L 178.83 60.09 L 179.15 61.67 L 179.15 69.67 L 178.83 71.26 L 177.93 72.60 L 176.59 73.49 L 175.00 73.80 Z M 127.61 58.24 L 126.30 58.50 L 125.19 59.25 L 124.44 60.36 L 124.18 61.67 L 124.18 69.67 L 124.46 71.02 L 125.19 72.10 L 126.27 72.83 L 127.61 73.11 L 175.00 73.11 L 176.34 72.83 L 177.42 72.10 L 178.15 71.02 L 178.42 69.67 L 178.42 61.67 L 178.15 60.33 L 177.42 59.25 L 176.34 58.52 L 175.00 58.24 Z" fill="#231f20" fill-rule="nonzero" group-id="20" id="路径_9499" node-id="21" stroke="none" target-height="16.250004" target-width="55.659996" target-x="123.49" target-y="57.55"></path></g><g node-id="122"><path d="M 130.34 67.36 L 129.68 67.22 L 129.15 66.86 L 128.79 66.33 L 128.66 65.67 L 128.79 65.01 L 129.15 64.48 L 129.68 64.13 L 130.34 63.99 L 131.00 64.13 L 131.53 64.48 L 131.89 65.01 L 132.02 65.67 L 131.89 66.33 L 131.53 66.86 L 131.00 67.22 L 130.34 67.36 Z M 130.34 64.66 L 129.62 64.96 L 129.33 65.67 L 129.62 66.39 L 130.34 66.69 L 131.05 66.39 L 131.35 65.67 L 131.05 64.96 L 130.34 64.66 Z" fill="#d1d3d4" fill-rule="nonzero" group-id="21" id="路径_9500" node-id="22" stroke="none" target-height="3.369999" target-width="3.3600006" target-x="128.66" target-y="63.99"></path></g><g node-id="123"><path d="M 136.02 67.36 L 135.36 67.22 L 134.83 66.86 L 134.47 66.33 L 134.33 65.67 L 134.47 65.01 L 134.83 64.48 L 135.36 64.13 L 136.02 63.99 L 136.68 64.13 L 137.21 64.48 L 137.56 65.01 L 137.70 65.67 L 137.56 66.33 L 137.21 66.86 L 136.68 67.22 L 136.02 67.36 Z M 136.02 64.66 L 135.30 64.96 L 135.01 65.67 L 135.30 66.39 L 136.02 66.69 L 136.73 66.39 L 137.03 65.67 L 136.73 64.96 L 136.02 64.66 Z" fill="#d1d3d4" fill-rule="nonzero" group-id="22" id="路径_9501" node-id="23" stroke="none" target-height="3.369999" target-width="3.369995" target-x="134.33" target-y="63.99"></path></g><g node-id="124"><path d="M 173.62 66.80 L 140.98 66.80 L 140.74 66.70 L 140.64 66.47 L 140.64 64.88 L 140.74 64.64 L 140.98 64.54 L 173.62 64.54 L 173.86 64.64 L 173.96 64.88 L 173.96 66.45 L 173.87 66.70 L 173.62 66.80 Z M 141.32 66.13 L 173.28 66.13 L 173.28 65.22 L 141.32 65.22 Z" fill="#d1d3d4" fill-rule="nonzero" group-id="23" id="路径_9502" node-id="24" stroke="none" target-height="2.2600021" target-width="33.320007" target-x="140.64" target-y="64.54"></path></g><g node-id="125"><path d="M 129.45 77.07 L 173.17 77.07 L 174.69 77.28 L 176.00 77.83 L 177.13 78.71 L 178.02 79.85 L 178.56 81.16 L 178.78 82.68 L 178.78 87.03 L 178.56 88.55 L 178.02 89.86 L 177.13 90.99 L 176.00 91.88 L 174.69 92.42 L 173.17 92.64 L 129.45 92.64 L 127.92 92.42 L 126.62 91.88 L 125.48 90.99 L 124.60 89.86 L 124.05 88.55 L 123.84 87.03 L 123.84 82.68 L 124.05 81.16 L 124.60 79.85 L 125.48 78.71 L 126.62 77.83 L 127.92 77.28 L 129.45 77.07 Z" fill="#ffffff" fill-rule="nonzero" group-id="24" id="矩形_3291" node-id="25" stroke="none" target-height="15.57" target-width="54.940002" target-x="123.84" target-y="77.07"></path></g><g node-id="126"><path d="M 175.00 92.98 L 127.61 92.98 L 126.00 92.65 L 124.70 91.77 L 123.82 90.48 L 123.49 88.86 L 123.49 80.85 L 123.82 79.24 L 124.70 77.94 L 126.00 77.06 L 127.61 76.73 L 175.00 76.73 L 176.59 77.04 L 177.93 77.93 L 178.83 79.27 L 179.15 80.85 L 179.15 88.85 L 178.83 90.44 L 177.93 91.78 L 176.59 92.67 L 175.00 92.98 Z M 127.61 77.42 L 126.30 77.68 L 125.19 78.43 L 124.44 79.54 L 124.18 80.85 L 124.18 88.85 L 124.46 90.20 L 125.19 91.28 L 126.27 92.01 L 127.61 92.29 L 175.00 92.29 L 176.34 92.01 L 177.42 91.28 L 178.15 90.20 L 178.42 88.85 L 178.42 80.85 L 178.15 79.51 L 177.42 78.43 L 176.34 77.70 L 175.00 77.42 Z" fill="#231f20" fill-rule="nonzero" group-id="25" id="路径_9503" node-id="26" stroke="none" target-height="16.25" target-width="55.659996" target-x="123.49" target-y="76.73"></path></g><g node-id="127"><path d="M 130.34 86.54 L 129.68 86.40 L 129.15 86.05 L 128.79 85.51 L 128.66 84.85 L 128.79 84.20 L 129.15 83.66 L 129.68 83.31 L 130.34 83.17 L 131.00 83.31 L 131.53 83.66 L 131.89 84.20 L 132.02 84.85 L 131.89 85.51 L 131.53 86.05 L 131.00 86.40 L 130.34 86.54 Z M 130.34 83.85 L 129.62 84.14 L 129.33 84.86 L 129.62 85.57 L 130.34 85.87 L 131.05 85.57 L 131.35 84.86 L 131.05 84.14 L 130.34 83.85 Z" fill="#d1d3d4" fill-rule="nonzero" group-id="26" id="路径_9504" node-id="27" stroke="none" target-height="3.3700027" target-width="3.3600006" target-x="128.66" target-y="83.17"></path></g><g node-id="128"><path d="M 136.02 86.54 L 135.36 86.40 L 134.83 86.05 L 134.47 85.51 L 134.33 84.85 L 134.47 84.20 L 134.83 83.66 L 135.36 83.31 L 136.02 83.17 L 136.68 83.31 L 137.21 83.66 L 137.56 84.20 L 137.70 84.85 L 137.56 85.51 L 137.21 86.05 L 136.68 86.40 L 136.02 86.54 Z M 136.02 83.85 L 135.30 84.14 L 135.01 84.86 L 135.30 85.57 L 136.02 85.87 L 136.73 85.57 L 137.03 84.86 L 136.73 84.14 L 136.02 83.85 Z" fill="#d1d3d4" fill-rule="nonzero" group-id="27" id="路径_9505" node-id="28" stroke="none" target-height="3.3700027" target-width="3.369995" target-x="134.33" target-y="83.17"></path></g><g node-id="129"><path d="M 173.62 85.97 L 140.98 85.97 L 140.74 85.87 L 140.64 85.63 L 140.64 84.04 L 140.74 83.80 L 140.98 83.70 L 173.62 83.70 L 173.86 83.80 L 173.96 84.04 L 173.96 85.63 L 173.86 85.87 L 173.62 85.97 Z M 141.32 85.29 L 173.28 85.29 L 173.28 84.38 L 141.32 84.38 Z" fill="#d1d3d4" fill-rule="nonzero" group-id="28" id="路径_9506" node-id="29" stroke="none" target-height="2.2700043" target-width="33.320007" target-x="140.64" target-y="83.7"></path></g><g node-id="130"><path d="M 129.45 96.25 L 173.17 96.25 L 174.69 96.47 L 176.00 97.01 L 177.13 97.89 L 178.02 99.03 L 178.56 100.34 L 178.78 101.86 L 178.78 106.21 L 178.56 107.73 L 178.02 109.04 L 177.13 110.17 L 176.00 111.06 L 174.69 111.60 L 173.17 111.82 L 129.45 111.82 L 127.92 111.60 L 126.62 111.06 L 125.48 110.17 L 124.60 109.04 L 124.05 107.73 L 123.84 106.21 L 123.84 101.86 L 124.05 100.34 L 124.60 99.03 L 125.48 97.89 L 126.62 97.01 L 127.92 96.47 L 129.45 96.25 Z" fill="#ffffff" fill-rule="nonzero" group-id="29" id="矩形_3292" node-id="30" stroke="none" target-height="15.57" target-width="54.940002" target-x="123.84" target-y="96.25"></path></g><g node-id="131"><path d="M 175.00 112.17 L 127.61 112.17 L 126.00 111.84 L 124.70 110.96 L 123.82 109.66 L 123.49 108.04 L 123.49 100.04 L 123.82 98.42 L 124.70 97.12 L 126.00 96.24 L 127.61 95.91 L 175.00 95.91 L 176.59 96.22 L 177.93 97.11 L 178.83 98.45 L 179.15 100.04 L 179.15 108.04 L 178.83 109.62 L 177.93 110.96 L 176.59 111.85 L 175.00 112.16 Z M 127.61 96.60 L 126.30 96.86 L 125.19 97.61 L 124.44 98.72 L 124.18 100.04 L 124.18 108.04 L 124.46 109.38 L 125.19 110.46 L 126.27 111.19 L 127.61 111.47 L 175.00 111.47 L 176.34 111.19 L 177.42 110.46 L 178.15 109.38 L 178.42 108.04 L 178.42 100.04 L 178.15 98.69 L 177.42 97.61 L 176.34 96.88 L 175.00 96.61 Z" fill="#231f20" fill-rule="nonzero" group-id="30" id="路径_9507" node-id="31" stroke="none" target-height="16.259995" target-width="55.659996" target-x="123.49" target-y="95.91"></path></g><g node-id="132"><path d="M 130.34 105.72 L 129.68 105.58 L 129.15 105.23 L 128.79 104.70 L 128.66 104.04 L 128.79 103.38 L 129.15 102.85 L 129.68 102.49 L 130.34 102.35 L 131.00 102.49 L 131.53 102.85 L 131.89 103.38 L 132.02 104.04 L 131.89 104.70 L 131.53 105.23 L 131.00 105.58 L 130.34 105.72 Z M 130.34 103.03 L 129.62 103.32 L 129.33 104.04 L 129.62 104.75 L 130.34 105.05 L 131.05 104.75 L 131.35 104.04 L 131.05 103.32 L 130.34 103.03 Z" fill="#d1d3d4" fill-rule="nonzero" group-id="31" id="路径_9508" node-id="32" stroke="none" target-height="3.3700027" target-width="3.3600006" target-x="128.66" target-y="102.35"></path></g><g node-id="133"><path d="M 136.02 105.72 L 135.36 105.58 L 134.83 105.23 L 134.47 104.70 L 134.33 104.04 L 134.47 103.38 L 134.83 102.85 L 135.36 102.49 L 136.02 102.35 L 136.68 102.49 L 137.21 102.85 L 137.56 103.38 L 137.70 104.04 L 137.56 104.70 L 137.21 105.23 L 136.68 105.58 L 136.02 105.72 Z M 136.02 103.03 L 135.30 103.32 L 135.01 104.04 L 135.30 104.75 L 136.02 105.05 L 136.73 104.75 L 137.03 104.04 L 136.73 103.32 L 136.02 103.03 Z" fill="#d1d3d4" fill-rule="nonzero" group-id="32" id="路径_9509" node-id="33" stroke="none" target-height="3.3700027" target-width="3.369995" target-x="134.33" target-y="102.35"></path></g><g node-id="134"><path d="M 173.62 105.17 L 140.98 105.17 L 140.74 105.07 L 140.64 104.83 L 140.64 103.24 L 140.74 103.00 L 140.98 102.91 L 173.62 102.91 L 173.86 103.00 L 173.96 103.24 L 173.96 104.81 L 173.87 105.06 L 173.62 105.17 Z M 141.32 104.49 L 173.28 104.49 L 173.28 103.58 L 141.32 103.58 Z" fill="#d1d3d4" fill-rule="nonzero" group-id="33" id="路径_9510" node-id="34" stroke="none" target-height="2.2599945" target-width="33.320007" target-x="140.64" target-y="102.91"></path></g><g node-id="135"><path d="M 129.28 111.82 L 134.96 111.82 L 134.96 114.13 L 129.28 114.13 Z" fill="#231f20" fill-rule="nonzero" group-id="34" id="矩形_3293" node-id="35" stroke="none" target-height="2.3099976" target-width="5.680008" target-x="129.28" target-y="111.82"></path></g><g node-id="136"><path d="M 134.96 114.48 L 129.28 114.48 L 129.03 114.38 L 128.93 114.14 L 128.93 111.82 L 129.03 111.57 L 129.28 111.47 L 134.96 111.47 L 135.20 111.57 L 135.31 111.82 L 135.31 114.14 L 135.20 114.38 L 134.96 114.48 Z M 129.62 113.81 L 134.61 113.81 L 134.61 112.19 L 129.62 112.19 Z" fill="#231f20" fill-rule="nonzero" group-id="35" id="路径_9511" node-id="36" stroke="none" target-height="3.0100021" target-width="6.380005" target-x="128.93" target-y="111.47"></path></g><g node-id="137"><path d="M 167.65 111.82 L 173.34 111.82 L 173.34 114.13 L 167.65 114.13 Z" fill="#231f20" fill-rule="nonzero" group-id="36" id="矩形_3294" node-id="37" stroke="none" target-height="2.3099976" target-width="5.6900024" target-x="167.65" target-y="111.82"></path></g><g node-id="138"><path d="M 173.34 114.48 L 167.65 114.48 L 167.41 114.38 L 167.31 114.14 L 167.31 111.82 L 167.41 111.57 L 167.65 111.47 L 173.34 111.47 L 173.58 111.57 L 173.68 111.82 L 173.68 114.14 L 173.58 114.38 L 173.34 114.48 Z M 168.00 113.81 L 172.99 113.81 L 172.99 112.19 L 168.00 112.19 Z" fill="#231f20" fill-rule="nonzero" group-id="37" id="路径_9512" node-id="38" stroke="none" target-height="3.0100021" target-width="6.369995" target-x="167.31" target-y="111.47"></path></g><g node-id="139"><path d="M 64.23 42.40 L 111.64 42.40 L 111.64 107.40 L 64.23 107.40 Z" fill="#231f20" fill-rule="nonzero" group-id="38" id="矩形_3295" node-id="39" stroke="none" target-height="65" target-width="47.409996" target-x="64.23" target-y="42.4"></path></g><g node-id="140"><path d="M 111.64 107.74 L 64.23 107.74 L 63.98 107.64 L 63.88 107.40 L 63.88 42.40 L 63.98 42.15 L 64.23 42.05 L 111.64 42.05 L 111.89 42.15 L 111.99 42.40 L 111.99 107.39 L 111.89 107.64 L 111.64 107.74 Z M 64.58 107.07 L 111.30 107.07 L 111.30 42.75 L 64.58 42.75 Z" fill="#231f20" fill-rule="nonzero" group-id="39" id="路径_9513" node-id="40" stroke="none" target-height="65.69" target-width="48.109997" target-x="63.88" target-y="42.05"></path></g><g node-id="141"><path d="M 66.08 38.71 L 109.79 38.71 L 111.32 38.93 L 112.62 39.47 L 113.76 40.36 L 114.64 41.49 L 115.19 42.80 L 115.40 44.32 L 115.40 48.67 L 115.19 50.19 L 114.64 51.50 L 113.76 52.64 L 112.62 53.52 L 111.32 54.06 L 109.79 54.28 L 66.08 54.28 L 64.55 54.06 L 63.25 53.52 L 62.11 52.64 L 61.23 51.50 L 60.68 50.19 L 60.47 48.67 L 60.47 44.32 L 60.68 42.80 L 61.23 41.49 L 62.11 40.36 L 63.25 39.47 L 64.55 38.93 L 66.08 38.71 Z" fill="#ffffff" fill-rule="nonzero" group-id="40" id="矩形_3296" node-id="41" stroke="none" target-height="15.57" target-width="54.93" target-x="60.47" target-y="38.71"></path></g><g node-id="142"><path d="M 111.63 54.62 L 64.25 54.62 L 62.63 54.29 L 61.33 53.41 L 60.45 52.11 L 60.12 50.50 L 60.12 42.49 L 60.45 40.88 L 61.33 39.58 L 62.63 38.70 L 64.25 38.37 L 111.63 38.37 L 113.25 38.70 L 114.54 39.58 L 115.42 40.88 L 115.76 42.49 L 115.76 50.49 L 115.43 52.11 L 114.55 53.41 L 113.25 54.29 L 111.63 54.62 Z M 64.25 39.06 L 62.90 39.33 L 61.82 40.06 L 61.09 41.14 L 60.82 42.49 L 60.82 50.49 L 61.09 51.84 L 61.82 52.92 L 62.90 53.65 L 64.25 53.93 L 111.63 53.93 L 112.97 53.65 L 114.05 52.92 L 114.79 51.84 L 115.06 50.49 L 115.06 42.49 L 114.79 41.15 L 114.05 40.07 L 112.97 39.34 L 111.63 39.06 Z" fill="#231f20" fill-rule="nonzero" group-id="41" id="路径_9514" node-id="42" stroke="none" target-height="16.25" target-width="55.640003" target-x="60.12" target-y="38.37"></path></g><g node-id="143"><path d="M 66.96 48.17 L 66.30 48.04 L 65.77 47.68 L 65.42 47.15 L 65.28 46.49 L 65.42 45.83 L 65.77 45.30 L 66.30 44.94 L 66.96 44.81 L 67.62 44.94 L 68.15 45.30 L 68.51 45.83 L 68.65 46.49 L 68.51 47.15 L 68.15 47.68 L 67.62 48.04 L 66.96 48.17 Z M 66.96 45.48 L 66.25 45.78 L 65.95 46.49 L 66.25 47.21 L 66.96 47.50 L 67.68 47.21 L 67.97 46.49 L 67.68 45.78 L 66.96 45.48 Z" fill="#d1d3d4" fill-rule="nonzero" group-id="42" id="路径_9515" node-id="43" stroke="none" target-height="3.3599968" target-width="3.3700027" target-x="65.28" target-y="44.81"></path></g><g node-id="144"><path d="M 72.65 48.17 L 71.99 48.04 L 71.46 47.68 L 71.11 47.15 L 70.97 46.49 L 71.11 45.83 L 71.46 45.30 L 71.99 44.94 L 72.65 44.81 L 73.31 44.94 L 73.84 45.30 L 74.20 45.83 L 74.34 46.49 L 74.20 47.15 L 73.84 47.68 L 73.31 48.04 L 72.65 48.17 Z M 72.65 45.48 L 71.94 45.78 L 71.64 46.49 L 71.94 47.21 L 72.65 47.50 L 73.37 47.21 L 73.66 46.49 L 73.37 45.78 L 72.65 45.48 Z" fill="#d1d3d4" fill-rule="nonzero" group-id="43" id="路径_9516" node-id="44" stroke="none" target-height="3.3599968" target-width="3.369995" target-x="70.97" target-y="44.81"></path></g><g node-id="145"><path d="M 110.26 47.60 L 77.61 47.60 L 77.37 47.50 L 77.27 47.27 L 77.27 45.68 L 77.37 45.44 L 77.61 45.34 L 110.26 45.34 L 110.49 45.44 L 110.59 45.68 L 110.59 47.27 L 110.49 47.50 L 110.26 47.60 Z M 77.95 46.93 L 109.93 46.93 L 109.93 46.01 L 77.94 46.01 Z" fill="#d1d3d4" fill-rule="nonzero" group-id="44" id="路径_9517" node-id="45" stroke="none" target-height="2.2599983" target-width="33.32" target-x="77.27" target-y="45.34"></path></g><g node-id="146"><path d="M 66.08 57.89 L 109.79 57.89 L 111.32 58.10 L 112.62 58.65 L 113.76 59.53 L 114.64 60.67 L 115.19 61.97 L 115.40 63.50 L 115.40 67.84 L 115.19 69.37 L 114.64 70.67 L 113.76 71.81 L 112.62 72.69 L 111.32 73.24 L 109.79 73.45 L 66.08 73.45 L 64.55 73.24 L 63.25 72.69 L 62.11 71.81 L 61.23 70.67 L 60.68 69.37 L 60.47 67.84 L 60.47 63.50 L 60.68 61.97 L 61.23 60.67 L 62.11 59.53 L 63.25 58.65 L 64.55 58.10 L 66.08 57.89 Z" fill="#ffffff" fill-rule="nonzero" group-id="45" id="矩形_3297" node-id="46" stroke="none" target-height="15.559998" target-width="54.93" target-x="60.47" target-y="57.89"></path></g><g node-id="147"><path d="M 111.63 73.80 L 64.25 73.80 L 62.63 73.47 L 61.33 72.59 L 60.45 71.29 L 60.12 69.68 L 60.12 61.67 L 60.45 60.06 L 61.33 58.76 L 62.63 57.88 L 64.25 57.55 L 111.63 57.55 L 113.25 57.88 L 114.54 58.76 L 115.42 60.06 L 115.76 61.67 L 115.76 69.67 L 115.43 71.29 L 114.55 72.59 L 113.25 73.47 L 111.63 73.80 Z M 64.25 58.24 L 62.90 58.51 L 61.82 59.24 L 61.09 60.32 L 60.82 61.67 L 60.82 69.67 L 61.09 71.02 L 61.82 72.10 L 62.90 72.83 L 64.25 73.11 L 111.63 73.11 L 112.97 72.83 L 114.05 72.10 L 114.79 71.02 L 115.06 69.67 L 115.06 61.67 L 114.79 60.33 L 114.05 59.25 L 112.97 58.52 L 111.63 58.24 Z" fill="#231f20" fill-rule="nonzero" group-id="46" id="路径_9518" node-id="47" stroke="none" target-height="16.250004" target-width="55.640003" target-x="60.12" target-y="57.55"></path></g><g node-id="148"><path d="M 66.96 67.36 L 66.30 67.22 L 65.77 66.86 L 65.42 66.33 L 65.28 65.67 L 65.42 65.01 L 65.77 64.48 L 66.30 64.13 L 66.96 63.99 L 67.62 64.13 L 68.15 64.48 L 68.51 65.01 L 68.65 65.67 L 68.51 66.33 L 68.15 66.86 L 67.62 67.22 L 66.96 67.36 Z M 66.96 64.66 L 66.25 64.96 L 65.95 65.67 L 66.25 66.39 L 66.96 66.69 L 67.68 66.39 L 67.97 65.67 L 67.68 64.96 L 66.96 64.66 Z" fill="#d1d3d4" fill-rule="nonzero" group-id="47" id="路径_9519" node-id="48" stroke="none" target-height="3.369999" target-width="3.3700027" target-x="65.28" target-y="63.99"></path></g><g node-id="149"><path d="M 72.65 67.36 L 71.99 67.22 L 71.46 66.86 L 71.11 66.33 L 70.97 65.67 L 71.11 65.01 L 71.46 64.48 L 71.99 64.13 L 72.65 63.99 L 73.31 64.13 L 73.84 64.48 L 74.20 65.01 L 74.34 65.67 L 74.20 66.33 L 73.84 66.86 L 73.31 67.22 L 72.65 67.36 Z M 72.65 64.66 L 71.94 64.96 L 71.64 65.67 L 71.94 66.39 L 72.65 66.69 L 73.37 66.39 L 73.66 65.67 L 73.37 64.96 L 72.65 64.66 Z" fill="#d1d3d4" fill-rule="nonzero" group-id="48" id="路径_9520" node-id="49" stroke="none" target-height="3.369999" target-width="3.369995" target-x="70.97" target-y="63.99"></path></g><g node-id="150"><path d="M 110.26 66.80 L 77.61 66.80 L 77.37 66.71 L 77.27 66.47 L 77.27 64.88 L 77.37 64.64 L 77.61 64.54 L 110.26 64.54 L 110.49 64.64 L 110.59 64.88 L 110.59 66.45 L 110.50 66.70 L 110.26 66.80 Z M 77.95 66.13 L 109.93 66.13 L 109.93 65.22 L 77.94 65.22 Z" fill="#d1d3d4" fill-rule="nonzero" group-id="49" id="路径_9521" node-id="50" stroke="none" target-height="2.2600021" target-width="33.32" target-x="77.27" target-y="64.54"></path></g><g node-id="151"><path d="M 66.08 77.07 L 109.79 77.07 L 111.32 77.28 L 112.62 77.83 L 113.76 78.71 L 114.64 79.85 L 115.19 81.16 L 115.40 82.68 L 115.40 87.03 L 115.19 88.55 L 114.64 89.86 L 113.76 90.99 L 112.62 91.88 L 111.32 92.42 L 109.79 92.64 L 66.08 92.64 L 64.55 92.42 L 63.25 91.88 L 62.11 90.99 L 61.23 89.86 L 60.68 88.55 L 60.47 87.03 L 60.47 82.68 L 60.68 81.16 L 61.23 79.85 L 62.11 78.71 L 63.25 77.83 L 64.55 77.28 L 66.08 77.07 Z" fill="#ffffff" fill-rule="nonzero" group-id="50" id="矩形_3298" node-id="51" stroke="none" target-height="15.57" target-width="54.93" target-x="60.47" target-y="77.07"></path></g><g node-id="152"><path d="M 111.63 92.98 L 64.25 92.98 L 62.63 92.65 L 61.33 91.77 L 60.45 90.48 L 60.12 88.86 L 60.12 80.85 L 60.45 79.24 L 61.33 77.94 L 62.63 77.06 L 64.25 76.73 L 111.63 76.73 L 113.25 77.06 L 114.54 77.94 L 115.42 79.24 L 115.76 80.85 L 115.76 88.85 L 115.43 90.47 L 114.55 91.77 L 113.25 92.65 L 111.63 92.98 Z M 64.25 77.42 L 62.90 77.69 L 61.82 78.43 L 61.09 79.51 L 60.82 80.85 L 60.82 88.85 L 61.09 90.20 L 61.82 91.28 L 62.90 92.01 L 64.25 92.29 L 111.63 92.29 L 112.97 92.01 L 114.05 91.28 L 114.79 90.20 L 115.06 88.85 L 115.06 80.85 L 114.79 79.51 L 114.05 78.43 L 112.97 77.70 L 111.63 77.42 Z" fill="#231f20" fill-rule="nonzero" group-id="51" id="路径_9522" node-id="52" stroke="none" target-height="16.25" target-width="55.640003" target-x="60.12" target-y="76.73"></path></g><g node-id="153"><path d="M 66.96 86.54 L 66.30 86.40 L 65.77 86.05 L 65.42 85.51 L 65.28 84.85 L 65.42 84.20 L 65.77 83.66 L 66.30 83.31 L 66.96 83.17 L 67.62 83.31 L 68.15 83.66 L 68.51 84.20 L 68.65 84.85 L 68.51 85.51 L 68.15 86.05 L 67.62 86.40 L 66.96 86.54 Z M 66.96 83.85 L 66.25 84.14 L 65.95 84.86 L 66.25 85.57 L 66.96 85.87 L 67.68 85.57 L 67.97 84.86 L 67.68 84.14 L 66.96 83.85 Z" fill="#d1d3d4" fill-rule="nonzero" group-id="52" id="路径_9523" node-id="53" stroke="none" target-height="3.3700027" target-width="3.3700027" target-x="65.28" target-y="83.17"></path></g><g node-id="154"><path d="M 72.65 86.54 L 71.99 86.40 L 71.46 86.05 L 71.11 85.51 L 70.97 84.85 L 71.11 84.20 L 71.46 83.66 L 71.99 83.31 L 72.65 83.17 L 73.31 83.31 L 73.84 83.66 L 74.20 84.20 L 74.34 84.85 L 74.20 85.51 L 73.84 86.05 L 73.31 86.40 L 72.65 86.54 Z M 72.65 83.85 L 71.94 84.14 L 71.64 84.86 L 71.94 85.57 L 72.65 85.87 L 73.37 85.57 L 73.66 84.86 L 73.37 84.14 L 72.65 83.85 Z" fill="#d1d3d4" fill-rule="nonzero" group-id="53" id="路径_9524" node-id="54" stroke="none" target-height="3.3700027" target-width="3.369995" target-x="70.97" target-y="83.17"></path></g><g node-id="155"><path d="M 110.26 85.97 L 77.61 85.97 L 77.37 85.87 L 77.27 85.63 L 77.27 84.04 L 77.37 83.80 L 77.61 83.70 L 110.26 83.70 L 110.49 83.80 L 110.59 84.04 L 110.59 85.63 L 110.49 85.86 L 110.26 85.97 Z M 77.95 85.29 L 109.93 85.29 L 109.93 84.38 L 77.94 84.38 Z" fill="#d1d3d4" fill-rule="nonzero" group-id="54" id="路径_9525" node-id="55" stroke="none" target-height="2.2700043" target-width="33.32" target-x="77.27" target-y="83.7"></path></g><g node-id="156"><path d="M 66.08 96.25 L 109.79 96.25 L 111.32 96.47 L 112.62 97.01 L 113.76 97.89 L 114.64 99.03 L 115.19 100.34 L 115.40 101.86 L 115.40 106.21 L 115.19 107.73 L 114.64 109.04 L 113.76 110.17 L 112.62 111.06 L 111.32 111.60 L 109.79 111.82 L 66.08 111.82 L 64.55 111.60 L 63.25 111.06 L 62.11 110.17 L 61.23 109.04 L 60.68 107.73 L 60.47 106.21 L 60.47 101.86 L 60.68 100.34 L 61.23 99.03 L 62.11 97.89 L 63.25 97.01 L 64.55 96.47 L 66.08 96.25 Z" fill="#ffffff" fill-rule="nonzero" group-id="55" id="矩形_3299" node-id="56" stroke="none" target-height="15.57" target-width="54.93" target-x="60.47" target-y="96.25"></path></g><g node-id="157"><path d="M 111.63 112.17 L 64.25 112.17 L 62.63 111.84 L 61.33 110.96 L 60.45 109.66 L 60.12 108.04 L 60.12 100.04 L 60.45 98.42 L 61.33 97.12 L 62.63 96.24 L 64.25 95.91 L 111.63 95.91 L 113.25 96.24 L 114.54 97.12 L 115.42 98.42 L 115.76 100.04 L 115.76 108.04 L 115.43 109.66 L 114.55 110.96 L 113.25 111.84 L 111.63 112.17 Z M 64.25 96.60 L 62.90 96.88 L 61.82 97.61 L 61.09 98.69 L 60.82 100.03 L 60.82 108.04 L 61.09 109.38 L 61.82 110.46 L 62.90 111.19 L 64.25 111.47 L 111.63 111.47 L 112.97 111.19 L 114.05 110.46 L 114.79 109.38 L 115.06 108.04 L 115.06 100.04 L 114.79 98.69 L 114.05 97.61 L 112.97 96.88 L 111.63 96.61 Z" fill="#231f20" fill-rule="nonzero" group-id="56" id="路径_9526" node-id="57" stroke="none" target-height="16.259995" target-width="55.640003" target-x="60.12" target-y="95.91"></path></g><g node-id="158"><path d="M 66.96 105.72 L 66.30 105.58 L 65.77 105.23 L 65.42 104.70 L 65.28 104.04 L 65.42 103.38 L 65.77 102.85 L 66.30 102.49 L 66.96 102.35 L 67.62 102.49 L 68.15 102.85 L 68.51 103.38 L 68.65 104.04 L 68.51 104.70 L 68.15 105.23 L 67.62 105.58 L 66.96 105.72 Z M 66.96 103.03 L 66.25 103.32 L 65.95 104.04 L 66.25 104.75 L 66.96 105.05 L 67.68 104.75 L 67.97 104.04 L 67.68 103.32 L 66.96 103.03 Z" fill="#d1d3d4" fill-rule="nonzero" group-id="57" id="路径_9527" node-id="58" stroke="none" target-height="3.3700027" target-width="3.3700027" target-x="65.28" target-y="102.35"></path></g><g node-id="159"><path d="M 72.65 105.72 L 71.99 105.58 L 71.46 105.23 L 71.11 104.70 L 70.97 104.04 L 71.11 103.38 L 71.46 102.85 L 71.99 102.49 L 72.65 102.35 L 73.31 102.49 L 73.84 102.85 L 74.20 103.38 L 74.34 104.04 L 74.20 104.70 L 73.84 105.23 L 73.31 105.58 L 72.65 105.72 Z M 72.65 103.03 L 71.94 103.32 L 71.64 104.04 L 71.94 104.75 L 72.65 105.05 L 73.37 104.75 L 73.66 104.04 L 73.37 103.32 L 72.65 103.03 Z" fill="#d1d3d4" fill-rule="nonzero" group-id="58" id="路径_9528" node-id="59" stroke="none" target-height="3.3700027" target-width="3.369995" target-x="70.97" target-y="102.35"></path></g><g node-id="160"><path d="M 110.26 105.17 L 77.61 105.17 L 77.37 105.07 L 77.27 104.83 L 77.27 103.24 L 77.37 103.00 L 77.61 102.91 L 110.26 102.91 L 110.49 103.00 L 110.59 103.24 L 110.59 104.81 L 110.50 105.06 L 110.26 105.17 Z M 77.95 104.49 L 109.93 104.49 L 109.93 103.58 L 77.94 103.58 Z" fill="#d1d3d4" fill-rule="nonzero" group-id="59" id="路径_9529" node-id="60" stroke="none" target-height="2.2599945" target-width="33.32" target-x="77.27" target-y="102.91"></path></g><g node-id="161"><path d="M 65.90 111.82 L 71.59 111.82 L 71.59 114.13 L 65.90 114.13 Z" fill="#231f20" fill-rule="nonzero" group-id="60" id="矩形_3300" node-id="61" stroke="none" target-height="2.3099976" target-width="5.689995" target-x="65.9" target-y="111.82"></path></g><g node-id="162"><path d="M 71.59 114.48 L 65.90 114.48 L 65.66 114.38 L 65.56 114.14 L 65.56 111.82 L 65.66 111.57 L 65.90 111.47 L 71.59 111.47 L 71.84 111.57 L 71.94 111.82 L 71.94 114.14 L 71.84 114.38 L 71.59 114.48 Z M 66.25 113.81 L 71.25 113.81 L 71.25 112.19 L 66.25 112.19 Z" fill="#231f20" fill-rule="nonzero" group-id="61" id="路径_9530" node-id="62" stroke="none" target-height="3.0100021" target-width="6.380005" target-x="65.56" target-y="111.47"></path></g><g node-id="163"><path d="M 104.28 111.82 L 109.97 111.82 L 109.97 114.13 L 104.28 114.13 Z" fill="#231f20" fill-rule="nonzero" group-id="62" id="矩形_3301" node-id="63" stroke="none" target-height="2.3099976" target-width="5.6900024" target-x="104.28" target-y="111.82"></path></g><g node-id="164"><path d="M 109.97 114.48 L 104.28 114.48 L 104.04 114.38 L 103.94 114.14 L 103.94 111.82 L 104.04 111.57 L 104.28 111.47 L 109.97 111.47 L 110.21 111.57 L 110.32 111.82 L 110.32 114.14 L 110.21 114.38 L 109.97 114.48 Z M 104.63 113.81 L 109.62 113.81 L 109.62 112.19 L 104.63 112.19 Z" fill="#231f20" fill-rule="nonzero" group-id="63" id="路径_9531" node-id="64" stroke="none" target-height="3.0100021" target-width="6.3799973" target-x="103.94" target-y="111.47"></path></g><g node-id="165"><path d="M 193.91 96.38 L 185.32 96.38 L 185.08 96.28 L 184.98 96.04 L 184.98 89.22 L 185.08 88.98 L 185.32 88.88 L 193.91 88.88 L 194.15 88.98 L 194.25 89.22 L 194.25 96.06 L 194.14 96.29 L 193.91 96.38 Z M 185.65 95.70 L 193.58 95.70 L 193.58 89.55 L 185.65 89.55 Z" fill="#d1d3d4" fill-rule="nonzero" group-id="64" id="路径_9532" node-id="65" stroke="none" target-height="7.5" target-width="9.270004" target-x="184.98" target-y="88.88"></path></g><g node-id="166"><path d="M 189.62 94.77 L 188.99 94.68 L 188.42 94.41 L 187.96 93.99 L 187.63 93.45 L 187.47 92.83 L 187.51 92.20 L 187.71 91.62 L 188.09 91.10 L 188.61 90.72 L 189.19 90.52 L 189.82 90.48 L 190.44 90.64 L 190.98 90.97 L 191.40 91.43 L 191.67 92.00 L 191.76 92.63 L 191.59 93.47 L 191.13 94.14 L 190.46 94.60 L 189.62 94.77 Z M 189.62 91.16 L 188.80 91.40 L 188.25 92.06 L 188.17 92.91 L 188.57 93.67 L 189.32 94.07 L 190.17 93.99 L 190.84 93.45 L 191.09 92.63 L 190.97 92.05 L 190.66 91.59 L 190.19 91.27 L 189.62 91.16 Z" fill="#d1d3d4" fill-rule="nonzero" group-id="65" id="路径_9533" node-id="66" stroke="none" target-height="4.2899933" target-width="4.2899933" target-x="187.47" target-y="90.48"></path></g><g node-id="167"><path d="M 35.12 5.16 L 34.53 4.51 L 33.77 4.09 L 33.34 4.02 L 32.94 4.12 L 32.61 4.35 L 32.37 4.72 L 31.57 3.80 L 30.60 3.14 L 29.43 2.70 L 27.55 2.44 L 25.64 2.60 L 23.63 3.07 L 21.91 3.74 L 20.47 4.59 L 19.25 5.70 L 18.26 7.21 L 17.49 9.18 L 17.00 11.62 L 16.40 14.02 L 15.31 16.19 L 13.97 18.21 L 13.78 18.71 L 14.07 19.17 L 15.03 20.01 L 16.17 20.61 L 17.03 20.76 L 17.81 20.62 L 18.57 20.18 L 18.33 20.62 L 18.25 21.09 L 18.33 21.56 L 18.57 22.00 L 19.31 22.65 L 20.22 23.04 L 22.34 23.49 L 24.52 23.53 L 26.77 23.18 L 28.94 22.47 L 30.90 21.49 L 32.65 20.24 L 34.55 18.22 L 35.98 15.93 L 36.96 13.32 L 37.30 11.07 L 37.08 9.04 L 36.36 7.12 L 35.12 5.16 Z" fill="#ffffff" fill-rule="nonzero" group-id="66" id="路径_9534" node-id="67" stroke="none" target-height="21.09" target-width="23.52" target-x="13.78" target-y="2.44"></path></g><g node-id="168"><path d="M 23.68 23.91 L 21.90 23.78 L 20.17 23.37 L 19.18 22.93 L 18.35 22.21 L 18.05 21.62 L 17.95 20.96 L 17.02 21.11 L 16.09 20.96 L 14.89 20.33 L 13.86 19.44 L 13.47 18.76 L 13.71 18.04 L 14.15 17.41 L 15.24 15.73 L 16.12 13.92 L 16.79 11.23 L 17.23 9.14 L 18.12 6.91 L 19.25 5.33 L 20.68 4.12 L 22.25 3.27 L 23.94 2.70 L 25.64 2.31 L 27.36 2.16 L 29.22 2.34 L 30.96 2.98 L 32.37 4.16 L 32.66 3.94 L 33.26 3.75 L 33.89 3.81 L 34.72 4.29 L 35.37 4.99 L 36.74 7.15 L 37.48 9.16 L 37.71 11.24 L 37.39 13.46 L 36.39 16.12 L 34.93 18.47 L 32.98 20.54 L 30.89 21.98 L 28.62 23.03 L 26.20 23.68 L 23.68 23.91 Z M 18.59 19.87 L 18.83 19.96 L 18.92 20.20 L 18.83 20.43 L 18.62 21.14 L 18.88 21.83 L 19.57 22.37 L 20.38 22.70 L 22.33 23.13 L 24.39 23.19 L 26.58 22.88 L 28.71 22.22 L 30.67 21.25 L 32.49 19.96 L 34.35 17.99 L 35.74 15.76 L 36.70 13.22 L 37.01 11.16 L 36.81 9.23 L 36.12 7.36 L 34.84 5.34 L 34.84 5.34 L 34.34 4.78 L 33.70 4.40 L 32.98 4.47 L 32.72 4.79 L 32.44 5.04 L 32.11 4.89 L 31.30 3.99 L 30.34 3.36 L 29.21 2.97 L 27.41 2.76 L 25.74 2.91 L 23.51 3.46 L 21.78 4.18 L 20.45 5.03 L 19.35 6.15 L 18.48 7.54 L 17.85 9.26 L 17.42 11.28 L 16.75 14.11 L 15.86 15.99 L 14.74 17.74 L 14.26 18.39 L 14.13 18.68 L 14.32 18.94 L 15.22 19.72 L 16.28 20.28 L 17.36 20.38 L 18.34 19.93 L 18.58 19.85 Z" fill="#231f20" fill-rule="nonzero" group-id="67" id="路径_9535" node-id="68" stroke="none" target-height="21.75" target-width="24.239998" target-x="13.47" target-y="2.16"></path></g><g node-id="169"><path d="M 34.91 13.08 L 35.52 14.02 L 36.57 15.89 L 36.91 16.83 L 36.88 17.32 L 36.37 17.68 L 35.65 17.75 L 34.78 17.62" fill="#ffffff" fill-rule="nonzero" group-id="68" id="路径_9536" node-id="69" stroke="none" target-height="4.67" target-width="2.130001" target-x="34.78" target-y="13.08"></path></g><g node-id="170"><path d="M 35.79 18.10 L 34.71 17.95 L 34.45 17.70 L 34.54 17.36 L 34.89 17.28 L 35.82 17.40 L 36.32 17.33 L 36.61 17.12 L 36.61 16.70 L 36.18 15.68 L 34.65 13.25 L 34.60 13.00 L 34.73 12.78 L 34.99 12.73 L 35.20 12.86 L 36.17 14.36 L 37.07 16.15 L 37.27 16.97 L 37.18 17.48 L 36.57 17.97 L 35.79 18.10 Z" fill="#231f20" fill-rule="nonzero" group-id="69" id="路径_9537" node-id="70" stroke="none" target-height="5.370001" target-width="2.8199997" target-x="34.45" target-y="12.73"></path></g><g node-id="171"><path d="M 34.29 8.40 L 35.11 9.50 L 35.45 10.94 L 35.48 13.85 L 35.43 20.93 L 35.15 21.55 L 34.37 22.00 L 33.38 22.25 L 32.31 22.34 L 31.32 22.28 L 30.82 22.12 L 31.57 28.02 L 30.25 28.13 L 28.84 27.95 L 26.57 27.21 L 24.53 26.19 L 23.78 25.64 L 23.36 25.10 L 23.45 18.27 L 24.75 17.93 L 25.89 17.27 L 26.81 16.33 L 27.45 15.15 L 28.04 13.51 L 28.42 11.76 L 28.70 8.71 L 28.71 7.38 L 29.83 7.38 L 32.18 7.61 L 33.40 7.93 L 34.29 8.40 Z" fill="#ffffff" fill-rule="nonzero" group-id="70" id="路径_9538" node-id="71" stroke="none" target-height="20.75" target-width="12.119999" target-x="23.36" target-y="7.38"></path></g><g node-id="172"><path d="M 30.51 28.47 L 28.42 28.20 L 26.43 27.51 L 24.45 26.51 L 23.61 25.92 L 23.10 25.35 L 23.02 25.11 L 23.11 18.26 L 23.21 18.03 L 23.44 17.93 L 24.65 17.61 L 25.70 16.98 L 26.55 16.10 L 27.14 15.00 L 27.71 13.41 L 28.08 11.71 L 28.37 8.71 L 28.39 7.38 L 28.48 7.14 L 28.72 7.04 L 29.95 7.05 L 32.35 7.31 L 33.59 7.65 L 34.52 8.14 L 34.52 8.14 L 35.32 9.11 L 35.71 10.33 L 35.86 12.94 L 35.86 13.84 L 35.82 20.94 L 35.55 21.66 L 34.95 22.13 L 33.15 22.62 L 31.27 22.60 L 31.95 27.98 L 31.71 28.34 L 30.51 28.47 Z M 23.68 25.04 L 24.27 25.61 L 26.68 26.89 L 28.87 27.63 L 31.18 27.75 L 30.50 22.17 L 30.65 21.85 L 31.00 21.84 L 32.82 21.98 L 34.59 21.54 L 34.99 21.23 L 35.10 20.93 L 35.15 13.86 L 35.15 12.93 L 35.04 10.57 L 34.73 9.49 L 34.09 8.67 L 33.11 8.20 L 31.67 7.88 L 29.05 7.71 L 28.95 10.30 L 28.51 12.83 L 27.75 15.30 L 27.11 16.50 L 26.20 17.48 L 25.08 18.18 L 23.78 18.59 Z" fill="#231f20" fill-rule="nonzero" group-id="71" id="路径_9539" node-id="72" stroke="none" target-height="21.43" target-width="12.84" target-x="23.02" target-y="7.04"></path></g><g node-id="173"><path d="M 35.33 19.17 L 34.58 19.50 L 33.76 19.48 L 33.03 19.13 L 32.51 18.50" fill="#ffffff" fill-rule="nonzero" group-id="72" id="路径_9540" node-id="73" stroke="none" target-height="1" target-width="2.8200035" target-x="32.51" target-y="18.5"></path></g><g node-id="174"><path d="M 34.10 19.88 L 33.60 19.81 L 32.78 19.39 L 32.21 18.66 L 32.18 18.41 L 32.34 18.21 L 32.60 18.18 L 32.80 18.34 L 33.20 18.85 L 33.77 19.16 L 34.48 19.15 L 35.15 18.89 L 35.40 18.84 L 35.61 18.99 L 35.66 19.24 L 35.52 19.46 L 34.84 19.76 L 34.10 19.88 Z" fill="#231f20" fill-rule="nonzero" group-id="73" id="路径_9541" node-id="74" stroke="none" target-height="1.6999989" target-width="3.4799995" target-x="32.18" target-y="18.18"></path></g><g node-id="175"><path d="M 30.41 14.71 L 30.18 13.86 L 29.73 13.11 L 28.85 12.06 L 28.25 11.73 L 27.57 11.70 L 27.04 11.98 L 26.66 12.45 L 26.40 13.63 L 26.55 14.96 L 27.03 16.17 L 27.80 17.22 L 28.84 18.06 L 28.71 17.92" fill="#ffffff" fill-rule="nonzero" group-id="74" id="路径_9542" node-id="75" stroke="none" target-height="6.3599997" target-width="4.01" target-x="26.4" target-y="11.7"></path></g><g node-id="176"><path d="M 28.83 18.40 L 28.66 18.35 L 27.55 17.46 L 26.73 16.34 L 26.21 15.05 L 26.05 13.64 L 26.35 12.30 L 26.81 11.71 L 27.48 11.37 L 28.31 11.40 L 29.04 11.79 L 29.99 12.92 L 30.50 13.75 L 30.75 14.69 L 30.67 14.93 L 30.43 15.04 L 30.19 14.95 L 30.08 14.72 L 29.84 13.96 L 29.41 13.29 L 28.60 12.32 L 28.13 12.06 L 27.60 12.03 L 27.20 12.25 L 26.93 12.61 L 26.70 13.64 L 26.83 14.80 L 27.22 15.87 L 27.86 16.81 L 28.73 17.59 L 28.95 17.69 L 29.08 17.83 L 29.08 18.26 L 28.83 18.40 Z" fill="#231f20" fill-rule="nonzero" group-id="75" id="路径_9543" node-id="76" stroke="none" target-height="7.0299997" target-width="4.700001" target-x="26.05" target-y="11.37"></path></g><g node-id="177"><path d="M 30.82 22.12 L 29.19 21.37 L 27.83 20.20 L 28.00 21.16 L 28.31 22.07 L 28.91 23.14 L 29.80 24.05 L 31.16 24.75 Z" fill="#231f20" fill-rule="nonzero" group-id="76" id="路径_9544" node-id="77" stroke="none" target-height="4.549999" target-width="3.33" target-x="27.83" target-y="20.2"></path></g><g node-id="178"><path d="M 31.15 25.08 L 31.05 25.08 L 29.61 24.35 L 28.67 23.40 L 28.02 22.28 L 27.69 21.32 L 27.49 20.23 L 27.72 19.90 L 28.10 20.02 L 29.38 21.12 L 30.91 21.82 L 31.15 22.10 L 31.48 24.72 L 31.37 25.02 L 31.15 25.08 Z M 28.39 21.23 L 28.89 22.47 L 29.68 23.46 L 30.78 24.24 L 30.54 22.38 L 29.42 21.89 L 28.39 21.23 Z" fill="#231f20" fill-rule="nonzero" group-id="77" id="路径_9545" node-id="78" stroke="none" target-height="5.1800003" target-width="3.9899998" target-x="27.49" target-y="19.9"></path></g><g node-id="179"><path d="M 33.64 10.65 L 33.82 10.87 L 33.84 11.52 L 33.63 12.15 L 33.40 12.31 L 33.22 12.09 L 33.19 11.43 L 33.40 10.81 L 33.64 10.65 Z" fill="#231f20" fill-rule="nonzero" group-id="78" id="椭圆_139" node-id="79" stroke="none" target-height="1.6600008" target-width="0.6500015" target-x="33.19" target-y="10.65"></path></g><g node-id="180"><path d="M 45.99 34.14 L 44.89 34.32 L 44.09 33.96 L 43.47 33.14 L 42.87 31.63 L 42.77 30.41 L 43.09 28.64 L 43.84 26.22 L 44.79 23.87 L 45.15 23.31 L 45.69 23.15 L 46.04 23.52 L 46.08 24.07 L 45.94 27.10 L 46.94 26.71 L 47.85 26.12 L 49.57 24.77 L 50.46 24.20 L 51.41 23.83 L 52.27 23.78 L 52.59 23.96 L 52.76 24.39 L 52.56 25.01 L 51.93 25.60 L 50.64 26.49 L 51.63 25.79 L 52.72 25.27 L 53.39 25.16 L 53.70 25.32 L 53.85 25.62 L 53.61 26.12 L 52.57 27.09 L 53.23 26.53 L 54.04 26.22 L 54.48 26.21 L 54.85 26.44 L 54.91 26.73 L 54.78 27.02 L 54.24 27.48 L 54.75 27.14 L 55.34 26.94 L 55.92 27.07 L 56.26 27.56 L 56.13 28.02 L 55.82 28.38 L 54.61 29.40 L 52.94 30.56 L 49.27 32.64 L 45.99 34.14 Z" fill="#ffffff" fill-rule="nonzero" group-id="79" id="路径_9546" node-id="80" stroke="none" target-height="11.17" target-width="13.489998" target-x="42.77" target-y="23.15"></path></g><g node-id="181"><path d="M 45.09 34.66 L 44.28 34.48 L 43.70 34.05 L 43.12 33.19 L 42.55 31.72 L 42.43 30.37 L 42.76 28.54 L 43.51 26.09 L 44.47 23.71 L 45.10 22.90 L 45.79 22.81 L 46.23 23.15 L 46.41 24.06 L 46.33 25.36 L 46.26 26.62 L 47.44 25.97 L 48.50 25.15 L 49.82 24.16 L 51.33 23.48 L 52.02 23.40 L 52.68 23.59 L 52.95 23.93 L 53.05 24.35 L 52.99 24.82 L 53.43 24.82 L 53.93 25.09 L 54.16 25.60 L 54.16 25.85 L 54.72 25.91 L 55.15 26.25 L 55.26 26.60 L 55.31 26.60 L 55.81 26.64 L 56.25 26.87 L 56.61 27.55 L 56.47 28.15 L 56.08 28.64 L 54.84 29.69 L 53.14 30.86 L 49.43 32.97 L 46.13 34.47 L 46.13 34.47 L 45.09 34.66 Z M 45.99 34.13 Z M 45.55 23.45 L 45.35 23.57 L 45.10 23.99 L 44.16 26.31 L 43.42 28.70 L 43.11 30.42 L 43.19 31.52 L 43.93 33.23 L 44.59 33.87 L 45.24 33.98 L 45.87 33.82 L 45.87 33.82 L 49.14 32.31 L 52.77 30.24 L 54.41 29.11 L 55.58 28.12 L 55.91 27.57 L 55.80 27.37 L 55.36 27.24 L 54.76 27.49 L 54.39 27.75 L 54.15 27.78 L 53.95 27.63 L 53.90 27.39 L 54.03 27.18 L 54.35 26.95 L 54.56 26.67 L 54.56 26.59 L 54.11 26.52 L 53.44 26.79 L 52.76 27.33 L 52.31 27.30 L 52.23 27.07 L 52.31 26.85 L 52.99 26.25 L 53.34 25.87 L 53.50 25.61 L 53.32 25.47 L 52.80 25.56 L 52.02 25.90 L 51.40 26.32 L 50.83 26.72 L 50.59 26.78 L 50.37 26.67 L 50.29 26.43 L 50.39 26.21 L 51.65 25.34 L 52.21 24.82 L 52.39 24.39 L 52.29 24.13 L 52.14 24.07 L 51.48 24.13 L 50.11 24.76 L 48.92 25.67 L 47.56 26.70 L 46.01 27.41 L 45.72 27.35 L 45.59 27.09 L 45.66 25.31 L 45.73 24.04 L 45.67 23.55 L 45.57 23.45 Z" fill="#231f20" fill-rule="nonzero" group-id="80" id="路径_9547" node-id="81" stroke="none" target-height="11.85" target-width="14.18" target-x="42.43" target-y="22.81"></path></g><g node-id="182"><path d="M 46.03 27.18 L 46.59 28.18 L 46.79 29.26 L 46.62 30.35 L 46.09 31.36 L 46.30 31.36" fill="#ffffff" fill-rule="nonzero" group-id="81" id="路径_9548" node-id="82" stroke="none" target-height="4.1800003" target-width="0.76000214" target-x="46.03" target-y="27.18"></path></g><g node-id="183"><path d="M 46.09 31.70 L 45.78 31.51 L 45.83 31.15 L 46.31 30.24 L 46.45 29.27 L 46.28 28.30 L 45.77 27.40 L 45.68 27.16 L 45.77 26.92 L 46.01 26.83 L 46.24 26.92 L 46.83 27.91 L 47.08 29.00 L 47.00 30.11 L 46.57 31.18 L 46.57 31.30 L 46.49 31.54 L 46.26 31.65 L 46.05 31.65 Z" fill="#231f20" fill-rule="nonzero" group-id="82" id="路径_9549" node-id="83" stroke="none" target-height="4.870001" target-width="1.4000015" target-x="45.68" target-y="26.83"></path></g><g node-id="184"><path d="M 51.60 15.96 L 95.32 15.96 L 96.84 16.17 L 98.15 16.72 L 99.28 17.60 L 100.17 18.74 L 100.71 20.04 L 100.93 21.57 L 100.93 25.91 L 100.71 27.44 L 100.17 28.74 L 99.28 29.88 L 98.15 30.76 L 96.84 31.31 L 95.32 31.53 L 51.60 31.53 L 50.07 31.31 L 48.77 30.76 L 47.63 29.88 L 46.75 28.74 L 46.20 27.44 L 45.99 25.91 L 45.99 21.57 L 46.20 20.04 L 46.75 18.74 L 47.63 17.60 L 48.77 16.72 L 50.07 16.17 L 51.60 15.96 Z" fill="#ffffff" fill-rule="nonzero" group-id="83" id="矩形_3302" node-id="84" stroke="none" target-height="15.570001" target-width="54.94" target-x="45.99" target-y="15.96"></path></g><g node-id="185"><path d="M 97.15 31.88 L 49.76 31.88 L 48.15 31.54 L 46.85 30.66 L 45.97 29.36 L 45.64 27.75 L 45.64 19.73 L 45.97 18.12 L 46.85 16.82 L 48.15 15.94 L 49.76 15.61 L 97.15 15.61 L 98.77 15.94 L 100.07 16.82 L 100.94 18.12 L 101.27 19.73 L 101.27 27.75 L 100.94 29.36 L 100.06 30.66 L 98.77 31.54 L 97.15 31.87 Z M 49.76 16.31 L 48.42 16.58 L 47.34 17.31 L 46.61 18.39 L 46.34 19.73 L 46.34 27.75 L 46.61 29.09 L 47.34 30.17 L 48.42 30.90 L 49.76 31.17 L 97.15 31.17 L 98.50 30.90 L 99.57 30.17 L 100.30 29.09 L 100.58 27.75 L 100.58 19.73 L 100.30 18.39 L 99.57 17.31 L 98.50 16.58 L 97.15 16.31 Z" fill="#231f20" fill-rule="nonzero" group-id="84" id="路径_9550" node-id="85" stroke="none" target-height="16.27" target-width="55.629997" target-x="45.64" target-y="15.61"></path></g><g node-id="186"><path d="M 52.49 25.43 L 51.55 25.15 L 50.92 24.39 L 50.83 23.41 L 51.29 22.55 L 52.15 22.08 L 53.13 22.18 L 53.89 22.80 L 54.17 23.74 L 54.04 24.40 L 53.68 24.93 L 53.15 25.29 L 52.49 25.43 Z M 52.49 22.73 L 52.62 23.02 L 52.92 23.14 L 53.21 23.01 L 53.33 22.72 L 53.21 22.42 L 52.92 22.30 L 52.62 22.41 L 52.49 22.70 Z" fill="#d1d3d4" fill-rule="nonzero" group-id="85" id="路径_9551" node-id="86" stroke="none" target-height="3.3500004" target-width="3.3399963" target-x="50.83" target-y="22.08"></path></g><g node-id="187"><path d="M 58.17 25.43 L 57.23 25.15 L 56.61 24.39 L 56.51 23.41 L 56.97 22.55 L 57.83 22.08 L 58.81 22.18 L 59.57 22.80 L 59.85 23.74 L 59.72 24.40 L 59.36 24.93 L 58.83 25.29 L 58.17 25.43 Z M 58.17 22.73 L 58.30 23.02 L 58.60 23.14 L 58.89 23.01 L 59.01 22.72 L 58.89 22.42 L 58.60 22.30 L 58.30 22.41 L 58.17 22.70 Z" fill="#d1d3d4" fill-rule="nonzero" group-id="86" id="路径_9552" node-id="87" stroke="none" target-height="3.3500004" target-width="3.3400002" target-x="56.51" target-y="22.08"></path></g><g node-id="188"><path d="M 95.77 24.87 L 63.13 24.87 L 62.89 24.77 L 62.79 24.53 L 62.79 22.95 L 62.89 22.71 L 63.13 22.61 L 95.77 22.61 L 96.01 22.71 L 96.11 22.95 L 96.11 24.53 L 96.01 24.77 L 95.77 24.87 Z M 63.47 24.20 L 95.44 24.20 L 95.44 23.29 L 63.47 23.29 Z" fill="#d1d3d4" fill-rule="nonzero" group-id="87" id="路径_9553" node-id="88" stroke="none" target-height="2.2600002" target-width="33.32" target-x="62.79" target-y="22.61"></path></g><g node-id="189"><path d="M 12.83 117.75 L 12.15 122.52 L 13.68 122.43 L 17.30 122.18 L 21.58 121.78 L 25.08 121.25 L 26.21 120.87 L 26.36 120.61 L 25.90 120.07 L 24.93 119.42 L 22.80 118.40 L 21.71 117.97" fill="#ffffff" fill-rule="nonzero" group-id="88" id="路径_9554" node-id="89" stroke="none" target-height="4.7699966" target-width="14.210001" target-x="12.15" target-y="117.75"></path></g><g node-id="190"><path d="M 12.18 122.85 L 11.93 122.75 L 11.84 122.48 L 12.51 117.70 L 12.64 117.48 L 12.89 117.42 L 13.11 117.55 L 13.18 117.80 L 12.58 122.16 L 18.54 121.74 L 23.46 121.20 L 25.30 120.86 L 26.04 120.62 L 25.42 120.08 L 24.19 119.37 L 21.64 118.28 L 21.46 118.11 L 21.46 117.86 L 21.62 117.67 L 21.87 117.65 L 23.20 118.17 L 25.32 119.22 L 26.25 119.89 L 26.72 120.47 L 26.72 120.92 L 26.22 121.25 L 24.75 121.66 L 20.78 122.22 L 16.16 122.62 L 12.25 122.85 Z" fill="#231f20" fill-rule="nonzero" group-id="89" id="路径_9555" node-id="90" stroke="none" target-height="5.4300003" target-width="14.879999" target-x="11.84" target-y="117.42"></path></g><g node-id="191"><path d="M 43.01 32.49 L 44.21 33.62 L 47.11 36.02 L 48.90 37.25 L 50.69 38.23 L 52.49 38.81 L 53.92 38.77 L 56.70 37.65 L 60.73 35.75 L 64.39 33.92 L 66.04 33.02 L 68.00 28.98 L 68.37 28.57 L 68.86 28.31 L 69.52 28.43 L 69.69 28.97 L 69.54 29.75 L 69.18 30.66 L 68.43 31.92 L 73.35 29.11 L 73.92 29.02 L 74.12 29.28 L 74.09 29.61 L 73.64 30.11 L 70.76 32.38 L 73.39 30.53 L 74.19 30.11 L 74.67 30.00 L 75.00 30.13 L 75.05 30.52 L 74.61 31.21 L 73.16 32.60 L 72.01 33.49 L 73.35 32.42 L 74.81 31.53 L 75.26 31.35 L 75.75 31.33 L 75.74 31.65 L 75.47 31.95 L 73.48 33.47 L 75.04 32.45 L 76.85 31.98 L 76.52 32.48 L 72.06 36.26 L 67.52 39.92 L 63.35 42.99 L 61.14 44.48 L 58.86 45.76 L 56.48 46.72 L 54.02 47.21 L 52.05 47.20 L 50.23 46.90 L 48.52 46.30 L 46.09 45.01 L 43.80 43.35 L 39.59 39.56" fill="#ffffff" fill-rule="nonzero" group-id="90" id="路径_9556" node-id="91" stroke="none" target-height="18.9" target-width="37.26" target-x="39.59" target-y="28.31"></path></g><g node-id="192"><path d="M 53.01 47.60 L 50.41 47.30 L 48.01 46.47 L 45.77 45.24 L 43.66 43.71 L 39.79 40.27 L 39.31 39.82 L 39.21 39.58 L 39.31 39.34 L 39.55 39.25 L 39.78 39.34 L 40.27 39.80 L 44.34 43.41 L 46.51 44.94 L 48.80 46.11 L 51.24 46.80 L 53.96 46.90 L 55.93 46.54 L 57.85 45.88 L 59.74 44.93 L 62.46 43.20 L 65.11 41.27 L 67.30 39.67 L 69.97 37.60 L 72.54 35.39 L 76.03 32.43 L 74.79 33.00 L 73.67 33.78 L 73.43 33.82 L 73.23 33.69 L 73.16 33.46 L 73.27 33.24 L 75.23 31.73 L 74.97 31.86 L 73.62 32.64 L 72.19 33.78 L 71.94 33.84 L 71.73 33.72 L 71.64 33.49 L 71.73 33.26 L 73.17 32.11 L 74.45 30.83 L 74.69 30.35 L 74.63 30.35 L 73.56 30.82 L 71.64 32.10 L 70.92 32.68 L 70.67 32.75 L 70.44 32.63 L 70.37 32.38 L 70.49 32.15 L 71.23 31.56 L 73.37 29.88 L 73.72 29.51 L 73.72 29.35 L 73.44 29.45 L 68.56 32.23 L 68.13 32.17 L 68.13 31.73 L 68.68 30.83 L 69.19 29.62 L 69.26 28.74 L 68.86 28.68 L 68.19 29.20 L 67.00 31.62 L 66.26 33.22 L 64.46 34.27 L 60.64 36.16 L 56.55 38.06 L 53.95 39.13 L 52.47 39.18 L 50.65 38.62 L 48.85 37.67 L 47.04 36.46 L 44.07 34.03 L 42.72 32.75 L 42.61 32.42 L 42.86 32.18 L 43.19 32.27 L 44.40 33.41 L 47.24 35.77 L 48.98 36.97 L 50.70 37.93 L 52.42 38.50 L 53.77 38.48 L 56.37 37.43 L 60.19 35.64 L 63.78 33.86 L 65.71 32.83 L 66.38 31.35 L 67.67 28.76 L 68.15 28.27 L 68.77 27.98 L 69.39 27.98 L 69.86 28.37 L 69.99 28.87 L 69.92 29.54 L 69.40 30.91 L 73.17 28.80 L 73.60 28.65 L 74.04 28.71 L 74.40 29.13 L 74.39 29.68 L 74.84 29.67 L 75.23 29.89 L 75.39 30.40 L 75.14 31.01 L 75.81 31.01 L 76.00 31.15 L 76.05 31.74 L 76.80 31.66 L 77.02 31.76 L 77.13 31.97 L 77.00 32.43 L 76.67 32.77 L 72.95 35.90 L 70.32 38.16 L 67.66 40.23 L 65.50 41.81 L 62.87 43.72 L 60.06 45.50 L 58.09 46.49 L 56.07 47.18 L 53.99 47.57 L 53.01 47.60 Z" fill="#231f20" fill-rule="nonzero" group-id="91" id="路径_9557" node-id="92" stroke="none" target-height="19.619999" target-width="37.92" target-x="39.21" target-y="27.98"></path></g><g node-id="193"><path d="M 39.79 53.23 L 48.22 118.59 L 39.17 118.37 L 28.58 74.89 L 22.58 118.47 L 12.41 117.75 L 15.43 50.15 Z" fill="#231f20" fill-rule="nonzero" group-id="92" id="路径_9558" node-id="93" stroke="none" target-height="68.439995" target-width="35.81" target-x="12.41" target-y="50.15"></path></g><g node-id="194"><path d="M 35.79 25.74 L 51.12 35.90 L 46.71 47.49 L 44.75 46.17 L 40.06 42.91 L 34.46 38.77 L 29.74 34.82 L 28.15 33.07 L 27.72 32.12 L 27.99 31.08 L 28.92 29.91 L 30.19 28.86 L 31.71 27.86 L 34.51 26.34 L 35.79 25.74 Z" fill="#ff595e" fill-rule="nonzero" group-id="93" id="路径_9559" node-id="94" stroke="none" target-height="21.750002" target-width="23.4" target-x="27.72" target-y="25.74"></path></g><g node-id="195"><path d="M 41.94 64.87 L 41.88 62.73 L 41.68 57.30 L 41.32 50.08 L 40.78 42.58 L 40.03 36.28 L 39.46 31.52 L 39.10 29.61 L 38.43 28.04 L 37.19 26.58 L 35.59 25.42 L 33.55 24.56 L 30.22 23.86 L 26.61 23.76 L 23.05 24.21 L 20.00 25.09 L 18.15 25.99 L 16.90 26.95 L 16.11 27.98 L 15.63 29.48 L 15.10 32.42 L 14.34 39.93 L 13.82 48.78 L 13.48 57.24 L 13.31 63.58 L 13.26 66.08 Z" fill="#ff595e" fill-rule="nonzero" group-id="94" id="路径_9560" node-id="95" stroke="none" target-height="42.32" target-width="28.679998" target-x="13.26" target-y="23.76"></path></g><g node-id="196"><path d="M 39.16 118.37 L 39.11 119.41 L 39.12 121.48 L 39.23 122.47 L 39.41 122.95 L 39.78 123.07 L 41.10 123.13 L 44.67 122.95 L 48.76 122.48 L 52.05 121.78 L 53.06 121.30 L 53.19 120.93 L 52.61 120.25 L 51.42 119.53 L 48.80 118.51 L 47.45 118.11" fill="#ffffff" fill-rule="nonzero" group-id="95" id="路径_9561" node-id="96" stroke="none" target-height="5.0199966" target-width="14.079998" target-x="39.11" target-y="118.11"></path></g><g node-id="197"><path d="M 41.24 123.45 L 39.67 123.35 L 39.16 123.15 L 38.96 122.69 L 38.82 121.82 L 38.77 119.86 L 38.83 118.34 L 38.95 118.11 L 39.19 118.03 L 39.42 118.14 L 39.51 118.38 L 39.43 120.55 L 39.67 122.70 L 41.58 122.78 L 45.11 122.57 L 49.02 122.09 L 52.11 121.39 L 52.75 121.10 L 52.89 120.98 L 52.53 120.54 L 51.70 120.00 L 49.57 119.08 L 47.38 118.41 L 47.17 118.25 L 47.13 118.00 L 47.29 117.79 L 47.54 117.75 L 49.18 118.23 L 51.78 119.30 L 52.92 120.04 L 53.51 120.78 L 53.54 121.19 L 53.04 121.71 L 52.06 122.10 L 50.12 122.55 L 45.54 123.20 L 41.24 123.45 Z M 39.69 122.74 Z M 39.63 122.69 Z" fill="#231f20" fill-rule="nonzero" group-id="96" id="路径_9562" node-id="97" stroke="none" target-height="5.699997" target-width="14.77" target-x="38.77" target-y="117.75"></path></g><path d="M 46.67 47.83 L 46.50 47.77 L 44.62 46.56 L 40.64 43.90 L 36.08 40.65 L 32.48 37.67 L 32.38 37.43 L 32.48 37.19 L 32.72 37.09 L 32.95 37.19 L 36.57 40.15 L 41.16 43.41 L 45.13 46.05 L 46.86 47.17 L 47.02 47.38 L 46.97 47.63 L 46.67 47.83 Z" fill="#231f20" fill-rule="nonzero" group-id="97" id="路径_9563" node-id="98" stroke="none" target-height="10.740002" target-width="14.639999" target-x="32.38" target-y="37.09"></path></svg>