<?xml version="1.0" standalone="no"?><!DOCTYPE svg PUBLIC "-//W3C//DTD SVG 1.1//EN" "http://www.w3.org/Graphics/SVG/1.1/DTD/svg11.dtd"><svg height="136" node-id="1" sillyvg="true" template-height="136" template-width="202" version="1.1" viewBox="0 0 202 136" width="202" xmlns="http://www.w3.org/2000/svg" xmlns:xlink="http://www.w3.org/1999/xlink"><defs node-id="75"></defs><g node-id="77"><path d="M 108.51 35.95 L 201.81 35.95 L 201.81 136.00 L 108.51 136.00 Z" fill="#ffffff" fill-rule="nonzero" group-id="1" id="矩形_3316" node-id="2" stroke="none" target-height="100.05" target-width="93.299995" target-x="108.51" target-y="35.95"></path></g><g node-id="78"><path d="M 201.81 136.34 L 108.51 136.34 L 108.28 136.24 L 108.18 136.00 L 108.18 35.95 L 108.28 35.71 L 108.51 35.61 L 201.81 35.61 L 202.05 35.71 L 202.15 35.95 L 202.15 136.01 L 202.05 136.24 L 201.81 136.34 Z M 108.85 135.67 L 201.48 135.67 L 201.48 36.28 L 108.85 36.28 Z" fill="#231f20" fill-rule="nonzero" group-id="2" id="路径_9829" node-id="3" stroke="none" target-height="100.729996" target-width="93.96999" target-x="108.18" target-y="35.61"></path></g><g node-id="79"><path d="M 108.51 35.95 L 201.81 35.95 L 201.81 47.02 L 108.51 47.02 Z" fill="#ffffff" fill-rule="nonzero" group-id="3" id="矩形_3317" node-id="4" stroke="none" target-height="11.07" target-width="93.299995" target-x="108.51" target-y="35.95"></path></g><g node-id="80"><path d="M 201.81 47.36 L 108.51 47.36 L 108.28 47.26 L 108.18 47.02 L 108.18 35.95 L 108.28 35.71 L 108.51 35.61 L 201.81 35.61 L 202.05 35.71 L 202.15 35.95 L 202.15 47.02 L 202.05 47.26 L 201.81 47.36 Z M 108.85 46.69 L 201.48 46.69 L 201.48 36.28 L 108.85 36.28 Z" fill="#231f20" fill-rule="nonzero" group-id="4" id="路径_9830" node-id="5" stroke="none" target-height="11.75" target-width="93.96999" target-x="108.18" target-y="35.61"></path></g><g node-id="81"><path d="M 114.92 41.30 L 114.81 41.85 L 114.50 42.30 L 114.06 42.60 L 113.50 42.72 L 112.94 42.60 L 112.49 42.30 L 112.19 41.85 L 112.08 41.30 L 112.19 40.74 L 112.49 40.29 L 112.94 39.99 L 113.50 39.88 L 114.06 39.99 L 114.50 40.29 L 114.81 40.74 L 114.92 41.30 Z" fill="#ff595e" fill-rule="nonzero" group-id="5" id="椭圆_153" node-id="6" stroke="none" target-height="2.8400002" target-width="2.8399963" target-x="112.08" target-y="39.88"></path></g><g node-id="82"><path d="M 120.02 41.30 L 119.91 41.85 L 119.61 42.30 L 119.16 42.60 L 118.60 42.72 L 118.04 42.60 L 117.60 42.30 L 117.29 41.85 L 117.18 41.30 L 117.29 40.74 L 117.60 40.29 L 118.04 39.99 L 118.60 39.88 L 119.16 39.99 L 119.61 40.29 L 119.91 40.74 L 120.02 41.30 Z" fill="#d1d3d4" fill-rule="nonzero" group-id="6" id="椭圆_154" node-id="7" stroke="none" target-height="2.8400002" target-width="2.8399963" target-x="117.18" target-y="39.88"></path></g><g node-id="83"><path d="M 125.12 41.30 L 125.01 41.85 L 124.71 42.30 L 124.26 42.60 L 123.70 42.72 L 123.15 42.60 L 122.70 42.30 L 122.40 41.85 L 122.28 41.30 L 122.40 40.74 L 122.70 40.29 L 123.15 39.99 L 123.70 39.88 L 124.26 39.99 L 124.71 40.29 L 125.01 40.74 L 125.12 41.30 Z" fill="#d1d3d4" fill-rule="nonzero" group-id="7" id="椭圆_155" node-id="8" stroke="none" target-height="2.8400002" target-width="2.840004" target-x="122.28" target-y="39.88"></path></g><g node-id="84"><path d="M 149.28 90.62 L 147.09 90.90 L 141.78 91.47 L 135.19 91.90 L 131.91 91.92 L 129.21 91.76 L 126.85 91.28 L 125.68 90.62 L 124.83 89.47 L 123.65 87.41 L 121.23 82.33 L 118.91 76.87 L 117.17 72.50 L 116.48 70.72 L 109.08 76.83 L 109.54 79.17 L 110.87 85.04 L 113.04 92.66 L 114.44 96.60 L 115.99 100.26 L 117.82 103.60 L 119.69 106.08 L 121.15 107.38 L 122.59 108.11 L 124.07 108.36 L 127.08 108.11 L 130.87 107.47 L 138.90 105.51 L 146.58 103.20 L 152.35 101.28 L 154.62 100.48 Z" fill="#ffffff" fill-rule="nonzero" group-id="8" id="路径_9831" node-id="9" stroke="none" target-height="37.64" target-width="45.539993" target-x="109.08" target-y="70.72"></path></g><g node-id="85"><path d="M 123.99 108.69 L 122.49 108.43 L 121.03 107.70 L 119.56 106.43 L 117.67 104.00 L 115.84 100.74 L 114.28 97.16 L 112.87 93.28 L 110.68 85.71 L 109.29 79.69 L 108.75 76.88 L 108.86 76.56 L 116.26 70.45 L 116.56 70.39 L 116.79 70.59 L 117.50 72.44 L 119.25 76.80 L 121.55 82.22 L 123.93 87.24 L 125.09 89.27 L 125.91 90.39 L 127.10 91.02 L 129.67 91.47 L 132.62 91.59 L 136.23 91.51 L 143.46 90.97 L 149.22 90.28 L 149.56 90.46 L 154.91 100.29 L 154.93 100.56 L 154.74 100.76 L 152.36 101.60 L 146.55 103.54 L 138.85 105.85 L 130.84 107.81 L 127.06 108.45 L 124.07 108.69 Z M 109.45 76.96 L 110.10 80.18 L 111.52 86.18 L 113.67 93.48 L 115.02 97.18 L 116.50 100.55 L 118.21 103.63 L 119.95 105.90 L 121.30 107.10 L 122.63 107.78 L 123.99 108.02 L 124.06 108.02 L 126.79 107.81 L 130.21 107.25 L 137.54 105.52 L 144.80 103.39 L 150.75 101.45 L 154.15 100.26 L 149.10 90.98 L 146.96 91.26 L 143.20 91.67 L 138.55 92.06 L 132.28 92.26 L 128.51 91.99 L 126.43 91.47 L 125.43 90.85 L 124.45 89.50 L 123.07 87.02 L 120.31 81.06 L 117.84 75.10 L 116.34 71.27 Z" fill="#231f20" fill-rule="nonzero" group-id="9" id="路径_9832" node-id="10" stroke="none" target-height="38.300003" target-width="46.179993" target-x="108.75" target-y="70.39"></path></g><g node-id="86"><path d="M 0.34 0.33 L 93.64 0.33 L 93.64 100.39 L 0.34 100.39 Z" fill="#ffffff" fill-rule="nonzero" group-id="10" id="矩形_3318" node-id="11" stroke="none" target-height="100.06" target-width="93.3" target-x="0.34" target-y="0.33"></path></g><g node-id="87"><path d="M 93.67 100.73 L 0.34 100.73 L 0.10 100.63 L 0.00 100.39 L 0.00 0.34 L 0.10 0.10 L 0.34 0.00 L 93.67 0.00 L 93.91 0.10 L 94.01 0.34 L 94.01 100.40 L 93.91 100.63 L 93.67 100.73 Z M 0.71 100.06 L 93.31 100.06 L 93.31 0.67 L 0.67 0.67 Z" fill="#231f20" fill-rule="nonzero" group-id="11" id="路径_9833" node-id="12" stroke="none" target-height="100.73" target-width="94.01" target-x="0" target-y="0"></path></g><g node-id="88"><path d="M 0.34 0.33 L 93.64 0.33 L 93.64 11.41 L 0.34 11.41 Z" fill="#ffffff" fill-rule="nonzero" group-id="12" id="矩形_3319" node-id="13" stroke="none" target-height="11.08" target-width="93.3" target-x="0.34" target-y="0.33"></path></g><g node-id="89"><path d="M 93.67 11.75 L 0.34 11.75 L 0.10 11.65 L 0.00 11.41 L 0.00 0.34 L 0.10 0.10 L 0.34 0.00 L 93.67 0.00 L 93.91 0.10 L 94.01 0.34 L 94.01 11.42 L 93.91 11.65 L 93.67 11.75 Z M 0.71 11.08 L 93.31 11.08 L 93.31 0.67 L 0.67 0.67 Z" fill="#231f20" fill-rule="nonzero" group-id="13" id="路径_9834" node-id="14" stroke="none" target-height="11.75" target-width="94.01" target-x="0" target-y="0"></path></g><g node-id="90"><path d="M 6.74 5.68 L 6.63 6.24 L 6.33 6.68 L 5.88 6.99 L 5.32 7.10 L 4.77 6.99 L 4.32 6.68 L 4.02 6.24 L 3.90 5.68 L 4.02 5.12 L 4.32 4.68 L 4.77 4.37 L 5.32 4.26 L 5.88 4.37 L 6.33 4.68 L 6.63 5.12 L 6.74 5.68 Z" fill="#ff595e" fill-rule="nonzero" group-id="14" id="椭圆_156" node-id="15" stroke="none" target-height="2.8399997" target-width="2.8399997" target-x="3.9" target-y="4.26"></path></g><g node-id="91"><path d="M 11.85 5.68 L 11.73 6.24 L 11.43 6.68 L 10.98 6.99 L 10.43 7.10 L 9.87 6.99 L 9.42 6.68 L 9.12 6.24 L 9.01 5.68 L 9.12 5.12 L 9.42 4.68 L 9.87 4.37 L 10.43 4.26 L 10.98 4.37 L 11.43 4.68 L 11.73 5.12 L 11.85 5.68 Z" fill="#d1d3d4" fill-rule="nonzero" group-id="15" id="椭圆_157" node-id="16" stroke="none" target-height="2.8399997" target-width="2.8400002" target-x="9.01" target-y="4.26"></path></g><g node-id="92"><path d="M 16.95 5.68 L 16.83 6.24 L 16.53 6.68 L 16.08 6.99 L 15.53 7.10 L 14.97 6.99 L 14.52 6.68 L 14.22 6.24 L 14.11 5.68 L 14.22 5.12 L 14.52 4.68 L 14.97 4.37 L 15.53 4.26 L 16.08 4.37 L 16.53 4.68 L 16.83 5.12 L 16.95 5.68 Z" fill="#d1d3d4" fill-rule="nonzero" group-id="16" id="椭圆_158" node-id="17" stroke="none" target-height="2.8399997" target-width="2.840001" target-x="14.11" target-y="4.26"></path></g><g node-id="93"><path d="M 25.19 88.96 L 22.99 100.40 L 58.61 100.40 L 56.65 94.59 Z" fill="#231f20" fill-rule="nonzero" group-id="17" id="路径_9835" node-id="18" stroke="none" target-height="11.440002" target-width="35.620003" target-x="22.99" target-y="88.96"></path></g><g node-id="94"><path d="M 58.61 100.74 L 23.00 100.74 L 22.75 100.62 L 22.67 100.34 L 24.87 88.89 L 25.01 88.68 L 25.26 88.62 L 56.72 94.25 L 56.98 94.47 L 58.94 100.28 L 58.90 100.58 L 58.63 100.73 Z M 23.40 100.06 L 58.14 100.06 L 56.40 94.89 L 25.44 89.36 Z" fill="#231f20" fill-rule="nonzero" group-id="18" id="路径_9836" node-id="19" stroke="none" target-height="12.119995" target-width="36.269997" target-x="22.67" target-y="88.62"></path></g><g node-id="95"><path d="M 70.58 56.59 L 90.78 80.94 L 81.88 84.58 L 60.24 61.55 Z" fill="#ffffff" fill-rule="nonzero" group-id="19" id="路径_9837" node-id="20" stroke="none" target-height="27.990002" target-width="30.539997" target-x="60.24" target-y="56.59"></path></g><g node-id="96"><path d="M 81.89 84.92 L 81.64 84.81 L 60.02 61.78 L 59.93 61.49 L 60.12 61.25 L 70.46 56.29 L 70.86 56.38 L 91.05 80.72 L 91.12 81.02 L 90.92 81.25 L 82.03 84.89 L 81.89 84.92 Z M 60.81 61.66 L 81.97 84.18 L 90.23 80.82 L 70.49 57.03 Z" fill="#231f20" fill-rule="nonzero" group-id="20" id="路径_9838" node-id="21" stroke="none" target-height="28.629997" target-width="31.190002" target-x="59.93" target-y="56.29"></path></g><g node-id="97"><path d="M 64.51 43.91 L 74.75 57.25 L 60.79 64.90 Z" fill="#ff595e" fill-rule="nonzero" group-id="21" id="路径_9839" node-id="22" stroke="none" target-height="20.990002" target-width="13.959999" target-x="60.79" target-y="43.91"></path></g><g node-id="98"><path d="M 64.51 43.94 L 63.94 43.52 L 62.02 42.69 L 56.60 41.02 L 53.29 40.28 L 49.76 39.69 L 46.22 39.38 L 43.01 39.43 L 40.94 39.72 L 39.25 40.24 L 37.88 40.97 L 36.93 41.86 L 35.87 43.30 L 34.69 45.47 L 33.17 48.99 L 31.58 53.50 L 30.13 58.30 L 28.71 63.56 L 26.23 74.14 L 24.27 83.73 L 23.00 90.84 L 61.80 100.81 L 62.19 98.06 L 63.16 90.86 L 64.35 80.81 L 65.42 69.50 L 66.03 58.53 L 66.05 53.49 L 65.84 49.48 L 65.28 45.93 L 64.51 43.94 Z" fill="#ff595e" fill-rule="nonzero" group-id="22" id="路径_9840" node-id="23" stroke="none" target-height="61.429996" target-width="43.050003" target-x="23" target-y="39.38"></path></g><g node-id="99"><path d="M 63.70 92.12 L 63.66 92.12 L 63.44 91.98 L 63.39 91.73 L 63.65 89.35 L 64.26 83.46 L 65.00 75.53 L 65.64 67.00 L 65.96 59.32 L 65.93 56.06 L 65.75 53.93 L 65.81 53.68 L 66.03 53.54 L 66.29 53.60 L 66.42 53.83 L 66.62 56.46 L 66.62 60.58 L 66.12 70.13 L 65.28 80.09 L 64.47 88.11 L 64.06 91.80 L 63.95 92.03 L 63.70 92.12 Z" fill="#231f20" fill-rule="nonzero" group-id="23" id="路径_9841" node-id="24" stroke="none" target-height="38.58" target-width="3.2300034" target-x="63.39" target-y="53.54"></path></g><g node-id="100"><path d="M 53.75 35.55 L 51.68 34.74 L 49.83 33.61 L 48.18 32.12 L 47.30 30.92 L 46.83 29.51 L 46.85 28.75 L 47.10 28.07 L 47.55 27.50 L 48.18 27.08 L 47.37 26.32 L 46.88 25.41 L 46.67 24.32 L 46.87 22.70 L 47.50 21.19 L 48.08 20.28 L 48.82 19.49 L 49.70 18.93 L 50.70 18.70 L 50.06 16.96 L 49.97 16.07 L 50.18 15.22 L 50.70 14.47 L 51.39 13.87 L 52.85 12.84 L 54.41 11.95 L 55.34 11.62 L 55.81 11.61 L 56.22 11.79 L 56.93 10.19 L 58.01 8.89 L 59.41 7.93 L 61.06 7.38 L 62.76 7.32 L 64.39 7.81 L 67.08 10.18 L 68.54 10.00 L 69.97 10.15 L 71.33 10.62 L 72.57 11.40 L 73.24 12.34 L 73.63 13.39 L 73.74 14.51 L 73.54 15.64 L 75.19 16.83 L 76.55 18.34 L 77.16 19.57 L 77.38 20.84 L 77.22 22.20 L 76.76 23.12 L 76.06 23.80 L 75.17 24.23 L 74.16 24.36 L 74.80 25.37 L 75.04 26.48 L 74.87 27.61 L 74.29 28.66 L 73.36 29.41 L 72.29 29.84 L 71.14 29.95 L 69.97 29.71 L 69.30 29.57 L 68.63 29.98 L 67.50 30.40 L 66.33 30.66 L 63.45 32.68 L 60.56 34.42 L 58.92 35.43 L 57.19 36.27 L 56.44 36.38 L 55.83 36.27 L 54.50 35.80 Z" fill="#ffffff" fill-rule="nonzero" group-id="24" id="路径_9842" node-id="25" stroke="none" target-height="29.060001" target-width="30.71" target-x="46.67" target-y="7.32"></path></g><g node-id="101"><path d="M 56.51 36.70 L 55.07 36.35 L 54.40 36.12 L 53.63 35.87 L 53.63 35.87 L 51.51 35.03 L 49.61 33.86 L 47.91 32.34 L 46.98 31.05 L 46.49 29.54 L 46.55 28.58 L 46.89 27.76 L 47.53 27.04 L 46.66 25.81 L 46.31 24.35 L 46.53 22.65 L 47.19 21.06 L 47.95 19.91 L 48.94 19.05 L 50.19 18.46 L 49.63 17.21 L 49.62 15.83 L 50.17 14.57 L 51.17 13.64 L 52.66 12.57 L 54.25 11.64 L 55.09 11.32 L 56.00 11.31 L 56.79 9.76 L 57.92 8.51 L 59.34 7.58 L 60.99 7.05 L 62.80 6.98 L 64.53 7.51 L 67.22 9.81 L 68.72 9.66 L 70.18 9.84 L 71.57 10.34 L 72.83 11.15 L 73.52 12.10 L 73.95 13.17 L 74.10 14.31 L 73.96 15.48 L 75.55 16.65 L 76.85 18.13 L 77.38 19.11 L 77.67 20.16 L 77.72 21.24 L 77.52 22.33 L 77.10 23.18 L 76.49 23.88 L 75.73 24.39 L 74.83 24.69 L 75.25 25.74 L 75.34 26.83 L 75.10 27.90 L 74.53 28.88 L 73.52 29.71 L 72.35 30.19 L 71.09 30.30 L 69.82 30.03 L 69.74 30.03 L 69.33 29.94 L 68.93 30.18 L 68.80 30.29 L 68.10 30.63 L 67.33 30.79 L 66.43 31.01 L 64.53 32.29 L 63.61 32.96 L 60.70 34.70 L 59.62 35.38 L 58.50 36.07 L 57.29 36.59 L 56.51 36.70 Z M 55.58 11.94 L 54.55 12.26 L 53.02 13.13 L 51.58 14.15 L 50.95 14.69 L 50.46 15.36 L 50.29 16.11 L 50.38 16.93 L 50.99 18.56 L 50.99 18.88 L 50.71 19.04 L 49.65 19.33 L 48.82 19.95 L 47.80 21.34 L 47.21 22.77 L 47.01 24.30 L 47.20 25.28 L 47.64 26.10 L 48.36 26.80 L 48.52 27.12 L 48.30 27.40 L 47.77 27.76 L 47.40 28.25 L 47.20 28.83 L 47.19 29.47 L 47.63 30.78 L 48.45 31.89 L 50.06 33.35 L 51.86 34.47 L 53.88 35.26 L 53.88 35.26 L 54.63 35.51 L 55.30 35.76 L 56.18 36.03 L 57.09 35.97 L 58.20 35.48 L 59.23 34.84 L 60.37 34.17 L 63.23 32.44 L 64.12 31.77 L 66.14 30.43 L 67.22 30.15 L 68.38 29.77 L 68.51 29.68 L 69.24 29.30 L 69.98 29.42 L 70.04 29.42 L 71.12 29.65 L 72.17 29.55 L 73.16 29.15 L 74.01 28.46 L 74.53 27.53 L 74.67 26.52 L 74.47 25.52 L 73.91 24.62 L 73.83 24.23 L 74.17 24.03 L 75.08 23.93 L 75.87 23.55 L 76.49 22.94 L 76.90 22.12 L 77.05 20.86 L 76.84 19.68 L 76.27 18.54 L 74.96 17.09 L 73.37 15.96 L 73.23 15.56 L 73.41 14.51 L 73.31 13.47 L 72.95 12.49 L 72.33 11.63 L 71.16 10.90 L 69.89 10.46 L 68.55 10.32 L 67.18 10.50 L 67.18 10.50 L 66.92 10.48 L 66.75 10.28 L 64.20 8.09 L 62.68 7.62 L 61.09 7.69 L 59.54 8.21 L 58.21 9.12 L 57.19 10.35 L 56.52 11.85 L 56.30 12.08 L 55.99 12.04 L 55.58 11.94 Z" fill="#231f20" fill-rule="nonzero" group-id="25" id="路径_9843" node-id="26" stroke="none" target-height="29.720001" target-width="31.41" target-x="46.31" target-y="6.98"></path></g><g node-id="102"><path d="M 69.23 30.42 L 69.59 31.84 L 70.09 34.61 L 70.10 35.91 L 69.85 36.48 L 69.35 36.67 L 68.76 36.64 L 67.66 36.24 L 67.16 35.95" fill="#ffffff" fill-rule="nonzero" group-id="26" id="路径_9844" node-id="27" stroke="none" target-height="6.249998" target-width="2.9399948" target-x="67.16" target-y="30.42"></path></g><g node-id="103"><path d="M 69.13 37.07 L 67.99 36.81 L 66.94 36.26 L 66.80 36.04 L 66.86 35.79 L 67.07 35.65 L 67.32 35.70 L 68.42 36.25 L 69.12 36.39 L 69.64 36.24 L 69.80 35.72 L 69.71 34.18 L 68.91 30.51 L 68.98 30.17 L 69.32 30.08 L 69.56 30.33 L 70.07 32.40 L 70.45 35.03 L 70.37 36.18 L 70.06 36.77 L 69.62 37.00 L 69.13 37.07 Z" fill="#231f20" fill-rule="nonzero" group-id="27" id="路径_9845" node-id="28" stroke="none" target-height="6.99" target-width="3.649994" target-x="66.8" target-y="30.08"></path></g><g node-id="104"><path d="M 71.37 20.44 L 71.65 20.86 L 71.76 21.34 L 71.81 23.12 L 71.53 24.87 L 70.67 28.27 L 69.60 31.60 L 66.52 40.35 L 65.91 40.99 L 64.76 41.22 L 63.42 41.11 L 62.07 40.76 L 60.86 40.26 L 60.31 39.86 L 58.71 47.47 L 57.03 47.04 L 55.37 46.22 L 52.87 44.32 L 50.60 41.94 L 49.86 40.70 L 49.80 40.34 L 52.83 31.94 L 53.77 32.09 L 54.74 32.07 L 56.11 31.76 L 57.50 31.10 L 59.12 29.78 L 59.83 28.83 L 60.61 27.97 L 61.71 27.52 L 62.25 27.30 L 62.76 26.89 L 63.36 25.73 L 63.38 24.43 L 63.43 23.88 L 63.75 23.78 L 64.63 23.44 L 65.31 22.78 L 65.69 21.92 L 65.70 20.97 L 66.60 21.03 L 67.49 20.72 L 69.07 19.50 L 69.08 19.63 L 69.43 19.80 L 70.40 20.07 L 70.98 20.18 L 71.37 20.44 Z" fill="#ffffff" fill-rule="nonzero" group-id="28" id="路径_9846" node-id="29" stroke="none" target-height="27.970001" target-width="22.009998" target-x="49.8" target-y="19.5"></path></g><g node-id="105"><path d="M 58.72 47.80 L 58.72 47.80 L 56.91 47.34 L 55.19 46.49 L 52.66 44.56 L 50.61 42.47 L 49.84 41.40 L 49.48 40.51 L 49.49 40.25 L 52.52 31.83 L 52.69 31.64 L 52.95 31.62 L 53.89 31.76 L 54.80 31.73 L 56.08 31.42 L 57.37 30.79 L 58.88 29.55 L 59.42 28.83 L 60.42 27.69 L 61.42 27.26 L 62.02 27.05 L 62.52 26.67 L 63.06 25.65 L 63.08 24.50 L 63.04 24.05 L 63.24 23.64 L 63.71 23.45 L 64.48 23.17 L 65.06 22.59 L 65.40 21.86 L 65.41 21.06 L 65.51 20.74 L 65.84 20.66 L 66.62 20.70 L 67.42 20.40 L 68.85 19.27 L 68.85 19.27 L 69.09 19.17 L 69.33 19.27 L 69.41 19.44 L 70.97 19.86 L 71.12 19.90 L 71.61 20.19 L 71.61 20.19 L 71.95 20.69 L 72.11 21.27 L 72.16 23.11 L 71.88 24.93 L 71.10 28.03 L 70.12 31.07 L 69.90 31.74 L 66.82 40.49 L 66.22 41.23 L 65.32 41.53 L 63.65 41.49 L 62.05 41.14 L 60.51 40.47 L 59.03 47.56 L 58.72 47.80 Z M 50.13 40.45 L 50.53 41.27 L 51.25 42.20 L 53.10 44.07 L 54.70 45.41 L 56.48 46.41 L 58.45 47.09 L 59.98 39.78 L 60.23 39.53 L 60.57 39.64 L 62.04 40.39 L 63.58 40.79 L 65.23 40.84 L 65.80 40.67 L 66.21 40.23 L 69.28 31.48 L 69.50 30.81 L 70.45 27.81 L 71.21 24.75 L 71.47 23.08 L 71.44 21.39 L 71.15 20.67 L 70.85 20.51 L 70.79 20.51 L 69.00 19.99 L 68.15 20.71 L 67.19 21.17 L 66.09 21.37 L 65.96 22.21 L 65.59 22.96 L 64.81 23.72 L 63.79 24.11 L 63.64 24.11 L 63.71 24.33 L 63.78 25.34 L 63.55 26.26 L 63.02 27.12 L 62.38 27.62 L 61.62 27.91 L 60.80 28.25 L 59.98 29.22 L 59.37 30.01 L 58.05 31.20 L 56.52 32.00 L 54.83 32.39 L 53.06 32.34 L 50.13 40.46 Z" fill="#231f20" fill-rule="nonzero" group-id="29" id="路径_9847" node-id="30" stroke="none" target-height="28.63" target-width="22.680004" target-x="49.48" target-y="19.17"></path></g><g node-id="106"><path d="M 61.56 28.83 L 61.64 27.68 L 61.39 26.55 L 60.71 24.87 L 60.14 24.23 L 59.35 23.89 L 58.57 24.00 L 57.90 24.43 L 57.41 25.06 L 57.07 25.78 L 56.68 27.49 L 56.76 29.19 L 57.26 30.82 L 58.20 32.30 L 58.09 32.08" fill="#ffffff" fill-rule="nonzero" group-id="30" id="路径_9848" node-id="31" stroke="none" target-height="8.41" target-width="4.959999" target-x="56.68" target-y="23.89"></path></g><g node-id="107"><path d="M 58.16 32.64 L 57.91 32.52 L 56.93 30.96 L 56.40 29.25 L 56.32 27.45 L 56.72 25.66 L 57.09 24.87 L 57.64 24.19 L 58.42 23.69 L 59.35 23.56 L 60.32 23.93 L 61.03 24.69 L 61.70 26.46 L 61.97 27.69 L 61.88 28.93 L 61.71 29.14 L 61.44 29.17 L 61.23 29.00 L 61.20 28.73 L 61.25 27.67 L 61.02 26.63 L 60.42 25.05 L 59.92 24.50 L 59.23 24.22 L 58.59 24.32 L 58.05 24.67 L 57.33 25.89 L 56.98 27.40 L 57.00 28.92 L 57.39 30.39 L 58.14 31.75 L 58.34 31.93 L 58.44 32.16 L 58.32 32.58 L 58.16 32.64 Z" fill="#231f20" fill-rule="nonzero" group-id="31" id="路径_9849" node-id="32" stroke="none" target-height="9.08" target-width="5.6500015" target-x="56.32" target-y="23.56"></path></g><g node-id="108"><path d="M 60.31 39.86 L 59.11 38.82 L 58.16 37.60 L 57.44 36.19 L 57.23 37.46 L 57.23 38.71 L 57.51 40.29 L 58.22 41.80 L 59.60 43.24 Z" fill="#231f20" fill-rule="nonzero" group-id="32" id="路径_9850" node-id="33" stroke="none" target-height="7.050003" target-width="3.0800018" target-x="57.23" target-y="36.19"></path></g><g node-id="109"><path d="M 59.60 43.58 L 59.40 43.52 L 57.95 42.01 L 57.21 40.43 L 56.90 38.77 L 56.90 37.45 L 57.10 36.12 L 57.42 35.87 L 57.42 35.87 L 57.74 36.11 L 58.43 37.46 L 59.34 38.61 L 60.49 39.60 L 60.62 39.94 L 59.91 43.30 L 59.70 43.55 L 59.60 43.58 Z M 57.58 37.38 L 57.55 38.83 L 57.86 40.22 L 58.47 41.50 L 59.38 42.63 L 59.93 40.00 L 58.64 38.80 L 57.59 37.38 Z" fill="#231f20" fill-rule="nonzero" group-id="33" id="路径_9851" node-id="34" stroke="none" target-height="7.710003" target-width="3.7199974" target-x="56.9" target-y="35.87"></path></g><g node-id="110"><path d="M 68.31 26.40 L 68.49 26.73 L 68.34 27.58 L 67.91 28.33 L 67.56 28.47 L 67.39 28.14 L 67.53 27.29 L 67.97 26.54 L 68.31 26.40 Z" fill="#231f20" fill-rule="nonzero" group-id="34" id="椭圆_159" node-id="35" stroke="none" target-height="2.0699997" target-width="1.0999985" target-x="67.39" target-y="26.4"></path></g><g node-id="111"><path d="M 67.13 35.98 L 64.25 33.69 L 63.72 34.71 L 62.93 36.96 L 62.83 38.20 L 63.13 39.25 L 63.78 39.81 L 64.50 39.68 L 65.24 39.09 L 66.02 38.10 L 67.13 35.98 Z" fill="#ffffff" fill-rule="nonzero" group-id="35" id="路径_9852" node-id="36" stroke="none" target-height="6.1200027" target-width="4.2999954" target-x="62.83" target-y="33.69"></path></g><g node-id="112"><path d="M 63.96 40.17 L 63.29 39.96 L 62.83 39.42 L 62.50 38.29 L 62.58 37.00 L 62.93 35.72 L 63.37 34.66 L 63.97 33.52 L 64.20 33.36 L 64.46 33.43 L 67.34 35.72 L 67.45 36.10 L 66.69 37.67 L 65.48 39.33 L 64.76 39.91 L 64.08 40.14 Z M 64.36 34.20 L 63.71 35.56 L 63.19 37.40 L 63.18 38.32 L 63.42 39.09 L 63.78 39.47 L 64.00 39.50 L 64.61 39.21 L 65.43 38.36 L 66.14 37.28 L 66.73 36.09 Z" fill="#231f20" fill-rule="nonzero" group-id="36" id="路径_9853" node-id="37" stroke="none" target-height="6.8099976" target-width="4.949997" target-x="62.5" target-y="33.36"></path></g><g node-id="113"><path d="M 109.96 44.56 L 136.62 79.34 L 70.45 130.08 L 43.79 95.30 Z" fill="#ffffff" fill-rule="nonzero" group-id="37" id="矩形_3320" node-id="38" stroke="none" target-height="85.520004" target-width="92.829994" target-x="43.79" target-y="44.56"></path></g><g node-id="114"><path d="M 70.45 130.41 L 70.19 130.27 L 43.52 95.51 L 43.46 95.26 L 43.59 95.03 L 109.75 44.30 L 110.00 44.23 L 110.22 44.36 L 136.89 79.13 L 136.95 79.38 L 136.83 79.60 L 70.66 130.34 L 70.45 130.41 Z M 44.27 95.35 L 70.52 129.60 L 136.14 79.27 L 109.90 45.03 Z" fill="#231f20" fill-rule="nonzero" group-id="38" id="路径_9854" node-id="39" stroke="none" target-height="86.18001" target-width="93.49" target-x="43.46" target-y="44.23"></path></g><g node-id="115"><path d="M 76.09 119.36 L 76.02 119.36 L 75.80 119.21 L 75.65 119.01 L 74.34 117.73 L 72.87 116.88 L 71.20 116.44 L 69.48 116.43 L 67.84 116.87 L 66.23 117.77 L 65.98 117.84 L 65.76 117.71 L 54.53 103.06 L 54.46 102.81 L 54.59 102.58 L 55.88 101.27 L 56.72 99.80 L 57.16 98.13 L 57.17 96.41 L 56.74 94.77 L 55.83 93.16 L 55.68 92.96 L 55.59 92.71 L 55.72 92.47 L 104.14 55.35 L 104.40 55.28 L 104.62 55.43 L 104.76 55.64 L 106.08 56.93 L 107.55 57.77 L 109.21 58.21 L 110.94 58.22 L 112.58 57.79 L 114.18 56.89 L 114.43 56.82 L 114.66 56.95 L 125.89 71.60 L 125.95 71.85 L 125.83 72.07 L 124.54 73.39 L 123.70 74.86 L 123.26 76.52 L 123.25 78.25 L 123.68 79.89 L 124.58 81.49 L 124.74 81.69 L 124.83 81.95 L 124.70 82.19 L 76.28 119.33 L 76.09 119.36 Z M 70.31 115.70 L 71.99 115.89 L 73.56 116.45 L 74.96 117.34 L 76.15 118.55 L 124.02 81.85 L 123.07 80.15 L 122.60 78.40 L 122.58 76.57 L 123.00 74.79 L 123.85 73.20 L 125.16 71.75 L 114.32 57.62 L 112.58 58.50 L 110.82 58.90 L 108.98 58.84 L 107.21 58.34 L 105.65 57.43 L 104.26 56.06 L 56.39 92.76 L 57.34 94.47 L 57.82 96.21 L 57.83 98.04 L 57.41 99.82 L 56.56 101.42 L 55.26 102.86 L 66.08 117.00 L 67.41 116.28 L 68.81 115.85 L 70.31 115.71 Z" fill="#d1d3d4" fill-rule="nonzero" group-id="39" id="路径_9855" node-id="40" stroke="none" target-height="64.08" target-width="71.49" target-x="54.46" target-y="55.28"></path></g><g node-id="116"><path d="M 54.85 63.76 L 56.39 65.62 L 60.32 70.30 L 65.59 76.42 L 71.18 82.62 L 76.03 87.52 L 78.07 89.20 L 79.12 89.76 L 81.10 90.06 L 83.31 90.18 L 87.11 90.39 L 88.05 90.65 L 88.46 91.02 L 88.54 91.53 L 88.18 92.15 L 87.38 92.66 L 85.22 93.25 L 83.13 93.46 L 82.20 93.50 L 83.32 94.02 L 85.72 95.35 L 86.97 96.20 L 87.95 97.07 L 88.56 98.00 L 88.56 98.80 L 87.94 99.80 L 86.93 100.70 L 85.70 101.37 L 84.25 101.75 L 82.74 101.78 L 81.16 101.36 L 79.04 100.20 L 77.28 98.90 L 75.57 97.58 L 73.70 96.43 L 70.71 94.16 L 65.30 89.48 L 58.79 83.65 L 52.50 77.93 L 47.76 73.58 L 45.89 71.85 Z" fill="#ffffff" fill-rule="nonzero" group-id="40" id="路径_9856" node-id="41" stroke="none" target-height="38.02" target-width="42.67" target-x="45.89" target-y="63.76"></path></g><g node-id="117"><path d="M 83.40 102.15 L 82.19 102.03 L 81.03 101.67 L 78.82 100.45 L 76.80 98.94 L 75.23 97.75 L 73.55 96.73 L 70.62 94.51 L 65.35 89.96 L 58.98 84.27 L 52.74 78.61 L 47.89 74.16 L 45.65 72.09 L 45.54 71.84 L 45.65 71.59 L 54.62 63.52 L 54.87 63.44 L 55.10 63.56 L 59.51 68.86 L 65.19 75.47 L 71.08 82.03 L 76.10 87.15 L 78.17 88.89 L 79.20 89.44 L 81.59 89.78 L 84.01 89.88 L 86.96 90.05 L 88.06 90.32 L 88.67 90.74 L 88.86 91.16 L 88.85 91.61 L 88.48 92.29 L 87.74 92.84 L 85.70 93.51 L 83.58 93.79 L 86.11 95.20 L 87.37 96.10 L 88.33 97.02 L 88.90 98.03 L 88.85 98.94 L 88.07 100.12 L 87.07 101.03 L 85.81 101.68 L 84.63 102.03 L 83.40 102.15 Z M 46.38 71.87 L 49.18 74.46 L 54.15 79.01 L 60.20 84.50 L 66.23 89.88 L 71.15 94.10 L 73.84 96.15 L 75.59 97.20 L 77.21 98.43 L 79.16 99.89 L 81.29 101.07 L 82.72 101.45 L 84.13 101.45 L 85.56 101.07 L 86.67 100.50 L 87.56 99.71 L 88.26 98.68 L 88.21 98.04 L 87.53 97.14 L 86.49 96.29 L 85.07 95.36 L 82.07 93.82 L 81.87 93.45 L 82.20 93.18 L 84.66 93.01 L 87.01 92.47 L 87.86 92.00 L 88.21 91.48 L 88.16 91.17 L 87.69 90.89 L 86.63 90.69 L 84.02 90.56 L 81.53 90.45 L 79.06 90.10 L 77.81 89.43 L 75.38 87.36 L 69.65 81.47 L 63.34 74.36 L 57.91 67.98 L 54.83 64.27 Z" fill="#231f20" fill-rule="nonzero" group-id="41" id="路径_9857" node-id="42" stroke="none" target-height="38.710003" target-width="43.36" target-x="45.54" target-y="63.44"></path></g><g node-id="118"><path d="M 47.93 51.06 L 56.37 62.13 L 44.35 73.21 L 37.14 64.90" fill="#ff595e" fill-rule="nonzero" group-id="42" id="路径_9858" node-id="43" stroke="none" target-height="22.149998" target-width="19.23" target-x="37.14" target-y="51.06"></path></g><g node-id="119"><path d="M 44.35 73.55 L 44.35 73.55 L 44.12 73.44 L 36.90 65.13 L 36.82 64.89 L 36.92 64.67 L 37.15 64.57 L 37.38 64.66 L 44.37 72.73 L 55.91 62.11 L 47.66 51.28 L 47.60 50.93 L 47.88 50.72 L 48.20 50.87 L 56.66 61.93 L 56.72 62.16 L 56.62 62.38 L 44.60 73.46 L 44.35 73.55 Z" fill="#231f20" fill-rule="nonzero" group-id="43" id="路径_9859" node-id="44" stroke="none" target-height="22.830002" target-width="19.900002" target-x="36.82" target-y="50.72"></path></g><g node-id="120"><path d="M 172.18 66.15 L 175.12 66.65 L 177.89 67.73 L 180.16 69.02 L 182.17 70.66 L 183.28 71.96 L 184.10 73.40 L 184.62 75.01 L 184.77 77.04 L 184.43 79.09 L 183.75 81.09 L 182.83 83.00 L 180.79 86.65 L 179.87 88.53 L 179.17 90.48 L 178.84 92.57 L 178.97 94.67 L 179.35 96.01 L 179.99 97.18 L 180.91 98.19 L 178.10 96.95 L 175.46 95.42 L 172.98 93.59 L 171.72 92.28 L 170.87 90.77 L 170.39 89.01 L 170.66 86.82 L 171.44 84.75 L 172.67 81.70 L 173.36 78.49 L 173.28 76.84 L 172.84 75.24 L 172.01 73.85 L 170.79 72.80 L 169.77 72.41 L 168.25 72.03 L 166.70 71.61 L 165.43 71.03 L 164.80 70.50 L 164.52 69.81 L 164.56 68.88 L 165.20 67.86 L 166.41 67.07 L 167.89 66.57 L 169.50 66.27 L 172.18 66.15 Z" fill="#ffffff" fill-rule="nonzero" group-id="44" id="路径_9860" node-id="45" stroke="none" target-height="32.04" target-width="20.25" target-x="164.52" target-y="66.15"></path></g><g node-id="121"><path d="M 180.94 98.50 L 180.80 98.50 L 177.96 97.23 L 175.29 95.68 L 172.78 93.83 L 171.47 92.45 L 170.58 90.86 L 170.09 89.02 L 170.36 86.75 L 171.16 84.61 L 171.28 84.34 L 172.42 81.48 L 173.06 78.46 L 173.03 76.90 L 172.60 75.44 L 171.80 74.14 L 170.66 73.08 L 168.54 72.41 L 166.14 71.72 L 165.12 71.17 L 164.44 70.45 L 164.17 69.62 L 164.27 68.75 L 164.95 67.63 L 166.22 66.79 L 167.77 66.25 L 169.44 65.93 L 172.20 65.79 L 175.20 66.29 L 178.05 67.39 L 180.65 68.92 L 182.02 70.02 L 183.31 71.40 L 184.33 73.01 L 184.99 74.91 L 185.16 76.58 L 184.96 78.46 L 184.33 80.62 L 183.17 83.12 L 182.11 85.02 L 180.65 87.70 L 179.53 90.54 L 179.22 92.35 L 179.29 94.38 L 179.62 95.69 L 180.24 96.87 L 181.16 97.94 L 181.28 98.15 L 181.23 98.38 L 180.94 98.49 Z M 171.74 66.44 L 169.09 66.66 L 167.67 66.97 L 166.43 67.43 L 165.44 68.11 L 164.93 68.93 L 164.85 69.53 L 165.03 70.10 L 165.59 70.67 L 166.51 71.13 L 168.70 71.75 L 169.88 72.03 L 171.00 72.47 L 172.30 73.65 L 173.21 75.09 L 173.70 76.72 L 173.74 78.47 L 173.09 81.60 L 171.90 84.57 L 171.79 84.84 L 171.04 86.83 L 170.77 88.94 L 171.25 90.60 L 172.07 92.04 L 173.26 93.30 L 176.31 95.51 L 179.67 97.21 L 178.95 95.58 L 178.57 93.86 L 178.55 92.11 L 178.89 90.35 L 180.03 87.43 L 181.53 84.67 L 182.58 82.80 L 183.69 80.40 L 184.30 78.35 L 184.49 76.58 L 184.34 75.04 L 183.72 73.26 L 182.76 71.75 L 181.54 70.46 L 180.24 69.42 L 177.77 67.99 L 175.06 66.93 L 172.19 66.45 Z" fill="#231f20" fill-rule="nonzero" group-id="45" id="路径_9861" node-id="46" stroke="none" target-height="32.71" target-width="20.990005" target-x="164.17" target-y="65.79"></path></g><g node-id="122"><path d="M 169.76 66.83 L 170.43 68.64 L 170.47 70.58 L 170.19 71.85 L 169.56 72.99 L 168.73 73.67 L 167.79 74.04 L 166.72 74.11 L 166.03 73.97 L 165.44 73.59 L 164.97 72.52 L 164.87 71.34 L 165.00 69.71 L 165.34 68.07 L 165.87 66.63 L 166.64 65.51 L 167.49 65.07 L 168.08 65.14 L 168.80 65.64 L 169.76 66.83 Z" fill="#231f20" fill-rule="nonzero" group-id="46" id="路径_9862" node-id="47" stroke="none" target-height="9.040001" target-width="5.600006" target-x="164.87" target-y="65.07"></path></g><g node-id="123"><path d="M 166.99 74.44 L 166.69 74.44 L 165.88 74.26 L 165.19 73.81 L 164.83 73.23 L 164.64 72.57 L 164.53 71.43 L 164.64 69.85 L 164.95 68.24 L 165.45 66.75 L 166.19 65.50 L 167.04 64.84 L 167.95 64.75 L 168.91 65.25 L 170.04 66.63 L 170.04 66.63 L 170.60 67.90 L 170.85 69.22 L 170.81 70.61 L 170.51 71.97 L 169.82 73.19 L 168.99 73.88 L 168.06 74.29 L 166.99 74.44 Z M 167.61 65.39 L 167.29 65.46 L 166.65 65.99 L 166.03 67.10 L 165.60 68.43 L 165.30 69.90 L 165.19 71.35 L 165.28 72.43 L 165.66 73.35 L 166.15 73.65 L 166.72 73.76 L 168.12 73.56 L 169.28 72.76 L 169.86 71.71 L 170.11 70.53 L 170.08 68.70 L 169.44 66.99 L 169.44 66.99 L 168.62 65.90 L 168.11 65.52 L 167.61 65.39 Z" fill="#231f20" fill-rule="nonzero" group-id="47" id="路径_9863" node-id="48" stroke="none" target-height="9.690002" target-width="6.3200073" target-x="164.53" target-y="64.75"></path></g><g node-id="124"><path d="M 152.00 84.67 L 152.67 85.29 L 153.56 85.73 L 154.60 85.95 L 156.03 85.93 L 158.46 85.29 L 160.65 84.06 L 163.16 81.90 L 165.15 79.43 L 166.66 76.61 L 167.63 73.56 L 168.03 70.41 L 167.84 67.11 L 167.28 64.95 L 166.38 62.91 L 165.12 60.95 L 163.59 59.22 L 161.85 57.84 L 159.90 56.80 L 157.82 56.20 L 155.63 56.14 L 153.27 56.64 L 151.58 57.48 L 150.14 58.64 L 148.98 60.09 L 148.15 61.78 L 147.41 61.65 L 146.70 61.73 L 146.03 62.01 L 145.46 62.48 L 144.42 63.91 L 144.04 65.29 L 144.14 66.75 L 144.69 68.37 L 147.25 73.61 L 149.68 78.91 L 150.70 82.07 L 151.27 83.52 L 152.00 84.67 Z" fill="#ffffff" fill-rule="nonzero" group-id="48" id="路径_9864" node-id="49" stroke="none" target-height="29.809998" target-width="23.990005" target-x="144.04" target-y="56.14"></path></g><g node-id="125"><path d="M 155.18 86.34 L 153.88 86.22 L 152.75 85.75 L 151.74 84.91 L 151.74 84.91 L 150.71 83.12 L 150.05 81.15 L 149.38 79.06 L 146.49 72.85 L 144.40 68.53 L 143.78 66.63 L 143.75 65.02 L 144.22 63.59 L 145.23 62.27 L 146.05 61.65 L 146.95 61.36 L 147.98 61.38 L 148.86 59.72 L 150.05 58.31 L 151.50 57.17 L 153.19 56.35 L 155.31 55.85 L 157.45 55.84 L 159.53 56.30 L 161.50 57.23 L 163.95 59.12 L 165.91 61.44 L 167.36 64.11 L 168.23 67.08 L 168.40 70.45 L 167.98 73.65 L 166.97 76.74 L 165.42 79.61 L 163.39 82.12 L 160.84 84.32 L 158.58 85.59 L 156.07 86.25 L 155.18 86.34 Z M 152.22 84.45 L 153.03 85.11 L 153.95 85.52 L 154.94 85.69 L 155.97 85.59 L 158.32 84.97 L 160.44 83.78 L 162.89 81.65 L 164.83 79.23 L 166.31 76.47 L 167.27 73.49 L 167.66 70.41 L 167.48 67.17 L 166.66 64.34 L 165.29 61.79 L 163.42 59.58 L 161.10 57.78 L 159.26 56.92 L 157.32 56.49 L 155.33 56.50 L 153.36 56.96 L 151.73 57.76 L 150.35 58.87 L 149.23 60.26 L 148.44 61.88 L 148.25 62.08 L 147.99 62.08 L 147.34 61.99 L 146.71 62.08 L 146.13 62.33 L 145.64 62.76 L 144.72 63.96 L 144.33 65.21 L 144.39 66.57 L 144.96 68.27 L 147.04 72.56 L 149.96 78.82 L 150.68 80.97 L 151.29 82.80 L 152.24 84.49 Z" fill="#231f20" fill-rule="nonzero" group-id="49" id="路径_9865" node-id="50" stroke="none" target-height="30.499996" target-width="24.649994" target-x="143.75" target-y="55.84"></path></g><g node-id="126"><path d="M 146.79 69.67 L 145.70 70.64 L 143.76 72.66 L 143.03 73.74 L 142.91 74.38 L 143.21 74.83 L 143.72 75.14 L 144.87 75.41 L 145.45 75.45" fill="#ffffff" fill-rule="nonzero" group-id="50" id="路径_9866" node-id="51" stroke="none" target-height="5.779999" target-width="3.8799896" target-x="142.91" target-y="69.67"></path></g><g node-id="127"><path d="M 145.41 75.78 L 144.58 75.71 L 143.40 75.36 L 142.90 75.00 L 142.58 74.47 L 142.64 73.80 L 143.21 72.80 L 144.99 70.84 L 146.56 69.41 L 146.81 69.33 L 147.04 69.45 L 147.12 69.69 L 147.00 69.92 L 144.32 72.52 L 143.38 73.75 L 143.23 74.27 L 143.57 74.67 L 144.22 74.94 L 145.44 75.10 L 145.44 75.10 L 145.68 75.20 L 145.78 75.43 L 145.68 75.67 L 145.45 75.78 Z" fill="#231f20" fill-rule="nonzero" group-id="51" id="路径_9867" node-id="52" stroke="none" target-height="6.449997" target-width="4.5399933" target-x="142.58" target-y="69.33"></path></g><g node-id="128"><path d="M 144.49 93.95 L 146.35 93.88 L 148.51 93.41 L 150.66 92.70 L 152.71 91.86 L 156.04 90.20 L 157.41 89.36 L 158.59 84.70 L 159.53 79.99 L 158.67 79.59 L 157.88 79.04 L 156.91 78.03 L 156.12 76.71 L 155.50 74.72 L 154.83 72.77 L 153.82 71.27 L 151.26 68.33 L 150.09 66.54 L 149.08 63.95 L 148.07 64.63 L 147.33 65.61 L 146.79 66.77 L 146.39 68.04 L 145.79 70.44 L 143.52 79.39 L 143.67 80.26 L 144.50 81.09 L 145.67 81.74 L 146.97 82.20 L 148.24 82.45 L 148.90 82.41 L 148.26 84.19 L 147.58 85.98 L 146.46 88.88 L 144.49 93.95 Z" fill="#ffffff" fill-rule="nonzero" group-id="52" id="路径_9868" node-id="53" stroke="none" target-height="29.999996" target-width="16.009995" target-x="143.52" target-y="63.95"></path></g><g node-id="129"><path d="M 144.99 94.31 L 144.47 94.31 L 144.21 94.16 L 144.21 93.86 L 146.52 87.89 L 147.68 84.92 L 148.48 82.82 L 146.84 82.52 L 145.32 81.93 L 143.91 81.03 L 143.33 80.28 L 143.23 79.34 L 145.51 70.38 L 145.80 69.23 L 146.21 67.62 L 146.80 66.01 L 147.69 64.62 L 148.99 63.68 L 149.27 63.68 L 149.45 63.89 L 150.29 66.08 L 151.47 68.03 L 153.01 69.79 L 154.80 71.97 L 155.43 73.17 L 155.87 74.69 L 156.44 76.56 L 157.16 77.79 L 158.04 78.76 L 158.78 79.29 L 159.64 79.69 L 159.84 79.83 L 159.88 80.07 L 158.94 84.81 L 157.75 89.49 L 156.35 90.44 L 153.08 92.08 L 148.95 93.62 L 146.83 94.13 L 144.99 94.31 Z M 144.99 93.64 L 146.68 93.48 L 148.61 93.03 L 152.38 91.63 L 155.49 90.12 L 157.10 89.16 L 158.23 84.71 L 159.12 80.21 L 157.62 79.27 L 156.43 78.01 L 155.59 76.50 L 155.16 74.78 L 154.75 73.38 L 154.14 72.26 L 152.47 70.22 L 150.96 68.49 L 149.76 66.57 L 148.87 64.45 L 147.93 65.33 L 147.25 66.57 L 146.42 69.36 L 146.12 70.54 L 143.84 79.47 L 143.93 80.06 L 144.31 80.51 L 145.71 81.38 L 147.21 81.90 L 148.84 82.10 L 149.19 82.19 L 149.25 82.54 L 148.58 84.28 L 147.92 86.03 L 146.85 88.81 L 144.97 93.64 Z" fill="#231f20" fill-rule="nonzero" group-id="53" id="路径_9869" node-id="54" stroke="none" target-height="30.629997" target-width="16.65001" target-x="143.23" target-y="63.68"></path></g><g node-id="130"><path d="M 144.24 77.21 L 145.09 77.86 L 146.13 78.10 L 147.17 77.89 L 148.03 77.26" fill="#ffffff" fill-rule="nonzero" group-id="54" id="路径_9870" node-id="55" stroke="none" target-height="0.8899994" target-width="3.7899933" target-x="144.24" target-y="77.21"></path></g><g node-id="131"><path d="M 146.24 78.48 L 146.24 78.48 L 145.03 78.17 L 144.01 77.44 L 143.93 77.20 L 144.04 76.96 L 144.28 76.87 L 144.51 76.98 L 145.30 77.55 L 146.25 77.81 L 147.11 77.57 L 147.81 77.03 L 148.14 76.92 L 148.39 77.16 L 148.30 77.49 L 147.38 78.21 L 146.24 78.48 Z" fill="#231f20" fill-rule="nonzero" group-id="55" id="路径_9871" node-id="56" stroke="none" target-height="1.6100006" target-width="4.4600067" target-x="143.93" target-y="76.87"></path></g><g node-id="132"><path d="M 148.96 82.42 L 150.44 82.54 L 151.82 82.28 L 153.16 81.63 L 152.62 82.80 L 151.93 83.85 L 150.82 85.01 L 149.40 85.88 L 147.46 86.31 Z" fill="#231f20" fill-rule="nonzero" group-id="56" id="路径_9872" node-id="57" stroke="none" target-height="4.6800003" target-width="5.699997" target-x="147.46" target-y="81.63"></path></g><g node-id="133"><path d="M 147.46 86.65 L 147.18 86.51 L 147.14 86.19 L 148.65 82.30 L 149.04 82.09 L 150.41 82.20 L 151.70 81.97 L 152.94 81.37 L 153.34 81.37 L 153.48 81.75 L 152.90 83.00 L 152.17 84.10 L 150.99 85.31 L 149.50 86.22 L 147.48 86.67 Z M 149.18 82.80 L 147.98 85.93 L 149.38 85.48 L 150.61 84.73 L 151.63 83.72 L 152.41 82.47 L 150.82 82.86 L 149.18 82.80 Z" fill="#231f20" fill-rule="nonzero" group-id="57" id="路径_9873" node-id="58" stroke="none" target-height="5.2999954" target-width="6.3399963" target-x="147.14" target-y="81.37"></path></g><g node-id="134"><path d="M 148.44 67.46 L 148.65 67.77 L 148.63 68.62 L 148.30 69.42 L 147.98 69.61 L 147.76 69.30 L 147.79 68.45 L 148.12 67.65 L 148.44 67.46 Z" fill="#231f20" fill-rule="nonzero" group-id="58" id="椭圆_160" node-id="59" stroke="none" target-height="2.1500015" target-width="0.8899994" target-x="147.76" target-y="67.46"></path></g><g node-id="135"><path d="M 152.38 72.91 L 152.96 71.92 L 153.79 71.12 L 155.25 70.09 L 156.11 69.89 L 156.98 70.09 L 157.57 70.61 L 157.88 71.33 L 157.95 72.12 L 157.83 72.91 L 157.20 74.53 L 156.20 75.91 L 154.88 76.98 L 153.29 77.69 L 153.50 77.56" fill="#ffffff" fill-rule="nonzero" group-id="59" id="路径_9874" node-id="60" stroke="none" target-height="7.800003" target-width="5.569992" target-x="152.38" target-y="69.89"></path></g><g node-id="136"><path d="M 153.28 78.00 L 152.97 77.81 L 153.11 77.39 L 153.32 77.25 L 153.59 77.22 L 154.96 76.50 L 156.09 75.50 L 156.95 74.26 L 157.50 72.81 L 157.60 72.10 L 157.55 71.39 L 157.30 70.80 L 156.82 70.36 L 156.10 70.22 L 155.38 70.40 L 154.04 71.38 L 153.25 72.10 L 152.69 73.01 L 152.52 73.21 L 152.27 73.23 L 152.07 73.07 L 152.04 72.82 L 152.67 71.73 L 153.57 70.86 L 155.11 69.78 L 156.12 69.54 L 157.13 69.78 L 157.83 70.40 L 158.20 71.25 L 158.27 72.11 L 158.15 72.97 L 157.48 74.68 L 156.43 76.13 L 155.04 77.26 L 153.36 78.01 Z" fill="#231f20" fill-rule="nonzero" group-id="60" id="路径_9875" node-id="61" stroke="none" target-height="8.470001" target-width="6.230011" target-x="152.04" target-y="69.54"></path></g><g node-id="137"><path d="M 143.70 90.42 L 145.23 89.86 L 149.06 88.70 L 151.44 88.15 L 154.00 87.75 L 156.57 87.60 L 158.91 87.81 L 160.37 88.20 L 161.59 88.83 L 162.60 89.68 L 163.93 91.45 L 165.18 93.91 L 166.35 97.24 L 167.15 100.68 L 167.80 105.13 L 168.23 110.82 L 168.35 116.50 L 168.19 123.48 L 167.70 131.96 L 134.01 130.76 L 134.24 127.99 L 134.96 121.00 L 136.23 111.77 L 137.08 106.89 L 138.08 102.27 L 139.28 97.90 L 140.55 94.50 L 141.63 92.44 L 142.68 91.15 L 143.70 90.42 Z" fill="#ff595e" fill-rule="nonzero" group-id="61" id="路径_9876" node-id="62" stroke="none" target-height="44.36001" target-width="34.34001" target-x="134.01" target-y="87.6"></path></g><g node-id="138"><path d="M 123.74 98.12 L 121.64 95.66 L 117.96 90.85 L 113.86 85.15 L 110.52 79.99 L 109.40 77.86 L 109.08 76.83 L 108.63 73.59 L 107.84 70.60 L 107.36 69.60 L 107.06 69.47 L 106.79 69.85 L 106.50 70.87 L 106.16 73.11 L 106.05 74.28 L 105.53 73.38 L 104.28 71.41 L 102.78 69.45 L 102.02 68.76 L 101.51 68.58 L 100.79 68.83 L 99.74 69.64 L 98.76 70.71 L 97.89 71.95 L 97.28 73.25 L 97.12 74.28 L 98.33 77.71 L 101.34 84.84 L 105.54 93.77 L 107.92 98.37 L 110.31 102.62 L 112.80 106.58 L 115.01 109.52 L 116.63 111.23 L 117.94 112.17 L 119.01 112.58 L 121.25 112.63 L 124.26 112.23 L 127.41 111.50 L 130.84 110.50 L 137.45 108.21 L 142.78 106.17 L 145.50 105.17 L 146.00 104.82 L 146.86 103.63 L 147.63 102.14 L 148.40 100.17 L 148.97 98.08 L 149.26 95.94 L 149.16 93.86 L 148.58 92.09 L 147.90 91.12 L 146.89 90.35 L 145.50 89.78 L 143.38 90.77 L 138.29 93.09 L 132.08 95.75 L 126.61 97.76 L 124.49 98.23 L 123.74 98.12 Z" fill="#ffffff" fill-rule="nonzero" group-id="62" id="路径_9877" node-id="63" stroke="none" target-height="44.049995" target-width="52.13999" target-x="97.12" target-y="68.58"></path></g><g node-id="139"><path d="M 120.32 112.99 L 118.98 112.90 L 117.86 112.49 L 116.50 111.54 L 114.85 109.83 L 112.59 106.87 L 110.07 102.90 L 107.65 98.63 L 105.25 94.01 L 101.02 85.03 L 97.99 77.83 L 96.77 74.30 L 96.89 73.31 L 97.37 72.15 L 98.79 70.09 L 99.90 69.02 L 100.71 68.47 L 101.48 68.24 L 101.48 68.24 L 102.08 68.44 L 102.88 69.11 L 104.44 71.08 L 105.77 73.18 L 106.16 70.65 L 106.51 69.59 L 106.87 69.14 L 107.36 69.14 L 107.77 69.63 L 108.27 70.84 L 109.00 73.88 L 109.38 76.76 L 109.68 77.73 L 110.77 79.79 L 114.03 84.83 L 118.05 90.46 L 121.71 95.26 L 123.92 97.81 L 124.50 97.86 L 126.30 97.44 L 131.32 95.62 L 137.99 92.80 L 145.32 89.42 L 145.54 89.42 L 147.01 90.01 L 148.11 90.87 L 148.91 92.03 L 149.41 93.55 L 149.58 95.55 L 149.34 97.70 L 148.78 99.93 L 147.98 102.05 L 147.14 103.71 L 146.18 105.04 L 145.54 105.47 L 144.43 105.85 L 142.39 106.64 L 137.51 108.53 L 131.56 110.61 L 125.51 112.30 L 122.65 112.82 L 120.32 112.99 Z M 101.52 68.91 L 101.52 68.91 L 100.84 69.19 L 99.35 70.53 L 98.52 71.59 L 97.93 72.57 L 97.55 73.54 L 97.47 74.24 L 98.70 77.78 L 101.74 84.89 L 105.96 93.74 L 108.32 98.28 L 110.68 102.47 L 113.13 106.37 L 115.27 109.25 L 116.84 110.94 L 118.08 111.85 L 119.07 112.23 L 121.21 112.29 L 124.10 111.91 L 127.12 111.22 L 130.44 110.27 L 136.87 108.07 L 142.18 106.03 L 145.44 104.83 L 145.84 104.52 L 146.65 103.32 L 147.40 101.84 L 148.16 99.85 L 148.71 97.74 L 148.95 95.56 L 148.75 93.41 L 148.10 91.89 L 147.05 90.82 L 145.54 90.13 L 143.61 91.04 L 139.94 92.73 L 135.34 94.75 L 130.42 96.78 L 127.61 97.80 L 125.32 98.45 L 124.37 98.59 L 123.71 98.51 L 123.53 98.38 L 121.45 95.95 L 117.75 91.12 L 113.60 85.36 L 110.20 80.12 L 109.06 77.93 L 108.72 76.84 L 108.36 74.03 L 107.74 71.39 L 107.12 69.85 L 106.60 72.05 L 106.37 74.29 L 106.11 74.60 L 105.74 74.43 L 104.15 71.82 L 102.61 69.75 L 101.91 69.08 L 101.53 68.91 Z" fill="#231f20" fill-rule="nonzero" group-id="63" id="路径_9878" node-id="64" stroke="none" target-height="44.75" target-width="52.810005" target-x="96.77" target-y="68.24"></path></g><g node-id="140"><path d="M 134.01 130.79 L 133.23 136.01 L 167.70 136.01 L 167.70 131.96 Z" fill="#231f20" fill-rule="nonzero" group-id="64" id="路径_9879" node-id="65" stroke="none" target-height="5.220001" target-width="34.47" target-x="133.23" target-y="130.79"></path></g><g node-id="141"><path d="M 167.71 136.34 L 133.23 136.34 L 132.97 136.23 L 132.90 135.96 L 133.67 130.74 L 133.78 130.52 L 134.01 130.45 L 167.71 131.62 L 167.93 131.73 L 168.03 131.96 L 168.03 136.00 L 167.94 136.24 L 167.71 136.34 Z M 133.62 135.67 L 167.37 135.67 L 167.37 132.30 L 134.29 131.15 Z" fill="#231f20" fill-rule="nonzero" group-id="65" id="路径_9880" node-id="66" stroke="none" target-height="5.8899994" target-width="35.130005" target-x="132.9" target-y="130.45"></path></g><g node-id="142"><path d="M 27.49 22.99 L 10.43 22.99 L 10.19 22.89 L 10.09 22.65 L 10.19 22.42 L 10.43 22.32 L 27.49 22.32 L 27.80 22.48 L 27.80 22.83 L 27.49 22.99 Z" fill="#d1d3d4" fill-rule="nonzero" group-id="66" id="路径_9881" node-id="67" stroke="none" target-height="0.6700001" target-width="17.71" target-x="10.09" target-y="22.32"></path></g><g node-id="143"><path d="M 18.97 32.58 L 10.43 32.58 L 10.19 32.48 L 10.09 32.24 L 10.19 32.01 L 10.43 31.91 L 18.97 31.91 L 19.19 32.01 L 19.28 32.24 L 19.19 32.48 L 18.97 32.58 Z" fill="#d1d3d4" fill-rule="nonzero" group-id="67" id="路径_9882" node-id="68" stroke="none" target-height="0.670002" target-width="9.190001" target-x="10.09" target-y="31.91"></path></g><g node-id="144"><path d="M 191.07 110.12 L 179.15 110.12 L 178.92 110.01 L 178.83 109.78 L 178.92 109.55 L 179.15 109.44 L 191.08 109.44 L 191.38 109.61 L 191.38 109.96 L 191.07 110.12 Z" fill="#d1d3d4" fill-rule="nonzero" group-id="68" id="路径_9883" node-id="69" stroke="none" target-height="0.6800003" target-width="12.550003" target-x="178.83" target-y="109.44"></path></g><g node-id="145"><path d="M 186.64 117.21 L 179.14 117.21 L 178.84 117.05 L 178.84 116.70 L 179.14 116.53 L 186.66 116.53 L 186.89 116.64 L 186.99 116.87 L 186.89 117.11 L 186.64 117.21 Z" fill="#d1d3d4" fill-rule="nonzero" group-id="69" id="路径_9884" node-id="70" stroke="none" target-height="0.6800003" target-width="8.150009" target-x="178.84" target-y="116.53"></path></g><g node-id="146"><path d="M 190.10 128.49 L 181.10 128.49 L 180.20 128.30 L 179.47 127.81 L 178.98 127.08 L 178.80 126.18 L 178.80 124.71 L 178.98 123.80 L 179.47 123.08 L 180.20 122.58 L 181.10 122.40 L 190.10 122.40 L 191.00 122.58 L 191.73 123.08 L 192.22 123.80 L 192.40 124.71 L 192.40 126.16 L 192.23 127.05 L 191.73 127.80 L 190.98 128.31 L 190.10 128.49 Z M 181.10 123.10 L 180.46 123.23 L 179.95 123.58 L 179.60 124.10 L 179.47 124.74 L 179.47 126.19 L 179.60 126.83 L 179.95 127.35 L 180.46 127.70 L 181.10 127.83 L 190.10 127.83 L 190.74 127.70 L 191.25 127.35 L 191.60 126.83 L 191.73 126.19 L 191.73 124.71 L 191.60 124.06 L 191.25 123.55 L 190.74 123.20 L 190.10 123.07 Z" fill="#d1d3d4" fill-rule="nonzero" group-id="70" id="路径_9885" node-id="71" stroke="none" target-height="6.090004" target-width="13.599991" target-x="178.8" target-y="122.4"></path></g><g node-id="147"><path d="M 14.69 49.53 L 13.28 49.33 L 12.06 48.83 L 11.00 48.01 L 10.18 46.95 L 9.68 45.74 L 9.48 44.32 L 9.68 42.90 L 10.18 41.69 L 11.00 40.63 L 12.06 39.81 L 13.28 39.30 L 14.69 39.10 L 16.11 39.30 L 17.32 39.81 L 18.38 40.63 L 19.20 41.69 L 19.71 42.90 L 19.91 44.32 L 19.71 45.74 L 19.20 46.95 L 18.38 48.01 L 17.32 48.83 L 16.11 49.33 L 14.69 49.53 Z M 14.69 39.78 L 13.46 39.95 L 12.40 40.39 L 11.48 41.11 L 10.77 42.03 L 10.32 43.09 L 10.15 44.32 L 10.32 45.55 L 10.77 46.61 L 11.48 47.53 L 12.40 48.25 L 13.46 48.69 L 14.69 48.86 L 15.93 48.69 L 16.98 48.25 L 17.90 47.53 L 18.62 46.61 L 19.06 45.55 L 19.23 44.32 L 19.06 43.09 L 18.62 42.03 L 17.90 41.11 L 16.98 40.39 L 15.93 39.95 L 14.69 39.78 Z" fill="#d1d3d4" fill-rule="nonzero" group-id="71" id="路径_9886" node-id="72" stroke="none" target-height="10.43" target-width="10.43" target-x="9.48" target-y="39.1"></path></g><path d="M 14.69 46.04 L 14.69 46.04 L 14.45 45.90 L 12.49 43.21 L 12.43 42.96 L 12.56 42.74 L 12.81 42.67 L 13.04 42.81 L 14.77 45.17 L 21.60 38.44 L 21.84 38.34 L 22.07 38.44 L 22.17 38.68 L 22.07 38.92 L 14.93 45.96 L 14.69 46.04 Z" fill="#d1d3d4" fill-rule="nonzero" group-id="72" id="路径_9887" node-id="73" stroke="none" target-height="7.700001" target-width="9.74" target-x="12.43" target-y="38.34"></path></svg>