<?xml version="1.0" standalone="no"?><!DOCTYPE svg PUBLIC "-//W3C//DTD SVG 1.1//EN" "http://www.w3.org/Graphics/SVG/1.1/DTD/svg11.dtd"><svg height="143" node-id="1" sillyvg="true" template-height="143" template-width="164" version="1.1" viewBox="0 0 164 143" width="164" xmlns="http://www.w3.org/2000/svg" xmlns:xlink="http://www.w3.org/1999/xlink"><defs node-id="83"></defs><g node-id="85"><path d="M 111.30 77.13 L 111.30 9.15 L 128.53 22.11 L 128.53 90.10 Z" fill="#d1d3d4" fill-rule="nonzero" group-id="1" id="路径_9290" node-id="2" stroke="none" target-height="80.95" target-width="17.229996" target-x="111.3" target-y="9.15"></path></g><g node-id="86"><path d="M 128.53 90.40 L 128.34 90.34 L 111.12 77.38 L 110.99 77.14 L 110.99 9.15 L 111.16 8.88 L 111.49 8.91 L 128.71 21.87 L 128.84 22.12 L 128.84 90.09 L 128.67 90.37 L 128.53 90.40 Z M 111.61 76.98 L 128.22 89.48 L 128.22 22.27 L 111.61 9.77 Z" fill="#231f20" fill-rule="nonzero" group-id="2" id="路径_9291" node-id="3" stroke="none" target-height="81.520004" target-width="17.849998" target-x="110.99" target-y="8.88"></path></g><g node-id="87"><path d="M 128.53 90.10 L 148.95 80.78 L 148.95 12.79 L 128.53 22.11 Z" fill="#ffffff" fill-rule="nonzero" group-id="3" id="路径_9292" node-id="4" stroke="none" target-height="77.31" target-width="20.419998" target-x="128.53" target-y="12.79"></path></g><g node-id="88"><path d="M 128.53 90.44 L 128.29 90.34 L 128.19 90.10 L 128.19 22.12 L 128.39 21.82 L 148.82 12.50 L 149.14 12.50 L 149.30 12.78 L 149.30 80.75 L 149.09 81.05 L 128.67 90.40 L 128.53 90.44 Z M 128.86 22.33 L 128.86 89.58 L 148.62 80.55 L 148.62 13.31 Z" fill="#231f20" fill-rule="nonzero" group-id="4" id="路径_9293" node-id="5" stroke="none" target-height="77.94" target-width="21.11" target-x="128.19" target-y="12.5"></path></g><g node-id="89"><path d="M 128.53 22.11 L 148.95 12.79 L 132.56 0.34 L 111.30 9.15 Z" fill="#ffffff" fill-rule="nonzero" group-id="5" id="路径_9294" node-id="6" stroke="none" target-height="21.77" target-width="37.649994" target-x="111.3" target-y="0.34"></path></g><g node-id="90"><path d="M 128.53 22.45 L 128.33 22.38 L 111.10 9.42 L 110.97 9.11 L 111.17 8.84 L 132.43 0.03 L 132.76 0.07 L 149.16 12.52 L 149.30 12.82 L 149.10 13.09 L 128.67 22.42 L 128.53 22.45 Z M 111.97 9.24 L 128.57 21.72 L 148.30 12.71 L 132.51 0.72 Z" fill="#231f20" fill-rule="nonzero" group-id="6" id="路径_9295" node-id="7" stroke="none" target-height="22.42" target-width="38.33" target-x="110.97" target-y="0.03"></path></g><g node-id="91"><path d="M 87.87 88.02 L 87.87 53.14 L 105.09 66.11 L 105.09 100.98 Z" fill="#d1d3d4" fill-rule="nonzero" group-id="7" id="路径_9296" node-id="8" stroke="none" target-height="47.840004" target-width="17.219994" target-x="87.87" target-y="53.14"></path></g><g node-id="92"><path d="M 105.09 101.29 L 104.91 101.23 L 87.68 88.27 L 87.56 88.02 L 87.56 53.15 L 87.73 52.87 L 88.05 52.87 L 105.28 65.84 L 105.40 66.08 L 105.40 100.95 L 105.23 101.23 L 105.09 101.29 Z M 88.17 87.83 L 104.77 100.37 L 104.77 66.26 L 88.16 53.76 Z" fill="#231f20" fill-rule="nonzero" group-id="8" id="路径_9297" node-id="9" stroke="none" target-height="48.420002" target-width="17.840004" target-x="87.56" target-y="52.87"></path></g><g node-id="93"><path d="M 105.09 100.98 L 125.52 91.66 L 125.52 56.79 L 105.09 66.11 Z" fill="#ffffff" fill-rule="nonzero" group-id="9" id="路径_9298" node-id="10" stroke="none" target-height="44.190002" target-width="20.43" target-x="105.09" target-y="56.79"></path></g><g node-id="94"><path d="M 105.09 101.32 L 104.91 101.27 L 104.76 100.98 L 104.76 66.11 L 104.96 65.80 L 125.39 56.48 L 125.71 56.48 L 125.86 56.77 L 125.86 91.64 L 125.66 91.95 L 105.24 101.29 L 105.10 101.32 Z M 105.43 66.32 L 105.43 100.45 L 125.19 91.44 L 125.19 57.31 Z" fill="#231f20" fill-rule="nonzero" group-id="10" id="路径_9299" node-id="11" stroke="none" target-height="44.84" target-width="21.099998" target-x="104.76" target-y="56.48"></path></g><g node-id="95"><path d="M 105.09 66.11 L 125.52 56.79 L 109.13 44.34 L 87.87 53.14 Z" fill="#ffffff" fill-rule="nonzero" group-id="11" id="路径_9300" node-id="12" stroke="none" target-height="21.77" target-width="37.649994" target-x="87.87" target-y="44.34"></path></g><g node-id="96"><path d="M 105.09 66.45 L 104.89 66.38 L 87.67 53.41 L 87.53 53.10 L 87.73 52.83 L 109.00 44.02 L 109.33 44.07 L 125.73 56.53 L 125.86 56.83 L 125.66 57.10 L 105.23 66.42 L 105.09 66.45 Z M 88.54 53.23 L 105.14 65.72 L 124.88 56.71 L 109.08 44.72 Z" fill="#231f20" fill-rule="nonzero" group-id="12" id="路径_9301" node-id="13" stroke="none" target-height="22.429996" target-width="38.33" target-x="87.53" target-y="44.02"></path></g><g node-id="97"><path d="M 64.44 98.91 L 64.44 43.51 L 81.66 56.47 L 81.66 111.87 Z" fill="#d1d3d4" fill-rule="nonzero" group-id="13" id="路径_9302" node-id="14" stroke="none" target-height="68.36" target-width="17.220001" target-x="64.44" target-y="43.51"></path></g><g node-id="98"><path d="M 81.67 112.18 L 81.48 112.11 L 64.25 99.15 L 64.13 98.91 L 64.13 43.51 L 64.30 43.24 L 64.62 43.26 L 81.85 56.23 L 81.97 56.48 L 81.97 111.88 L 81.88 112.09 L 81.67 112.19 Z M 64.74 98.72 L 81.35 111.25 L 81.35 56.63 L 64.74 44.15 Z" fill="#231f20" fill-rule="nonzero" group-id="14" id="路径_9303" node-id="15" stroke="none" target-height="68.95" target-width="17.840004" target-x="64.13" target-y="43.24"></path></g><g node-id="99"><path d="M 81.67 111.87 L 102.09 102.55 L 102.09 47.15 L 81.67 56.47 Z" fill="#ffffff" fill-rule="nonzero" group-id="15" id="路径_9304" node-id="16" stroke="none" target-height="64.72" target-width="20.419998" target-x="81.67" target-y="47.15"></path></g><g node-id="100"><path d="M 81.67 112.21 L 81.49 112.15 L 81.33 111.87 L 81.33 56.47 L 81.53 56.16 L 101.96 46.84 L 102.28 46.84 L 102.44 47.12 L 102.44 102.52 L 102.23 102.82 L 81.81 112.14 L 81.67 112.21 Z M 82.01 56.69 L 82.01 111.35 L 101.76 102.34 L 101.76 47.67 Z" fill="#231f20" fill-rule="nonzero" group-id="16" id="路径_9305" node-id="17" stroke="none" target-height="65.369995" target-width="21.11" target-x="81.33" target-y="46.84"></path></g><g node-id="101"><path d="M 81.66 56.48 L 102.09 47.15 L 85.70 34.70 L 64.44 43.51 Z" fill="#ffffff" fill-rule="nonzero" group-id="17" id="路径_9306" node-id="18" stroke="none" target-height="21.779999" target-width="37.649994" target-x="64.44" target-y="34.7"></path></g><g node-id="102"><path d="M 81.67 56.81 L 81.47 56.74 L 64.24 43.77 L 64.10 43.46 L 64.31 43.19 L 85.57 34.38 L 85.90 34.43 L 102.30 46.88 L 102.43 47.18 L 102.23 47.45 L 81.80 56.77 L 81.67 56.81 Z M 65.11 43.59 L 81.71 56.08 L 101.42 47.08 L 85.63 35.08 Z" fill="#231f20" fill-rule="nonzero" group-id="18" id="路径_9307" node-id="19" stroke="none" target-height="22.43" target-width="38.33" target-x="64.1" target-y="34.38"></path></g><g node-id="103"><path d="M 41.01 109.79 L 41.01 75.46 L 58.23 88.42 L 58.23 122.75 Z" fill="#d1d3d4" fill-rule="nonzero" group-id="19" id="路径_9308" node-id="20" stroke="none" target-height="47.29" target-width="17.220001" target-x="41.01" target-y="75.46"></path></g><g node-id="104"><path d="M 58.23 123.06 L 58.05 123.00 L 40.84 110.04 L 40.72 109.79 L 40.72 75.47 L 40.89 75.19 L 41.21 75.19 L 58.44 88.15 L 58.56 88.40 L 58.56 122.72 L 58.39 122.99 L 58.23 123.06 Z M 41.31 109.64 L 57.92 122.14 L 57.92 88.57 L 41.31 76.08 Z" fill="#231f20" fill-rule="nonzero" group-id="20" id="路径_9309" node-id="21" stroke="none" target-height="47.869995" target-width="17.84" target-x="40.72" target-y="75.19"></path></g><g node-id="105"><path d="M 58.23 122.75 L 78.66 113.43 L 78.66 79.10 L 58.23 88.42 Z" fill="#ffffff" fill-rule="nonzero" group-id="21" id="路径_9310" node-id="22" stroke="none" target-height="43.65" target-width="20.430004" target-x="58.23" target-y="79.1"></path></g><g node-id="106"><path d="M 58.23 123.10 L 58.05 123.04 L 57.89 122.76 L 57.89 88.44 L 58.09 88.14 L 78.53 78.80 L 78.85 78.80 L 79.01 79.09 L 79.01 113.41 L 78.81 113.72 L 58.38 123.04 L 58.23 123.10 Z M 58.57 88.65 L 58.57 122.22 L 78.32 113.20 L 78.32 79.63 Z" fill="#231f20" fill-rule="nonzero" group-id="22" id="路径_9311" node-id="23" stroke="none" target-height="44.299995" target-width="21.120003" target-x="57.89" target-y="78.8"></path></g><g node-id="107"><path d="M 58.23 88.42 L 78.66 79.10 L 62.26 66.65 L 41.00 75.46 Z" fill="#ffffff" fill-rule="nonzero" group-id="23" id="路径_9312" node-id="24" stroke="none" target-height="21.769997" target-width="37.660004" target-x="41" target-y="66.65"></path></g><g node-id="108"><path d="M 58.23 88.76 L 58.03 88.69 L 40.80 75.73 L 40.67 75.42 L 40.87 75.15 L 62.14 66.36 L 62.47 66.40 L 78.87 78.86 L 79.00 79.16 L 78.79 79.43 L 58.37 88.75 L 58.23 88.76 Z M 41.68 75.55 L 58.28 88.04 L 78.01 79.03 L 62.21 67.03 Z" fill="#231f20" fill-rule="nonzero" group-id="24" id="路径_9313" node-id="25" stroke="none" target-height="22.400002" target-width="38.33" target-x="40.67" target-y="66.36"></path></g><g node-id="109"><path d="M 17.57 120.68 L 17.57 98.39 L 34.80 111.35 L 34.80 133.64 Z" fill="#d1d3d4" fill-rule="nonzero" group-id="25" id="路径_9314" node-id="26" stroke="none" target-height="35.25" target-width="17.23" target-x="17.57" target-y="98.39"></path></g><g node-id="110"><path d="M 34.78 133.96 L 34.59 133.90 L 17.37 120.93 L 17.24 120.68 L 17.24 98.39 L 17.42 98.12 L 17.73 98.12 L 34.96 111.08 L 35.09 111.32 L 35.09 133.66 L 34.92 133.94 L 34.78 133.96 Z M 17.86 120.50 L 34.47 133.00 L 34.47 111.46 L 17.86 98.96 Z" fill="#231f20" fill-rule="nonzero" group-id="26" id="路径_9315" node-id="27" stroke="none" target-height="35.840004" target-width="17.85" target-x="17.24" target-y="98.12"></path></g><g node-id="111"><path d="M 34.80 133.64 L 55.23 124.32 L 55.23 102.03 L 34.80 111.35 Z" fill="#ffffff" fill-rule="nonzero" group-id="27" id="路径_9316" node-id="28" stroke="none" target-height="31.61" target-width="20.43" target-x="34.8" target-y="102.03"></path></g><g node-id="112"><path d="M 34.78 133.98 L 34.60 133.93 L 34.44 133.64 L 34.44 111.35 L 34.64 111.05 L 55.07 101.73 L 55.39 101.75 L 55.55 102.03 L 55.55 124.32 L 55.35 124.63 L 34.91 133.95 L 34.78 133.98 Z M 35.12 111.58 L 35.12 133.11 L 54.87 124.10 L 54.87 102.56 Z" fill="#231f20" fill-rule="nonzero" group-id="28" id="路径_9317" node-id="29" stroke="none" target-height="32.249992" target-width="21.11" target-x="34.44" target-y="101.73"></path></g><g node-id="113"><path d="M 34.80 111.35 L 55.23 102.03 L 38.83 89.58 L 17.57 98.39 Z" fill="#ffffff" fill-rule="nonzero" group-id="29" id="路径_9318" node-id="30" stroke="none" target-height="21.769997" target-width="37.66" target-x="17.57" target-y="89.58"></path></g><g node-id="114"><path d="M 34.78 111.69 L 34.58 111.62 L 17.37 98.67 L 17.23 98.36 L 17.45 98.09 L 38.71 89.24 L 39.04 89.28 L 55.43 101.73 L 55.57 102.05 L 55.37 102.31 L 34.93 111.64 L 34.78 111.69 Z M 18.22 98.48 L 34.82 110.97 L 54.56 101.96 L 38.76 89.96 Z" fill="#231f20" fill-rule="nonzero" group-id="30" id="路径_9319" node-id="31" stroke="none" target-height="22.450005" target-width="38.34" target-x="17.23" target-y="89.24"></path></g><g node-id="115"><path d="M 39.60 25.31 L 36.53 25.23 L 35.71 25.11 L 34.93 24.83 L 34.30 24.30 L 34.00 23.54 L 34.23 22.78 L 34.93 22.40 L 32.69 20.93 L 31.87 20.23 L 31.22 19.36 L 30.98 18.34 L 31.30 17.34 L 31.92 16.84 L 32.73 16.58 L 34.42 16.12 L 32.28 14.73 L 31.89 14.41 L 31.73 13.86 L 31.89 13.31 L 32.76 12.52 L 34.48 11.76 L 36.26 11.43 L 38.14 11.53 L 37.23 10.30 L 37.03 9.88 L 37.27 9.45 L 37.77 9.28 L 38.79 9.40 L 39.76 9.71 L 41.44 10.08 L 43.12 10.39 L 44.49 10.89 L 45.80 11.79 L 46.79 12.99 L 47.24 14.42 L 47.20 14.94 L 47.01 15.40 L 46.68 15.78 L 46.23 16.04 L 45.97 18.03 L 45.34 19.88 L 44.34 21.62 L 43.10 23.34 L 41.52 24.76 L 40.59 25.14 L 39.60 25.31 Z" fill="#ffffff" fill-rule="nonzero" group-id="31" id="路径_9320" node-id="32" stroke="none" target-height="16.029999" target-width="16.260002" target-x="30.98" target-y="9.28"></path></g><g node-id="116"><path d="M 38.62 25.68 L 36.50 25.55 L 35.61 25.42 L 34.77 25.12 L 34.02 24.48 L 33.66 23.56 L 33.74 22.98 L 34.04 22.47 L 34.18 22.35 L 32.49 21.20 L 31.61 20.45 L 30.93 19.51 L 30.66 18.68 L 30.69 17.90 L 31.03 17.10 L 31.97 16.42 L 33.09 16.12 L 33.66 15.99 L 32.09 14.97 L 31.62 14.58 L 31.40 13.83 L 31.62 13.09 L 32.05 12.58 L 32.60 12.19 L 34.14 11.48 L 35.74 11.10 L 37.44 11.06 L 37.00 10.48 L 36.73 9.87 L 36.80 9.48 L 37.04 9.19 L 37.79 8.91 L 38.66 8.98 L 39.51 9.23 L 39.90 9.36 L 41.82 9.76 L 43.26 10.03 L 44.76 10.59 L 46.14 11.55 L 47.16 12.83 L 47.62 14.34 L 47.53 15.14 L 47.19 15.77 L 46.56 16.28 L 46.27 18.25 L 45.63 20.07 L 44.63 21.79 L 43.33 23.57 L 41.69 25.05 L 40.71 25.45 L 39.67 25.63 L 39.67 25.63 L 38.62 25.68 Z M 39.60 25.30 Z M 36.80 11.71 L 34.79 11.98 L 32.93 12.77 L 32.18 13.45 L 32.07 13.81 L 32.18 14.18 L 32.49 14.42 L 34.62 15.82 L 34.78 16.13 L 34.58 16.40 L 33.23 16.79 L 32.34 17.01 L 31.57 17.52 L 31.32 18.36 L 31.53 19.22 L 32.12 20.02 L 32.88 20.67 L 35.08 22.11 L 35.24 22.48 L 34.92 22.74 L 34.52 22.94 L 34.31 23.53 L 34.56 24.13 L 35.07 24.54 L 36.54 24.90 L 39.56 24.98 L 40.45 24.83 L 41.30 24.49 L 42.80 23.11 L 43.99 21.46 L 44.97 19.78 L 45.58 18.00 L 45.82 16.08 L 46.08 15.75 L 46.73 15.21 L 46.89 14.40 L 46.49 13.14 L 45.58 12.04 L 44.36 11.19 L 43.04 10.69 L 41.64 10.43 L 39.62 10.00 L 39.21 9.87 L 37.76 9.58 L 37.32 9.83 L 37.46 10.07 L 38.38 11.30 L 38.38 11.68 L 38.03 11.83 L 36.80 11.71 Z" fill="#231f20" fill-rule="nonzero" group-id="32" id="路径_9321" node-id="33" stroke="none" target-height="16.77" target-width="16.96" target-x="30.66" target-y="8.91"></path></g><g node-id="117"><path d="M 47.33 18.98 L 47.83 19.56 L 48.71 20.75 L 49.02 21.37 L 49.03 21.71 L 48.71 21.99 L 48.24 22.11 L 47.63 22.09" fill="#ffffff" fill-rule="nonzero" group-id="33" id="路径_9322" node-id="34" stroke="none" target-height="3.130001" target-width="1.699997" target-x="47.33" target-y="18.98"></path></g><g node-id="118"><path d="M 48.01 22.45 L 47.58 22.41 L 47.36 22.28 L 47.30 22.04 L 47.43 21.82 L 47.68 21.75 L 48.31 21.75 L 48.73 21.56 L 48.01 20.31 L 47.08 19.20 L 46.98 18.96 L 47.08 18.73 L 47.32 18.63 L 47.55 18.73 L 48.89 20.45 L 49.30 21.30 L 49.32 21.83 L 48.75 22.32 L 48.01 22.45 Z" fill="#231f20" fill-rule="nonzero" group-id="34" id="路径_9323" node-id="35" stroke="none" target-height="3.8200016" target-width="2.3400002" target-x="46.98" target-y="18.63"></path></g><g node-id="119"><path d="M 46.51 15.84 L 47.16 16.52 L 47.52 17.47 L 47.78 19.45 L 48.36 24.29 L 48.22 24.73 L 47.73 25.11 L 46.35 25.51 L 45.31 25.49 L 46.33 29.45 L 40.48 28.16 L 40.21 24.79 L 41.08 24.45 L 41.81 23.90 L 42.37 23.18 L 42.72 22.31 L 42.95 21.08 L 43.01 19.57 L 42.80 16.83 L 42.62 15.58 L 43.38 15.50 L 45.01 15.47 L 45.87 15.59 L 46.51 15.84 Z" fill="#ffffff" fill-rule="nonzero" group-id="35" id="路径_9324" node-id="36" stroke="none" target-height="13.9800005" target-width="8.150002" target-x="40.21" target-y="15.47"></path></g><g node-id="120"><path d="M 46.33 29.79 L 46.26 29.79 L 40.40 28.50 L 40.14 28.20 L 39.87 24.83 L 39.95 24.60 L 40.16 24.47 L 40.94 24.16 L 41.59 23.66 L 42.09 23.00 L 42.40 22.22 L 42.62 21.05 L 42.67 19.59 L 42.47 16.92 L 42.29 15.67 L 42.34 15.42 L 42.56 15.28 L 43.50 15.17 L 45.16 15.16 L 46.02 15.29 L 46.69 15.55 L 46.69 15.55 L 47.35 16.18 L 47.73 16.99 L 48.04 18.79 L 48.11 19.40 L 48.68 24.26 L 48.56 24.83 L 48.15 25.24 L 46.99 25.74 L 45.75 25.91 L 46.65 29.35 L 46.59 29.64 L 46.33 29.76 Z M 40.79 27.89 L 45.87 29.01 L 44.99 25.59 L 45.10 25.24 L 45.46 25.20 L 46.66 25.13 L 47.78 24.70 L 48.03 24.33 L 47.46 19.52 L 47.38 18.88 L 47.12 17.31 L 46.82 16.61 L 46.35 16.14 L 44.68 15.80 L 42.98 15.91 L 43.21 17.66 L 43.33 20.13 L 43.24 21.39 L 43.02 22.44 L 42.66 23.31 L 42.11 24.06 L 41.39 24.66 L 40.54 25.07 Z" fill="#231f20" fill-rule="nonzero" group-id="36" id="路径_9325" node-id="37" stroke="none" target-height="14.630001" target-width="8.810001" target-x="39.87" target-y="15.16"></path></g><g node-id="121"><path d="M 48.14 23.10 L 47.65 23.37 L 47.10 23.42 L 46.57 23.24 L 46.16 22.86" fill="#ffffff" fill-rule="nonzero" group-id="37" id="路径_9326" node-id="38" stroke="none" target-height="0.55999947" target-width="1.9799995" target-x="46.16" target-y="22.86"></path></g><g node-id="122"><path d="M 47.19 23.80 L 47.00 23.80 L 46.37 23.56 L 45.89 23.07 L 45.82 22.82 L 45.96 22.60 L 46.21 22.54 L 46.43 22.68 L 46.72 22.98 L 47.10 23.13 L 47.95 22.86 L 48.18 22.81 L 48.39 22.92 L 48.47 23.15 L 48.38 23.37 L 47.82 23.68 L 47.19 23.80 Z" fill="#231f20" fill-rule="nonzero" group-id="38" id="路径_9327" node-id="39" stroke="none" target-height="1.2599983" target-width="2.6500015" target-x="45.82" target-y="22.54"></path></g><g node-id="123"><path d="M 44.41 20.47 L 44.17 19.91 L 43.79 19.43 L 43.12 18.76 L 42.68 18.59 L 42.21 18.62 L 41.87 18.86 L 41.66 19.21 L 41.58 20.04 L 41.79 20.93 L 42.21 21.72 L 42.82 22.37 L 43.60 22.86 L 43.50 22.77" fill="#ffffff" fill-rule="nonzero" group-id="39" id="路径_9328" node-id="40" stroke="none" target-height="4.2700005" target-width="2.829998" target-x="41.58" target-y="18.59"></path></g><g node-id="124"><path d="M 43.58 23.23 L 43.48 23.23 L 42.61 22.70 L 41.93 21.98 L 41.46 21.11 L 41.23 20.13 L 41.33 19.16 L 41.62 18.68 L 42.08 18.36 L 42.70 18.31 L 43.28 18.53 L 44.05 19.20 L 44.47 19.75 L 44.72 20.40 L 44.61 20.73 L 44.26 20.78 L 44.05 20.51 L 43.53 19.65 L 42.92 19.07 L 42.31 18.97 L 41.95 19.37 L 41.89 20.04 L 42.17 21.04 L 42.71 21.84 L 43.53 22.48 L 43.71 22.54 L 43.84 23.02 L 43.58 23.22 Z" fill="#231f20" fill-rule="nonzero" group-id="40" id="路径_9329" node-id="41" stroke="none" target-height="4.92" target-width="3.4900017" target-x="41.23" target-y="18.31"></path></g><g node-id="125"><path d="M 46.38 17.75 L 46.39 18.20 L 46.28 18.36 L 46.11 18.26 L 45.93 17.84 L 45.93 17.39 L 46.04 17.23 L 46.21 17.33 L 46.38 17.75 Z" fill="#231f20" fill-rule="nonzero" group-id="41" id="椭圆_125" node-id="42" stroke="none" target-height="1.1300011" target-width="0.45999908" target-x="45.93" target-y="17.23"></path></g><g node-id="126"><path d="M 39.49 29.35 L 39.70 27.50 L 46.84 26.83 L 48.01 29.35 L 45.16 29.93 L 42.34 29.93 L 39.49 29.35 Z" fill="#ffffff" fill-rule="nonzero" group-id="42" id="路径_9330" node-id="43" stroke="none" target-height="3.1000004" target-width="8.519997" target-x="39.49" target-y="26.83"></path></g><g node-id="127"><path d="M 43.86 30.31 L 41.61 30.14 L 39.41 29.64 L 39.17 29.28 L 39.38 27.44 L 39.68 27.14 L 46.82 26.47 L 47.16 26.67 L 48.32 29.18 L 48.32 29.45 L 48.12 29.63 L 46.02 30.15 L 43.86 30.31 Z M 39.87 29.08 L 42.43 29.57 L 44.98 29.59 L 47.55 29.14 L 46.65 27.19 L 40.02 27.79 Z" fill="#231f20" fill-rule="nonzero" group-id="43" id="路径_9331" node-id="44" stroke="none" target-height="3.8400002" target-width="9.150002" target-x="39.17" target-y="26.47"></path></g><g node-id="128"><path d="M 66.79 35.83 L 68.62 32.10 L 68.67 30.74 L 68.88 29.41 L 69.25 28.76 L 69.78 28.32 L 70.36 28.24 L 70.95 28.73 L 71.02 28.27 L 71.40 27.57 L 71.76 27.45 L 72.40 27.69 L 73.23 28.36 L 73.80 29.22 L 74.10 30.21 L 74.08 31.27 L 73.31 33.38 L 71.77 36.57 L 70.26 39.48 L 69.57 40.75" fill="#ffffff" fill-rule="nonzero" group-id="44" id="路径_9332" node-id="45" stroke="none" target-height="13.299999" target-width="7.3099976" target-x="66.79" target-y="27.45"></path></g><g node-id="129"><path d="M 69.57 41.08 L 69.41 41.04 L 69.25 40.83 L 69.27 40.58 L 70.94 37.43 L 72.80 33.68 L 73.74 31.22 L 73.76 30.25 L 73.49 29.35 L 72.97 28.57 L 72.21 27.96 L 71.63 27.80 L 71.38 28.24 L 71.28 28.73 L 71.04 29.04 L 70.67 28.90 L 70.34 28.59 L 70.15 28.56 L 69.55 28.93 L 69.19 29.53 L 68.99 31.32 L 68.96 32.14 L 68.10 34.11 L 67.08 36.00 L 66.79 36.19 L 66.48 36.02 L 66.49 35.67 L 68.29 32.04 L 68.29 31.31 L 68.33 30.29 L 68.54 29.29 L 69.11 28.39 L 70.05 27.89 L 70.72 28.03 L 70.93 27.56 L 71.30 27.20 L 71.96 27.12 L 72.57 27.39 L 73.47 28.12 L 74.09 29.05 L 74.41 30.13 L 74.40 31.28 L 73.69 33.30 L 72.24 36.33 L 70.74 39.24 L 69.86 40.89 L 69.57 41.08 Z" fill="#231f20" fill-rule="nonzero" group-id="45" id="路径_9333" node-id="46" stroke="none" target-height="13.960001" target-width="7.9300003" target-x="66.48" target-y="27.12"></path></g><g node-id="130"><path d="M 20.71 49.91 L 20.47 50.78 L 20.10 52.47 L 20.15 55.49 L 19.63 55.24 L 19.11 55.01 L 19.02 56.30 L 18.71 56.86 L 18.18 57.21 L 17.50 57.21 L 16.05 56.88 L 15.38 56.50 L 14.97 55.94 L 14.89 55.39 L 14.97 54.84 L 16.22 51.69 L 17.67 48.62" fill="#ffffff" fill-rule="nonzero" group-id="46" id="路径_9334" node-id="47" stroke="none" target-height="8.59" target-width="5.8199987" target-x="14.89" target-y="48.62"></path></g><g node-id="131"><path d="M 17.86 57.61 L 17.44 57.58 L 15.93 57.23 L 15.15 56.79 L 14.64 56.08 L 14.55 55.44 L 14.64 54.79 L 15.91 51.60 L 17.40 48.49 L 17.59 48.33 L 17.85 48.35 L 18.02 48.55 L 18.00 48.80 L 16.54 51.83 L 15.30 54.95 L 15.30 55.85 L 15.68 56.32 L 16.33 56.64 L 17.57 56.91 L 18.11 56.91 L 18.50 56.65 L 18.72 56.24 L 18.80 55.06 L 18.97 54.75 L 19.33 54.75 L 19.73 54.92 L 19.79 54.92 L 19.79 52.42 L 20.16 50.74 L 20.40 49.83 L 20.56 49.62 L 20.82 49.59 L 21.02 49.75 L 21.05 50.01 L 20.82 50.87 L 20.46 52.52 L 20.50 55.45 L 20.33 55.79 L 19.95 55.75 L 19.50 55.54 L 19.50 55.54 L 19.39 56.40 L 19.20 56.90 L 18.86 57.28 L 18.42 57.52 L 17.90 57.60 Z" fill="#231f20" fill-rule="nonzero" group-id="47" id="路径_9335" node-id="48" stroke="none" target-height="9.279999" target-width="6.499999" target-x="14.55" target-y="48.33"></path></g><g node-id="132"><path d="M 60.36 78.20 L 60.35 79.28 L 60.68 81.38 L 61.13 82.30 L 61.82 82.78 L 62.60 82.66 L 64.08 81.84 L 65.61 80.70 L 67.29 79.22 L 68.86 77.64 L 70.04 76.24 L 70.86 74.88 L 70.92 74.21 L 70.40 73.59 L 69.63 73.20 L 68.49 73.05 L 67.34 73.22 L 66.11 73.74 L 64.74 74.70 L 62.61 76.53 L 60.36 78.20 Z" fill="#ffffff" fill-rule="nonzero" group-id="48" id="路径_9336" node-id="49" stroke="none" target-height="9.729996" target-width="10.57" target-x="60.35" target-y="73.05"></path></g><g node-id="133"><path d="M 61.96 83.14 L 61.73 83.11 L 60.94 82.60 L 60.41 81.70 L 60.13 80.61 L 60.01 79.54 L 60.01 78.18 L 60.17 77.91 L 62.39 76.25 L 64.50 74.44 L 65.55 73.61 L 66.74 73.05 L 68.02 72.76 L 69.36 72.78 L 70.45 73.20 L 71.23 74.06 L 71.31 74.35 L 71.21 74.95 L 70.86 75.66 L 69.89 76.99 L 67.41 79.57 L 64.39 82.04 L 62.92 82.89 L 61.96 83.14 Z M 60.69 78.39 L 60.74 79.87 L 61.09 81.50 L 61.45 82.12 L 61.91 82.43 L 62.49 82.32 L 63.73 81.63 L 66.59 79.37 L 69.36 76.53 L 70.52 74.79 L 70.61 74.35 L 70.04 73.75 L 69.26 73.45 L 68.08 73.45 L 66.96 73.71 L 65.92 74.21 L 65.00 74.95 L 62.90 76.74 L 60.69 78.39 Z" fill="#231f20" fill-rule="nonzero" group-id="49" id="路径_9337" node-id="50" stroke="none" target-height="10.379997" target-width="11.299999" target-x="60.01" target-y="72.76"></path></g><g node-id="134"><path d="M 41.51 61.17 L 43.27 61.45 L 47.71 61.90 L 50.49 62.02 L 53.57 61.97 L 56.66 61.69 L 59.60 61.11 L 60.27 78.19 L 61.15 78.25 L 62.04 78.09 L 63.33 77.52 L 64.59 76.54 L 66.11 74.67 L 66.24 72.47 L 66.48 67.17 L 66.58 60.78 L 66.31 55.28 L 65.89 53.29 L 65.44 52.66 L 64.56 52.52 L 62.54 52.52 L 57.44 52.92 L 51.78 53.57 L 47.19 54.17 L 45.29 54.44 Z" fill="#231f20" fill-rule="nonzero" group-id="50" id="路径_9338" node-id="51" stroke="none" target-height="25.73" target-width="25.070004" target-x="41.51" target-y="52.52"></path></g><g node-id="135"><path d="M 60.89 78.59 L 60.17 78.52 L 59.93 78.21 L 59.29 61.54 L 56.39 62.07 L 53.35 62.31 L 50.32 62.34 L 47.60 62.22 L 43.24 61.78 L 41.46 61.50 L 41.22 61.32 L 41.24 61.01 L 45.01 54.28 L 45.26 54.11 L 47.89 53.75 L 52.61 53.14 L 58.06 52.53 L 62.84 52.19 L 64.73 52.21 L 65.58 52.36 L 66.05 52.92 L 66.50 54.53 L 66.74 56.50 L 66.88 59.15 L 66.88 64.91 L 66.68 70.53 L 66.44 74.70 L 66.38 74.86 L 64.66 76.93 L 63.25 77.95 L 61.82 78.49 L 60.89 78.59 Z M 60.59 77.92 L 61.76 77.83 L 62.56 77.55 L 63.60 76.94 L 64.60 76.05 L 65.78 74.55 L 66.22 65.21 L 66.22 59.01 L 65.95 55.00 L 65.62 53.40 L 65.33 52.97 L 64.56 52.84 L 62.65 52.85 L 57.60 53.24 L 51.47 53.94 L 45.52 54.74 L 42.05 60.92 L 46.07 61.42 L 49.04 61.62 L 52.57 61.66 L 56.15 61.41 L 59.55 60.78 L 59.84 60.83 L 59.98 61.09 Z" fill="#231f20" fill-rule="nonzero" group-id="51" id="路径_9339" node-id="52" stroke="none" target-height="26.399998" target-width="25.659996" target-x="41.22" target-y="52.19"></path></g><g node-id="136"><path d="M 35.60 58.65 L 35.89 60.29 L 36.57 64.20 L 37.33 68.89 L 37.89 72.87 L 37.99 74.33 L 37.93 74.65 L 36.27 76.20 L 32.76 79.62 L 28.67 83.64 L 25.28 86.99 L 23.87 88.39 L 24.10 93.61 L 26.17 92.29 L 31.16 89.04 L 37.17 84.89 L 42.32 80.91 L 44.14 79.12 L 44.73 78.13 L 45.25 74.85 L 45.87 69.64 L 46.48 64.04 L 46.95 59.56 L 47.13 57.73 Z" fill="#231f20" fill-rule="nonzero" group-id="52" id="路径_9340" node-id="53" stroke="none" target-height="35.88" target-width="23.26" target-x="23.87" target-y="57.73"></path></g><g node-id="137"><path d="M 24.09 93.96 L 23.94 93.92 L 23.76 93.64 L 23.53 88.41 L 23.63 88.16 L 26.57 85.26 L 30.99 80.90 L 35.25 76.74 L 37.65 74.45 L 37.49 72.32 L 36.90 68.28 L 36.10 63.38 L 35.27 58.72 L 35.34 58.46 L 35.57 58.32 L 47.10 57.42 L 47.37 57.52 L 47.46 57.79 L 47.25 59.89 L 46.78 64.42 L 46.18 69.93 L 45.57 75.01 L 45.06 78.23 L 44.50 79.19 L 42.83 80.89 L 38.04 84.68 L 32.28 88.70 L 27.16 92.07 L 24.28 93.91 L 24.10 93.95 Z M 24.21 88.53 L 24.41 93.03 L 30.82 88.88 L 37.21 84.45 L 42.20 80.58 L 43.89 78.92 L 44.41 78.07 L 45.00 74.18 L 45.72 68.06 L 46.37 61.96 L 46.76 58.12 L 36.00 58.96 L 37.54 68.00 L 38.20 72.73 L 38.27 74.57 L 38.10 74.94 L 36.50 76.45 L 33.00 79.85 L 28.59 84.20 L 24.22 88.52 Z M 37.76 74.40 L 37.73 74.40 Z" fill="#231f20" fill-rule="nonzero" group-id="53" id="路径_9341" node-id="54" stroke="none" target-height="36.54" target-width="23.929998" target-x="23.53" target-y="57.42"></path></g><g node-id="138"><path d="M 54.30 32.23 L 53.62 31.35 L 52.62 30.61 L 50.41 29.65 L 47.61 28.99 L 42.86 28.57 L 40.36 28.68 L 37.96 29.19 L 35.62 30.11 L 35.58 33.33 L 35.56 39.82 L 35.52 47.71 L 35.38 55.13 L 35.10 60.22 L 37.18 60.50 L 39.28 60.60 L 42.12 60.48 L 45.02 59.97 L 47.99 58.90 L 49.80 57.84 L 51.42 56.39 L 52.86 54.50 L 52.93 52.36 L 53.15 47.18 L 53.49 40.84 L 53.89 35.23 L 54.30 32.23 Z" fill="#ff595e" fill-rule="nonzero" group-id="54" id="路径_9342" node-id="55" stroke="none" target-height="32.03" target-width="19.2" target-x="35.1" target-y="28.57"></path></g><g node-id="139"><path d="M 7.95 55.70 L 24.07 60.06 L 25.07 60.56 L 25.77 61.37 L 26.11 62.38 L 26.04 63.50 L 23.73 72.05 L 23.23 73.05 L 22.42 73.75 L 21.41 74.10 L 20.28 74.02 L 4.17 69.66 L 3.17 69.16 L 2.47 68.35 L 2.12 67.34 L 2.19 66.22 L 4.51 57.67 L 5.01 56.67 L 5.82 55.97 L 6.83 55.62 L 7.95 55.70 Z" fill="#ffffff" fill-rule="nonzero" group-id="55" id="矩形_3253" node-id="56" stroke="none" target-height="18.48" target-width="23.990002" target-x="2.12" target-y="55.62"></path></g><g node-id="140"><path d="M 21.66 74.67 L 21.08 74.59 L 21.08 74.59 L 3.20 69.73 L 2.41 69.33 L 1.86 68.70 L 1.58 67.91 L 1.63 67.03 L 4.42 56.72 L 4.81 55.92 L 5.47 55.34 L 6.31 55.06 L 7.19 55.13 L 25.07 59.98 L 25.87 60.37 L 26.42 61.02 L 26.69 61.82 L 26.64 62.71 L 23.84 73.02 L 23.46 73.80 L 22.80 74.36 L 21.66 74.67 Z M 21.25 73.94 L 21.87 73.98 L 22.43 73.78 L 22.88 73.40 L 23.15 72.84 L 25.95 62.53 L 25.99 61.92 L 25.80 61.35 L 25.40 60.89 L 24.86 60.62 L 6.97 55.78 L 6.35 55.74 L 5.79 55.93 L 5.35 56.32 L 5.07 56.87 L 2.27 67.19 L 2.24 67.81 L 2.43 68.36 L 2.82 68.81 L 3.37 69.09 Z" fill="#231f20" fill-rule="nonzero" group-id="56" id="路径_9343" node-id="57" stroke="none" target-height="19.609997" target-width="25.11" target-x="1.58" target-y="55.06"></path></g><g node-id="141"><path d="M 23.51 64.29 L 23.42 64.29 L 6.39 59.66 L 6.18 59.50 L 6.15 59.24 L 6.30 59.03 L 6.56 58.99 L 23.59 63.61 L 23.82 63.74 L 23.89 63.99 L 23.76 64.21 L 23.51 64.28 Z" fill="#d1d3d4" fill-rule="nonzero" group-id="57" id="路径_9344" node-id="58" stroke="none" target-height="5.299999" target-width="17.74" target-x="6.15" target-y="58.99"></path></g><g node-id="142"><path d="M 19.98 59.29 L 19.89 59.29 L 11.93 57.13 L 11.73 56.97 L 11.70 56.72 L 12.11 55.20 L 12.43 54.56 L 12.94 54.13 L 13.57 53.91 L 14.28 53.95 L 19.48 55.36 L 20.10 55.67 L 20.55 56.19 L 20.77 56.84 L 20.72 57.53 L 20.31 59.05 L 20.15 59.26 L 19.98 59.29 Z M 12.44 56.56 L 19.75 58.54 L 20.07 57.34 L 20.10 56.90 L 19.96 56.51 L 19.69 56.19 L 19.30 56.00 L 14.10 54.59 L 13.67 54.56 L 13.27 54.70 L 12.95 54.98 L 12.77 55.37 Z" fill="#231f20" fill-rule="nonzero" group-id="58" id="路径_9345" node-id="59" stroke="none" target-height="5.380001" target-width="9.070001" target-x="11.7" target-y="53.91"></path></g><g node-id="143"><path d="M 38.05 29.10 L 36.48 29.73 L 32.87 31.26 L 28.83 33.15 L 27.05 34.13 L 26.00 34.86 L 25.04 35.85 L 23.43 37.83 L 19.98 42.50 L 16.96 46.82 L 15.65 48.72 L 22.67 51.35 L 23.46 50.05 L 25.34 47.07 L 27.52 43.84 L 29.23 41.79 L 30.02 41.37 L 31.43 40.97 L 34.68 40.45 L 37.63 40.19 L 38.91 40.11 Z" fill="#ff595e" fill-rule="nonzero" group-id="59" id="路径_9346" node-id="60" stroke="none" target-height="22.249998" target-width="23.26" target-x="15.65" target-y="29.1"></path></g><g node-id="144"><path d="M 54.30 32.23 L 55.47 33.73 L 58.11 36.97 L 60.92 40.07 L 62.13 41.08 L 62.59 41.16 L 63.59 39.65 L 64.94 37.06 L 66.12 34.61 L 66.62 33.52 L 72.01 38.02 L 71.61 39.95 L 71.11 41.83 L 70.31 44.16 L 69.26 46.40 L 67.94 48.28 L 66.85 49.25 L 65.66 49.79 L 64.30 49.94 L 62.07 49.44 L 59.41 48.33 L 56.79 46.88 L 54.27 45.25 L 50.21 42.27 L 48.56 40.93 Z" fill="#ff595e" fill-rule="nonzero" group-id="60" id="路径_9347" node-id="61" stroke="none" target-height="17.71" target-width="23.45" target-x="48.56" target-y="32.23"></path></g><g node-id="145"><path d="M 57.84 47.82 L 57.70 47.82 L 54.32 45.97 L 51.19 43.77 L 48.32 41.19 L 48.22 40.85 L 48.47 40.61 L 48.81 40.73 L 51.61 43.24 L 54.66 45.40 L 57.97 47.20 L 58.17 47.57 L 57.84 47.82 Z" fill="#231f20" fill-rule="nonzero" group-id="61" id="路径_9348" node-id="62" stroke="none" target-height="7.209999" target-width="9.949997" target-x="48.22" target-y="40.61"></path></g><g node-id="146"><path d="M 35.33 55.59 L 35.33 55.59 L 35.10 55.49 L 35.01 55.24 L 35.07 52.03 L 35.10 47.13 L 35.10 41.91 L 35.08 37.74 L 35.08 35.98 L 35.18 35.74 L 35.41 35.65 L 35.41 35.65 L 35.65 35.74 L 35.75 35.98 L 35.76 37.74 L 35.77 41.92 L 35.77 47.14 L 35.75 52.05 L 35.69 55.27 L 35.58 55.50 L 35.34 55.59 Z" fill="#231f20" fill-rule="nonzero" group-id="62" id="路径_9349" node-id="63" stroke="none" target-height="19.939999" target-width="0.76000214" target-x="35.01" target-y="35.65"></path></g><g node-id="147"><path d="M 27.03 90.95 L 27.14 89.00 L 26.97 87.66 L 26.61 86.78 L 26.01 86.05 L 25.41 85.69 L 24.75 85.63 L 23.55 85.84 L 23.08 86.16 L 22.64 86.84 L 22.32 87.78 L 22.01 89.51 L 21.87 91.53 L 21.95 93.71 L 22.26 95.84 L 22.76 97.51 L 23.27 98.46 L 23.83 98.96 L 24.45 99.14 L 25.32 98.82 L 25.95 97.88 L 26.32 96.59 L 26.59 94.81 L 27.03 90.95 Z" fill="#ffffff" fill-rule="nonzero" group-id="63" id="路径_9350" node-id="64" stroke="none" target-height="13.510002" target-width="5.2699986" target-x="21.87" target-y="85.63"></path></g><g node-id="148"><path d="M 24.44 99.49 L 23.72 99.30 L 23.14 98.81 L 22.55 97.86 L 22.04 96.40 L 21.72 94.78 L 21.55 92.96 L 21.53 91.13 L 21.66 89.44 L 22.18 87.01 L 22.74 86.00 L 23.54 85.45 L 24.55 85.27 L 24.71 85.27 L 25.66 85.41 L 26.45 85.95 L 27.13 87.06 L 27.47 88.67 L 27.38 90.97 L 27.08 93.47 L 26.79 95.85 L 26.39 97.66 L 25.92 98.66 L 25.29 99.23 L 24.45 99.46 Z M 24.91 85.97 L 24.62 85.97 L 23.60 86.19 L 23.23 86.49 L 22.87 87.13 L 22.35 89.53 L 22.24 92.85 L 22.39 94.58 L 22.68 96.11 L 23.15 97.48 L 23.70 98.36 L 24.04 98.65 L 24.48 98.77 L 24.48 98.77 L 25.02 98.59 L 25.47 98.11 L 25.84 97.17 L 26.42 93.39 L 26.72 90.87 L 26.83 88.93 L 26.67 87.77 L 26.30 86.85 L 25.98 86.42 L 25.49 86.09 L 24.91 85.98 Z" fill="#231f20" fill-rule="nonzero" group-id="64" id="路径_9351" node-id="65" stroke="none" target-height="14.220001" target-width="5.9399986" target-x="21.53" target-y="85.27"></path></g><g node-id="149"><path d="M 45.01 118.18 L 44.69 118.06 L 44.64 117.72 L 44.92 117.51 L 49.75 115.76 L 54.12 113.61 L 58.08 111.05 L 61.77 108.11 L 65.14 104.94 L 68.20 101.53 L 72.35 96.10 L 75.96 90.59 L 79.21 85.02 L 82.03 79.88 L 86.33 72.26 L 88.41 69.23 L 90.24 67.22 L 91.59 66.25 L 92.90 65.78 L 94.21 65.75 L 96.42 66.30 L 98.18 67.05 L 99.57 67.97 L 101.44 69.67 L 103.05 71.49 L 105.78 74.41 L 107.41 75.59 L 109.50 76.53 L 111.91 77.07 L 115.30 77.18 L 117.05 76.75 L 119.20 75.57 L 121.88 73.36 L 125.62 69.41 L 129.98 63.92 L 134.24 57.90 L 138.68 51.11 L 142.99 44.11 L 147.08 37.16 L 154.25 24.34 L 159.28 14.88 L 161.26 11.04 L 161.54 10.83 L 161.86 10.99 L 161.86 11.34 L 160.37 14.27 L 156.42 21.76 L 150.65 32.30 L 143.69 44.32 L 136.40 55.94 L 130.53 64.35 L 125.86 70.18 L 122.18 74.00 L 119.32 76.29 L 117.08 77.48 L 115.32 77.87 L 111.79 77.75 L 109.24 77.17 L 107.03 76.17 L 105.33 74.93 L 103.85 73.47 L 102.53 71.94 L 100.95 70.13 L 99.18 68.52 L 97.87 67.66 L 96.20 66.95 L 94.10 66.44 L 92.94 66.49 L 91.74 66.96 L 90.45 67.97 L 88.71 69.97 L 86.72 72.95 L 82.66 80.21 L 79.82 85.39 L 76.54 91.01 L 72.90 96.56 L 68.70 102.04 L 65.61 105.47 L 62.20 108.67 L 58.47 111.64 L 54.46 114.21 L 50.04 116.39 L 45.14 118.16 Z" fill="#231f20" fill-rule="nonzero" group-id="65" id="路径_9352" node-id="66" stroke="none" target-height="107.35" target-width="117.22" target-x="44.64" target-y="10.83"></path></g><g node-id="150"><path d="M 161.56 18.23 L 161.32 18.13 L 161.22 17.90 L 161.22 11.72 L 155.52 14.05 L 155.27 14.05 L 155.09 13.87 L 155.09 13.61 L 155.27 13.43 L 161.43 10.91 L 161.75 10.91 L 161.90 11.19 L 161.90 17.90 L 161.80 18.14 L 161.56 18.23 Z" fill="#231f20" fill-rule="nonzero" group-id="66" id="路径_9353" node-id="67" stroke="none" target-height="7.3199997" target-width="6.8099976" target-x="155.09" target-y="10.91"></path></g><g node-id="151"><path d="M 86.29 23.80 L 86.04 23.74 L 85.91 23.52 L 85.95 23.27 L 86.16 23.13 L 95.41 19.40 L 95.75 19.44 L 95.87 19.76 L 95.66 20.02 L 86.41 23.75 L 86.29 23.80 Z" fill="#e6e7e8" fill-rule="nonzero" group-id="67" id="路径_9354" node-id="68" stroke="none" target-height="4.3999996" target-width="9.959999" target-x="85.91" target-y="19.4"></path></g><g node-id="152"><path d="M 86.29 19.51 L 85.97 19.29 L 85.98 19.03 L 86.16 18.85 L 101.70 12.59 L 102.04 12.63 L 102.17 12.95 L 101.95 13.21 L 86.41 19.48 L 86.29 19.51 Z" fill="#e6e7e8" fill-rule="nonzero" group-id="68" id="路径_9355" node-id="69" stroke="none" target-height="6.92" target-width="16.199997" target-x="85.97" target-y="12.59"></path></g><g node-id="153"><path d="M 86.29 15.21 L 86.04 15.15 L 85.91 14.94 L 85.95 14.69 L 86.16 14.54 L 101.70 8.27 L 102.04 8.31 L 102.17 8.63 L 101.95 8.90 L 86.41 15.21 L 86.29 15.21 Z" fill="#e6e7e8" fill-rule="nonzero" group-id="69" id="路径_9356" node-id="70" stroke="none" target-height="6.9399996" target-width="16.259995" target-x="85.91" target-y="8.27"></path></g><g node-id="154"><path d="M 86.29 10.91 L 86.04 10.85 L 85.91 10.63 L 85.95 10.38 L 86.16 10.24 L 101.70 3.97 L 101.95 3.98 L 102.13 4.16 L 102.13 4.42 L 101.95 4.60 L 86.41 10.86 L 86.29 10.91 Z" fill="#e6e7e8" fill-rule="nonzero" group-id="70" id="路径_9357" node-id="71" stroke="none" target-height="6.9399996" target-width="16.219994" target-x="85.91" target-y="3.97"></path></g><g node-id="155"><path d="M 55.79 17.00 L 55.48 16.79 L 55.48 16.53 L 55.66 16.35 L 69.44 10.80 L 69.78 10.84 L 69.91 11.16 L 69.69 11.42 L 55.91 16.97 L 55.78 17.00 Z" fill="#e6e7e8" fill-rule="nonzero" group-id="71" id="路径_9358" node-id="72" stroke="none" target-height="6.2" target-width="14.430004" target-x="55.48" target-y="10.8"></path></g><g node-id="156"><path d="M 55.79 12.71 L 55.48 12.49 L 55.48 12.24 L 55.66 12.06 L 71.20 5.79 L 71.45 5.80 L 71.63 5.98 L 71.64 6.23 L 71.45 6.42 L 55.91 12.68 L 55.79 12.71 Z" fill="#e6e7e8" fill-rule="nonzero" group-id="72" id="路径_9359" node-id="73" stroke="none" target-height="6.92" target-width="16.16" target-x="55.48" target-y="5.79"></path></g><g node-id="157"><path d="M 55.79 8.41 L 55.48 8.20 L 55.48 7.94 L 55.66 7.76 L 71.20 1.50 L 71.46 1.50 L 71.64 1.68 L 71.64 1.94 L 71.45 2.12 L 55.91 8.39 L 55.79 8.41 Z" fill="#e6e7e8" fill-rule="nonzero" group-id="73" id="路径_9360" node-id="74" stroke="none" target-height="6.91" target-width="16.16" target-x="55.48" target-y="1.5"></path></g><g node-id="158"><path d="M 153.67 41.92 L 153.43 41.86 L 153.29 41.64 L 153.34 41.39 L 153.55 41.24 L 163.16 37.42 L 163.50 37.46 L 163.63 37.78 L 163.41 38.05 L 153.80 41.92 L 153.67 41.92 Z" fill="#e6e7e8" fill-rule="nonzero" group-id="74" id="路径_9361" node-id="75" stroke="none" target-height="4.5" target-width="10.340012" target-x="153.29" target-y="37.42"></path></g><g node-id="159"><path d="M 153.67 47.06 L 153.43 47.00 L 153.29 46.79 L 153.34 46.54 L 153.55 46.39 L 163.16 42.51 L 163.50 42.55 L 163.63 42.87 L 163.41 43.14 L 153.80 47.01 L 153.67 47.06 Z" fill="#e6e7e8" fill-rule="nonzero" group-id="75" id="路径_9362" node-id="76" stroke="none" target-height="4.550003" target-width="10.340012" target-x="153.29" target-y="42.51"></path></g><g node-id="160"><path d="M 153.67 52.23 L 153.43 52.17 L 153.29 51.95 L 153.34 51.70 L 153.55 51.55 L 163.16 47.68 L 163.42 47.68 L 163.60 47.86 L 163.60 48.12 L 163.41 48.30 L 153.80 52.17 L 153.67 52.23 Z" fill="#e6e7e8" fill-rule="nonzero" group-id="76" id="路径_9363" node-id="77" stroke="none" target-height="4.549999" target-width="10.310013" target-x="153.29" target-y="47.68"></path></g><g node-id="161"><path d="M 153.67 57.34 L 153.43 57.28 L 153.29 57.07 L 153.34 56.82 L 153.55 56.67 L 163.16 52.79 L 163.42 52.80 L 163.60 52.97 L 163.60 53.23 L 163.41 53.41 L 153.80 57.29 L 153.67 57.34 Z" fill="#e6e7e8" fill-rule="nonzero" group-id="77" id="路径_9364" node-id="78" stroke="none" target-height="4.549999" target-width="10.310013" target-x="153.29" target-y="52.79"></path></g><g node-id="162"><path d="M 153.67 62.48 L 153.36 62.28 L 153.36 62.02 L 153.54 61.83 L 163.16 57.96 L 163.53 57.98 L 163.66 58.32 L 163.41 58.58 L 153.80 62.46 L 153.67 62.48 Z" fill="#e6e7e8" fill-rule="nonzero" group-id="78" id="路径_9365" node-id="79" stroke="none" target-height="4.5200005" target-width="10.300003" target-x="153.36" target-y="57.96"></path></g><g node-id="163"><path d="M 153.67 67.63 L 153.36 67.41 L 153.36 67.16 L 153.54 66.98 L 158.35 65.02 L 158.61 65.02 L 158.79 65.20 L 158.79 65.46 L 158.61 65.64 L 153.80 67.58 L 153.67 67.63 Z" fill="#e6e7e8" fill-rule="nonzero" group-id="79" id="路径_9366" node-id="80" stroke="none" target-height="2.6100006" target-width="5.4299927" target-x="153.36" target-y="65.02"></path></g><path d="M 35.78 142.54 L 35.57 142.47 L 0.15 115.23 L -0.00 114.91 L 0.21 114.63 L 0.56 114.70 L 35.82 141.81 L 163.33 82.51 L 163.59 82.50 L 163.78 82.68 L 163.79 82.94 L 163.61 83.12 L 35.92 142.51 L 35.78 142.54 Z" fill="#231f20" fill-rule="nonzero" group-id="80" id="路径_9367" node-id="81" stroke="none" target-height="60.039993" target-width="163.79" target-x="-0" target-y="82.5"></path></svg>